  0
SECTION
  2
HEADER
  9
$ACADVER
  1
AC1018
  9
$ACADMAINTVER
 70
     0
  9
$DWGCODEPAGE
  3
ANSI_932
  9
$INSBASE
 10
0.0
 20
0.0
 30
0.0
  9
$EXTMIN
 10
1.000000000000000E+20
 20
1.000000000000000E+20
 30
1.000000000000000E+20
  9
$EXTMAX
 10
-1.000000000000000E+20
 20
-1.000000000000000E+20
 30
-1.000000000000000E+20
  9
$LIMMIN
 10
0.0
 20
0.0
  9
$LIMMAX
 10
12.0
 20
9.0
  9
$ORTHOMODE
 70
     0
  9
$REGENMODE
 70
     1
  9
$FILLMODE
 70
     1
  9
$QTEXTMODE
 70
     0
  9
$MIRRTEXT
 70
     1
  9
$LTSCALE
 40
1.0
  9
$ATTMODE
 70
     1
  9
$TEXTSIZE
 40
0.2
  9
$TRACEWID
 40
0.05
  9
$TEXTSTYLE
  7
Standard
  9
$CLAYER
  8
0
  9
$CELTYPE
  6
ByLayer
  9
$CECOLOR
 62
   256
  9
$CELTSCALE
 40
1.0
  9
$DISPSILH
 70
     0
  9
$DIMSCALE
 40
1.0
  9
$DIMASZ
 40
0.18
  9
$DIMEXO
 40
0.0625
  9
$DIMDLI
 40
0.38
  9
$DIMRND
 40
0.0
  9
$DIMDLE
 40
0.0
  9
$DIMEXE
 40
0.18
  9
$DIMTP
 40
0.0
  9
$DIMTM
 40
0.0
  9
$DIMTXT
 40
0.18
  9
$DIMCEN
 40
0.09
  9
$DIMTSZ
 40
0.0
  9
$DIMTOL
 70
     0
  9
$DIMLIM
 70
     0
  9
$DIMTIH
 70
     1
  9
$DIMTOH
 70
     1
  9
$DIMSE1
 70
     0
  9
$DIMSE2
 70
     0
  9
$DIMTAD
 70
     0
  9
$DIMZIN
 70
     0
  9
$DIMBLK
  1

  9
$DIMASO
 70
     1
  9
$DIMSHO
 70
     1
  9
$DIMPOST
  1

  9
$DIMAPOST
  1

  9
$DIMALT
 70
     0
  9
$DIMALTD
 70
     2
  9
$DIMALTF
 40
25.4
  9
$DIMLFAC
 40
1.0
  9
$DIMTOFL
 70
     0
  9
$DIMTVP
 40
0.0
  9
$DIMTIX
 70
     0
  9
$DIMSOXD
 70
     0
  9
$DIMSAH
 70
     0
  9
$DIMBLK1
  1

  9
$DIMBLK2
  1

  9
$DIMSTYLE
  2
Standard
  9
$DIMCLRD
 70
     0
  9
$DIMCLRE
 70
     0
  9
$DIMCLRT
 70
     0
  9
$DIMTFAC
 40
1.0
  9
$DIMGAP
 40
0.09
  9
$DIMJUST
 70
     0
  9
$DIMSD1
 70
     0
  9
$DIMSD2
 70
     0
  9
$DIMTOLJ
 70
     1
  9
$DIMTZIN
 70
     0
  9
$DIMALTZ
 70
     0
  9
$DIMALTTZ
 70
     0
  9
$DIMUPT
 70
     0
  9
$DIMDEC
 70
     4
  9
$DIMTDEC
 70
     4
  9
$DIMALTU
 70
     2
  9
$DIMALTTD
 70
     2
  9
$DIMTXSTY
  7
Standard
  9
$DIMAUNIT
 70
     0
  9
$DIMADEC
 70
     0
  9
$DIMALTRND
 40
0.0
  9
$DIMAZIN
 70
     0
  9
$DIMDSEP
 70
    46
  9
$DIMATFIT
 70
     3
  9
$DIMFRAC
 70
     0
  9
$DIMLDRBLK
  1

  9
$DIMLUNIT
 70
     2
  9
$DIMLWD
 70
    -2
  9
$DIMLWE
 70
    -2
  9
$DIMTMOVE
 70
     0
  9
$LUNITS
 70
     2
  9
$LUPREC
 70
     4
  9
$SKETCHINC
 40
0.1
  9
$FILLETRAD
 40
0.5
  9
$AUNITS
 70
     0
  9
$AUPREC
 70
     0
  9
$MENU
  1
.
  9
$ELEVATION
 40
0.0
  9
$PELEVATION
 40
0.0
  9
$THICKNESS
 40
0.0
  9
$LIMCHECK
 70
     0
  9
$CHAMFERA
 40
0.5
  9
$CHAMFERB
 40
0.5
  9
$CHAMFERC
 40
1.0
  9
$CHAMFERD
 40
0.0
  9
$SKPOLY
 70
     0
  9
$TDCREATE
 40
2457287.664895833
  9
$TDUCREATE
 40
2457287.623229166
  9
$TDUPDATE
 40
2457287.664895845
  9
$TDUUPDATE
 40
2457287.623229178
  9
$TDINDWG
 40
0.0000000116
  9
$TDUSRTIMER
 40
0.0000000116
  9
$USRTIMER
 70
     1
  9
$ANGBASE
 50
0.0
  9
$ANGDIR
 70
     0
  9
$PDMODE
 70
     0
  9
$PDSIZE
 40
0.0
  9
$PLINEWID
 40
0.0
  9
$SPLFRAME
 70
     0
  9
$SPLINETYPE
 70
     6
  9
$SPLINESEGS
 70
     8
  9
$HANDSEED
  5
22C
  9
$SURFTAB1
 70
     6
  9
$SURFTAB2
 70
     6
  9
$SURFTYPE
 70
     6
  9
$SURFU
 70
     6
  9
$SURFV
 70
     6
  9
$UCSBASE
  2

  9
$UCSNAME
  2

  9
$UCSORG
 10
0.0
 20
0.0
 30
0.0
  9
$UCSXDIR
 10
1.0
 20
0.0
 30
0.0
  9
$UCSYDIR
 10
0.0
 20
1.0
 30
0.0
  9
$UCSORTHOREF
  2

  9
$UCSORTHOVIEW
 70
     0
  9
$UCSORGTOP
 10
0.0
 20
0.0
 30
0.0
  9
$UCSORGBOTTOM
 10
0.0
 20
0.0
 30
0.0
  9
$UCSORGLEFT
 10
0.0
 20
0.0
 30
0.0
  9
$UCSORGRIGHT
 10
0.0
 20
0.0
 30
0.0
  9
$UCSORGFRONT
 10
0.0
 20
0.0
 30
0.0
  9
$UCSORGBACK
 10
0.0
 20
0.0
 30
0.0
  9
$PUCSBASE
  2

  9
$PUCSNAME
  2

  9
$PUCSORG
 10
0.0
 20
0.0
 30
0.0
  9
$PUCSXDIR
 10
1.0
 20
0.0
 30
0.0
  9
$PUCSYDIR
 10
0.0
 20
1.0
 30
0.0
  9
$PUCSORTHOREF
  2

  9
$PUCSORTHOVIEW
 70
     0
  9
$PUCSORGTOP
 10
0.0
 20
0.0
 30
0.0
  9
$PUCSORGBOTTOM
 10
0.0
 20
0.0
 30
0.0
  9
$PUCSORGLEFT
 10
0.0
 20
0.0
 30
0.0
  9
$PUCSORGRIGHT
 10
0.0
 20
0.0
 30
0.0
  9
$PUCSORGFRONT
 10
0.0
 20
0.0
 30
0.0
  9
$PUCSORGBACK
 10
0.0
 20
0.0
 30
0.0
  9
$USERI1
 70
     0
  9
$USERI2
 70
     0
  9
$USERI3
 70
     0
  9
$USERI4
 70
     0
  9
$USERI5
 70
     0
  9
$USERR1
 40
0.0
  9
$USERR2
 40
0.0
  9
$USERR3
 40
0.0
  9
$USERR4
 40
0.0
  9
$USERR5
 40
0.0
  9
$WORLDVIEW
 70
     1
  9
$SHADEDGE
 70
     3
  9
$SHADEDIF
 70
    70
  9
$TILEMODE
 70
     1
  9
$MAXACTVP
 70
    64
  9
$PINSBASE
 10
0.0
 20
0.0
 30
0.0
  9
$PLIMCHECK
 70
     0
  9
$PEXTMIN
 10
1.000000000000000E+20
 20
1.000000000000000E+20
 30
1.000000000000000E+20
  9
$PEXTMAX
 10
-1.000000000000000E+20
 20
-1.000000000000000E+20
 30
-1.000000000000000E+20
  9
$PLIMMIN
 10
0.0
 20
0.0
  9
$PLIMMAX
 10
12.0
 20
9.0
  9
$UNITMODE
 70
     0
  9
$VISRETAIN
 70
     1
  9
$PLINEGEN
 70
     0
  9
$PSLTSCALE
 70
     1
  9
$TREEDEPTH
 70
  3020
  9
$CMLSTYLE
  2
Standard
  9
$CMLJUST
 70
     0
  9
$CMLSCALE
 40
1.0
  9
$PROXYGRAPHICS
 70
     1
  9
$MEASUREMENT
 70
     0
  9
$CELWEIGHT
370
    -1
  9
$ENDCAPS
280
     0
  9
$JOINSTYLE
280
     0
  9
$LWDISPLAY
290
     1
  9
$INSUNITS
 70
     1
  9
$HYPERLINKBASE
  1

  9
$STYLESHEET
  1

  9
$XEDIT
290
     1
  9
$CEPSNTYPE
380
     0
  9
$PSTYLEMODE
290
     1
  9
$FINGERPRINTGUID
  2
{C01851C2-4E62-7750-8C36-F1CB6BF1C303}
  9
$VERSIONGUID
  2
{FAEB1C32-E019-11D5-929B-00C0DF256EC4}
  9
$EXTNAMES
290
     1
  9
$PSVPSCALE
 40
0.0
  9
$OLESTARTUP
290
     0
  9
$SORTENTS
280
   127
  9
$INDEXCTL
280
     0
  9
$HIDETEXT
280
     1
  9
$XCLIPFRAME
290
     0
  9
$HALOGAP
280
     0
  9
$OBSCOLOR
 70
   257
  9
$OBSLTYPE
280
     0
  9
$INTERSECTIONDISPLAY
280
     0
  9
$INTERSECTIONCOLOR
 70
   257
  9
$DIMASSOC
280
     2
  9
$PROJECTNAME
  1

  0
ENDSEC
  0
SECTION
  2
CLASSES
  0
CLASS
  1
ACDBDICTIONARYWDFLT
  2
AcDbDictionaryWithDefault
  3
ObjectDBX Classes
 90
        0
 91
        3
280
     0
281
     0
  0
CLASS
  1
VISUALSTYLE
  2
AcDbVisualStyle
  3
ObjectDBX Classes
 90
     4095
 91
        3
280
     0
281
     0
  0
ENDSEC
  0
SECTION
  2
TABLES
  0
TABLE
  2
VPORT
  5
8
330
0
100
AcDbSymbolTable
 70
     1
  0
VPORT
  5
29
330
8
100
AcDbSymbolTableRecord
100
AcDbViewportTableRecord
  2
*Active
 70
     0
 10
0.0
 20
0.0
 11
1.0
 21
1.0
 12
0.0
 22
0.0
 13
0.0
 23
0.0
 14
0.5
 24
0.5
 15
0.5
 25
0.5
 16
0.0
 26
0.0
 36
1.0
 17
490.28125
 27
-297.64013671875
 37
0.0
 40
595.2802734375
 41
1.647228278433708
 42
50.0
 43
0.0
 44
0.0
 50
0.0
 51
0.0
 71
     0
 72
   100
 73
     1
 74
     3
 75
     0
 76
     0
 77
     0
 78
     0
281
     0
 65
     1
110
0.0
120
0.0
130
0.0
111
1.0
121
0.0
131
0.0
112
0.0
122
1.0
132
0.0
 79
     0
146
0.0
  0
ENDTAB
  0
TABLE
  2
LTYPE
  5
5
330
0
100
AcDbSymbolTable
 70
     1
  0
LTYPE
  5
14
330
5
100
AcDbSymbolTableRecord
100
AcDbLinetypeTableRecord
  2
ByBlock
 70
     0
  3

 72
    65
 73
     0
 40
0.0
  0
LTYPE
  5
15
330
5
100
AcDbSymbolTableRecord
100
AcDbLinetypeTableRecord
  2
ByLayer
 70
     0
  3

 72
    65
 73
     0
 40
0.0
  0
LTYPE
  5
16
330
5
100
AcDbSymbolTableRecord
100
AcDbLinetypeTableRecord
  2
Continuous
 70
     0
  3
Solid line
 72
    65
 73
     0
 40
0.0
  0
ENDTAB
  0
TABLE
  2
LAYER
  5
2
330
0
100
AcDbSymbolTable
 70
     2
  0
LAYER
  5
10
330
2
100
AcDbSymbolTableRecord
100
AcDbLayerTableRecord
  2
0
 70
     0
 62
     7
  6
Continuous
370
    -3
390
F
  0
LAYER
  5
3B
330
2
100
AcDbSymbolTableRecord
100
AcDbLayerTableRecord
  2
Layer 1
 70
     0
 62
     7
  6
Continuous
370
    -3
390
F
  0
ENDTAB
  0
TABLE
  2
STYLE
  5
3
330
0
100
AcDbSymbolTable
 70
     1
  0
STYLE
  5
11
330
3
100
AcDbSymbolTableRecord
100
AcDbTextStyleTableRecord
  2
Standard
 70
     0
 40
0.0
 41
1.0
 50
0.0
 71
     0
 42
0.2
  3
txt
  4

  0
ENDTAB
  0
TABLE
  2
VIEW
  5
6
330
0
100
AcDbSymbolTable
 70
     0
  0
ENDTAB
  0
TABLE
  2
UCS
  5
7
330
0
100
AcDbSymbolTable
 70
     0
  0
ENDTAB
  0
TABLE
  2
APPID
  5
9
330
0
100
AcDbSymbolTable
 70
     1
  0
APPID
  5
12
330
9
100
AcDbSymbolTableRecord
100
AcDbRegAppTableRecord
  2
ACAD
 70
     0
  0
ENDTAB
  0
TABLE
  2
DIMSTYLE
  5
A
330
0
100
AcDbSymbolTable
 70
     1
100
AcDbDimStyleTable
  0
DIMSTYLE
105
27
330
A
100
AcDbSymbolTableRecord
100
AcDbDimStyleTableRecord
  2
Standard
 70
     0
340
11
  0
ENDTAB
  0
TABLE
  2
BLOCK_RECORD
  5
1
330
0
100
AcDbSymbolTable
 70
     1
  0
BLOCK_RECORD
  5
1F
330
1
100
AcDbSymbolTableRecord
100
AcDbBlockTableRecord
  2
*Model_Space
340
22
  0
BLOCK_RECORD
  5
1B
330
1
100
AcDbSymbolTableRecord
100
AcDbBlockTableRecord
  2
*Paper_Space
340
1E
  0
BLOCK_RECORD
  5
23
330
1
100
AcDbSymbolTableRecord
100
AcDbBlockTableRecord
  2
*Paper_Space0
340
26
  0
ENDTAB
  0
ENDSEC
  0
SECTION
  2
BLOCKS
  0
BLOCK
  5
20
330
1F
100
AcDbEntity
  8
0
100
AcDbBlockBegin
  2
*Model_Space
 70
     0
 71
     0
 10
0.0
 20
0.0
 30
0.0
  3
*Model_Space
  1

  0
ENDBLK
  5
21
330
1F
100
AcDbEntity
  8
0
100
AcDbBlockEnd
  0
BLOCK
  5
1C
330
1B
100
AcDbEntity
 67
     1
  8
0
100
AcDbBlockBegin
  2
*Paper_Space
 70
     0
 71
     0
 10
0.0
 20
0.0
 30
0.0
  3
*Paper_Space
  1

  0
ENDBLK
  5
1D
330
1B
100
AcDbEntity
 67
     1
  8
0
100
AcDbBlockEnd
  0
BLOCK
  5
24
330
23
100
AcDbEntity
  8
0
100
AcDbBlockBegin
  2
*Paper_Space0
 70
     0
 71
     0
 10
0.0
 20
0.0
 30
0.0
  3
*Paper_Space0
  1

  0
ENDBLK
  5
25
330
23
100
AcDbEntity
  8
0
100
AcDbBlockEnd
  0
ENDSEC
  0
SECTION
  2
ENTITIES
  0
POLYLINE
  5
3C
330
1F
100
AcDbEntity
  8
Layer 1
 62
   167
420
  2837403
370
    35
100
AcDb2dPolyline
 66
     1
 10
0.0
 20
0.0
 30
0.0
  0
VERTEX
  5
3D
330
3C
100
AcDbEntity
  8
Layer 1
 62
   167
420
  2837403
370
    35
100
AcDbVertex
100
AcDb2dVertex
 10
339.732421875
 20
-539.236328125
 30
0.0
  0
VERTEX
  5
3E
330
3C
100
AcDbEntity
  8
Layer 1
 62
   167
420
  2837403
370
    35
100
AcDbVertex
100
AcDb2dVertex
 10
339.732421875
 20
-510.82421875
 30
0.0
  0
VERTEX
  5
3F
330
3C
100
AcDbEntity
  8
Layer 1
 62
   167
420
  2837403
370
    35
100
AcDbVertex
100
AcDb2dVertex
 10
334.4912109375
 20
-510.82421875
 30
0.0
  0
VERTEX
  5
40
330
3C
100
AcDbEntity
  8
Layer 1
 62
   167
420
  2837403
370
    35
100
AcDbVertex
100
AcDb2dVertex
 10
334.4912109375
 20
-514.5078125
 30
0.0
  0
VERTEX
  5
41
330
3C
100
AcDbEntity
  8
Layer 1
 62
   167
420
  2837403
370
    35
100
AcDbVertex
100
AcDb2dVertex
 10
328.2548828125
 20
-514.5078125
 30
0.0
  0
VERTEX
  5
42
330
3C
100
AcDbEntity
  8
Layer 1
 62
   167
420
  2837403
370
    35
100
AcDbVertex
100
AcDb2dVertex
 10
328.2548828125
 20
-510.82421875
 30
0.0
  0
VERTEX
  5
43
330
3C
100
AcDbEntity
  8
Layer 1
 62
   167
420
  2837403
370
    35
100
AcDbVertex
100
AcDb2dVertex
 10
319.7509765625
 20
-510.82421875
 30
0.0
  0
VERTEX
  5
44
330
3C
100
AcDbEntity
  8
Layer 1
 62
   167
420
  2837403
370
    35
100
AcDbVertex
100
AcDb2dVertex
 10
319.7509765625
 20
-502.3203125
 30
0.0
  0
VERTEX
  5
45
330
3C
100
AcDbEntity
  8
Layer 1
 62
   167
420
  2837403
370
    35
100
AcDbVertex
100
AcDb2dVertex
 10
328.2548828125
 20
-502.3203125
 30
0.0
  0
VERTEX
  5
46
330
3C
100
AcDbEntity
  8
Layer 1
 62
   167
420
  2837403
370
    35
100
AcDbVertex
100
AcDb2dVertex
 10
328.2548828125
 20
-498.634765625
 30
0.0
  0
VERTEX
  5
47
330
3C
100
AcDbEntity
  8
Layer 1
 62
   167
420
  2837403
370
    35
100
AcDbVertex
100
AcDb2dVertex
 10
334.4912109375
 20
-498.634765625
 30
0.0
  0
VERTEX
  5
48
330
3C
100
AcDbEntity
  8
Layer 1
 62
   167
420
  2837403
370
    35
100
AcDbVertex
100
AcDb2dVertex
 10
334.4912109375
 20
-502.3203125
 30
0.0
  0
VERTEX
  5
49
330
3C
100
AcDbEntity
  8
Layer 1
 62
   167
420
  2837403
370
    35
100
AcDbVertex
100
AcDb2dVertex
 10
339.732421875
 20
-502.3203125
 30
0.0
  0
VERTEX
  5
4A
330
3C
100
AcDbEntity
  8
Layer 1
 62
   167
420
  2837403
370
    35
100
AcDbVertex
100
AcDb2dVertex
 10
339.732421875
 20
-326.63671875
 30
0.0
  0
VERTEX
  5
4B
330
3C
100
AcDbEntity
  8
Layer 1
 62
   167
420
  2837403
370
    35
100
AcDbVertex
100
AcDb2dVertex
 10
348.236328125
 20
-326.63671875
 30
0.0
  0
VERTEX
  5
4C
330
3C
100
AcDbEntity
  8
Layer 1
 62
   167
420
  2837403
370
    35
100
AcDbVertex
100
AcDb2dVertex
 10
348.236328125
 20
-269.94482421875
 30
0.0
  0
VERTEX
  5
4D
330
3C
100
AcDbEntity
  8
Layer 1
 62
   167
420
  2837403
370
    35
100
AcDbVertex
100
AcDb2dVertex
 10
339.732421875
 20
-269.94482421875
 30
0.0
  0
VERTEX
  5
4E
330
3C
100
AcDbEntity
  8
Layer 1
 62
   167
420
  2837403
370
    35
100
AcDbVertex
100
AcDb2dVertex
 10
339.7548828125
 20
-94.1513671875
 30
0.0
  0
VERTEX
  5
4F
330
3C
100
AcDbEntity
  8
Layer 1
 62
   167
420
  2837403
370
    35
100
AcDbVertex
100
AcDb2dVertex
 10
334.0849609375
 20
-94.1513671875
 30
0.0
  0
VERTEX
  5
50
330
3C
100
AcDbEntity
  8
Layer 1
 62
   167
420
  2837403
370
    35
100
AcDbVertex
100
AcDb2dVertex
 10
334.0849609375
 20
-97.83642578125
 30
0.0
  0
VERTEX
  5
51
330
3C
100
AcDbEntity
  8
Layer 1
 62
   167
420
  2837403
370
    35
100
AcDbVertex
100
AcDb2dVertex
 10
327.8486328125
 20
-97.83642578125
 30
0.0
  0
VERTEX
  5
52
330
3C
100
AcDbEntity
  8
Layer 1
 62
   167
420
  2837403
370
    35
100
AcDbVertex
100
AcDb2dVertex
 10
327.8486328125
 20
-94.1513671875
 30
0.0
  0
VERTEX
  5
53
330
3C
100
AcDbEntity
  8
Layer 1
 62
   167
420
  2837403
370
    35
100
AcDbVertex
100
AcDb2dVertex
 10
319.3447265625
 20
-94.1513671875
 30
0.0
  0
VERTEX
  5
54
330
3C
100
AcDbEntity
  8
Layer 1
 62
   167
420
  2837403
370
    35
100
AcDbVertex
100
AcDb2dVertex
 10
319.3447265625
 20
-85.6474609375
 30
0.0
  0
VERTEX
  5
55
330
3C
100
AcDbEntity
  8
Layer 1
 62
   167
420
  2837403
370
    35
100
AcDbVertex
100
AcDb2dVertex
 10
327.8486328125
 20
-85.6474609375
 30
0.0
  0
VERTEX
  5
56
330
3C
100
AcDbEntity
  8
Layer 1
 62
   167
420
  2837403
370
    35
100
AcDbVertex
100
AcDb2dVertex
 10
327.8486328125
 20
-81.96240234375
 30
0.0
  0
VERTEX
  5
57
330
3C
100
AcDbEntity
  8
Layer 1
 62
   167
420
  2837403
370
    35
100
AcDbVertex
100
AcDb2dVertex
 10
334.0849609375
 20
-81.96240234375
 30
0.0
  0
VERTEX
  5
58
330
3C
100
AcDbEntity
  8
Layer 1
 62
   167
420
  2837403
370
    35
100
AcDbVertex
100
AcDb2dVertex
 10
334.0849609375
 20
-85.6474609375
 30
0.0
  0
VERTEX
  5
59
330
3C
100
AcDbEntity
  8
Layer 1
 62
   167
420
  2837403
370
    35
100
AcDbVertex
100
AcDb2dVertex
 10
339.732421875
 20
-85.69287109375
 30
0.0
  0
VERTEX
  5
5A
330
3C
100
AcDbEntity
  8
Layer 1
 62
   167
420
  2837403
370
    35
100
AcDbVertex
100
AcDb2dVertex
 10
339.732421875
 20
-57.3466796875
 30
0.0
  0
VERTEX
  5
5B
330
3C
100
AcDbEntity
  8
Layer 1
 62
   167
420
  2837403
370
    35
100
AcDbVertex
100
AcDb2dVertex
 10
198.0
 20
-57.3466796875
 30
0.0
  0
VERTEX
  5
5C
330
3C
100
AcDbEntity
  8
Layer 1
 62
   167
420
  2837403
370
    35
100
AcDbVertex
100
AcDb2dVertex
 10
198.0
 20
-85.69287109375
 30
0.0
  0
VERTEX
  5
5D
330
3C
100
AcDbEntity
  8
Layer 1
 62
   167
420
  2837403
370
    35
100
AcDbVertex
100
AcDb2dVertex
 10
203.6689453125
 20
-85.720703125
 30
0.0
  0
VERTEX
  5
5E
330
3C
100
AcDbEntity
  8
Layer 1
 62
   167
420
  2837403
370
    35
100
AcDbVertex
100
AcDb2dVertex
 10
203.6689453125
 20
-82.03564453125
 30
0.0
  0
VERTEX
  5
5F
330
3C
100
AcDbEntity
  8
Layer 1
 62
   167
420
  2837403
370
    35
100
AcDbVertex
100
AcDb2dVertex
 10
209.9052734375
 20
-82.03564453125
 30
0.0
  0
VERTEX
  5
60
330
3C
100
AcDbEntity
  8
Layer 1
 62
   167
420
  2837403
370
    35
100
AcDbVertex
100
AcDb2dVertex
 10
209.9052734375
 20
-85.720703125
 30
0.0
  0
VERTEX
  5
61
330
3C
100
AcDbEntity
  8
Layer 1
 62
   167
420
  2837403
370
    35
100
AcDbVertex
100
AcDb2dVertex
 10
218.4091796875
 20
-85.720703125
 30
0.0
  0
VERTEX
  5
62
330
3C
100
AcDbEntity
  8
Layer 1
 62
   167
420
  2837403
370
    35
100
AcDbVertex
100
AcDb2dVertex
 10
218.4091796875
 20
-94.224609375
 30
0.0
  0
VERTEX
  5
63
330
3C
100
AcDbEntity
  8
Layer 1
 62
   167
420
  2837403
370
    35
100
AcDbVertex
100
AcDb2dVertex
 10
209.9052734375
 20
-94.224609375
 30
0.0
  0
VERTEX
  5
64
330
3C
100
AcDbEntity
  8
Layer 1
 62
   167
420
  2837403
370
    35
100
AcDbVertex
100
AcDb2dVertex
 10
209.9052734375
 20
-97.90966796875
 30
0.0
  0
VERTEX
  5
65
330
3C
100
AcDbEntity
  8
Layer 1
 62
   167
420
  2837403
370
    35
100
AcDbVertex
100
AcDb2dVertex
 10
203.6689453125
 20
-97.90966796875
 30
0.0
  0
VERTEX
  5
66
330
3C
100
AcDbEntity
  8
Layer 1
 62
   167
420
  2837403
370
    35
100
AcDbVertex
100
AcDb2dVertex
 10
203.6689453125
 20
-94.224609375
 30
0.0
  0
VERTEX
  5
67
330
3C
100
AcDbEntity
  8
Layer 1
 62
   167
420
  2837403
370
    35
100
AcDbVertex
100
AcDb2dVertex
 10
198.0
 20
-94.224609375
 30
0.0
  0
VERTEX
  5
68
330
3C
100
AcDbEntity
  8
Layer 1
 62
   167
420
  2837403
370
    35
100
AcDbVertex
100
AcDb2dVertex
 10
198.0
 20
-269.94482421875
 30
0.0
  0
VERTEX
  5
69
330
3C
100
AcDbEntity
  8
Layer 1
 62
   167
420
  2837403
370
    35
100
AcDbVertex
100
AcDb2dVertex
 10
189.49609375
 20
-269.94482421875
 30
0.0
  0
VERTEX
  5
6A
330
3C
100
AcDbEntity
  8
Layer 1
 62
   167
420
  2837403
370
    35
100
AcDbVertex
100
AcDb2dVertex
 10
189.49609375
 20
-326.63671875
 30
0.0
  0
VERTEX
  5
6B
330
3C
100
AcDbEntity
  8
Layer 1
 62
   167
420
  2837403
370
    35
100
AcDbVertex
100
AcDb2dVertex
 10
198.0
 20
-326.63671875
 30
0.0
  0
VERTEX
  5
6C
330
3C
100
AcDbEntity
  8
Layer 1
 62
   167
420
  2837403
370
    35
100
AcDbVertex
100
AcDb2dVertex
 10
198.0
 20
-502.384765625
 30
0.0
  0
VERTEX
  5
6D
330
3C
100
AcDbEntity
  8
Layer 1
 62
   167
420
  2837403
370
    35
100
AcDbVertex
100
AcDb2dVertex
 10
203.6689453125
 20
-502.384765625
 30
0.0
  0
VERTEX
  5
6E
330
3C
100
AcDbEntity
  8
Layer 1
 62
   167
420
  2837403
370
    35
100
AcDbVertex
100
AcDb2dVertex
 10
203.6689453125
 20
-498.701171875
 30
0.0
  0
VERTEX
  5
6F
330
3C
100
AcDbEntity
  8
Layer 1
 62
   167
420
  2837403
370
    35
100
AcDbVertex
100
AcDb2dVertex
 10
209.9052734375
 20
-498.701171875
 30
0.0
  0
VERTEX
  5
70
330
3C
100
AcDbEntity
  8
Layer 1
 62
   167
420
  2837403
370
    35
100
AcDbVertex
100
AcDb2dVertex
 10
209.9052734375
 20
-502.384765625
 30
0.0
  0
VERTEX
  5
71
330
3C
100
AcDbEntity
  8
Layer 1
 62
   167
420
  2837403
370
    35
100
AcDbVertex
100
AcDb2dVertex
 10
218.4091796875
 20
-502.384765625
 30
0.0
  0
VERTEX
  5
72
330
3C
100
AcDbEntity
  8
Layer 1
 62
   167
420
  2837403
370
    35
100
AcDbVertex
100
AcDb2dVertex
 10
218.4091796875
 20
-510.888671875
 30
0.0
  0
VERTEX
  5
73
330
3C
100
AcDbEntity
  8
Layer 1
 62
   167
420
  2837403
370
    35
100
AcDbVertex
100
AcDb2dVertex
 10
209.9052734375
 20
-510.888671875
 30
0.0
  0
VERTEX
  5
74
330
3C
100
AcDbEntity
  8
Layer 1
 62
   167
420
  2837403
370
    35
100
AcDbVertex
100
AcDb2dVertex
 10
209.9052734375
 20
-514.57421875
 30
0.0
  0
VERTEX
  5
75
330
3C
100
AcDbEntity
  8
Layer 1
 62
   167
420
  2837403
370
    35
100
AcDbVertex
100
AcDb2dVertex
 10
203.6689453125
 20
-514.57421875
 30
0.0
  0
VERTEX
  5
76
330
3C
100
AcDbEntity
  8
Layer 1
 62
   167
420
  2837403
370
    35
100
AcDbVertex
100
AcDb2dVertex
 10
203.6689453125
 20
-510.888671875
 30
0.0
  0
VERTEX
  5
77
330
3C
100
AcDbEntity
  8
Layer 1
 62
   167
420
  2837403
370
    35
100
AcDbVertex
100
AcDb2dVertex
 10
198.0
 20
-510.888671875
 30
0.0
  0
VERTEX
  5
78
330
3C
100
AcDbEntity
  8
Layer 1
 62
   167
420
  2837403
370
    35
100
AcDbVertex
100
AcDb2dVertex
 10
198.0
 20
-539.236328125
 30
0.0
  0
VERTEX
  5
79
330
3C
100
AcDbEntity
  8
Layer 1
 62
   167
420
  2837403
370
    35
100
AcDbVertex
100
AcDb2dVertex
 10
339.732421875
 20
-539.236328125
 30
0.0
  0
SEQEND
  5
7A
330
3C
100
AcDbEntity
  8
Layer 1
370
    35
  0
POLYLINE
  5
7B
330
1F
100
AcDbEntity
  8
Layer 1
 62
   167
420
  2837403
370
    35
100
AcDb2dPolyline
 66
     1
 10
0.0
 20
0.0
 30
0.0
  0
VERTEX
  5
7C
330
7B
100
AcDbEntity
  8
Layer 1
 62
   167
420
  2837403
370
    35
100
AcDbVertex
100
AcDb2dVertex
 10
279.87109375
 20
-194.79541015625
 30
0.0
  0
VERTEX
  5
7D
330
7B
100
AcDbEntity
  8
Layer 1
 62
   167
420
  2837403
370
    35
100
AcDbVertex
100
AcDb2dVertex
 10
268.8662109375
 20
-196.244140625
 30
0.0
  0
VERTEX
  5
7E
330
7B
100
AcDbEntity
  8
Layer 1
 62
   167
420
  2837403
370
    35
100
AcDbVertex
100
AcDb2dVertex
 10
257.861328125
 20
-194.79541015625
 30
0.0
  0
VERTEX
  5
7F
330
7B
100
AcDbEntity
  8
Layer 1
 62
   167
420
  2837403
370
    35
100
AcDbVertex
100
AcDb2dVertex
 10
247.6064453125
 20
-190.54736328125
 30
0.0
  0
VERTEX
  5
80
330
7B
100
AcDbEntity
  8
Layer 1
 62
   167
420
  2837403
370
    35
100
AcDbVertex
100
AcDb2dVertex
 10
238.7998046875
 20
-183.79052734375
 30
0.0
  0
VERTEX
  5
81
330
7B
100
AcDbEntity
  8
Layer 1
 62
   167
420
  2837403
370
    35
100
AcDbVertex
100
AcDb2dVertex
 10
232.04296875
 20
-174.984375
 30
0.0
  0
VERTEX
  5
82
330
7B
100
AcDbEntity
  8
Layer 1
 62
   167
420
  2837403
370
    35
100
AcDbVertex
100
AcDb2dVertex
 10
227.794921875
 20
-164.7294921875
 30
0.0
  0
VERTEX
  5
83
330
7B
100
AcDbEntity
  8
Layer 1
 62
   167
420
  2837403
370
    35
100
AcDbVertex
100
AcDb2dVertex
 10
226.3466796875
 20
-153.724609375
 30
0.0
  0
VERTEX
  5
84
330
7B
100
AcDbEntity
  8
Layer 1
 62
   167
420
  2837403
370
    35
100
AcDbVertex
100
AcDb2dVertex
 10
227.794921875
 20
-142.7197265625
 30
0.0
  0
VERTEX
  5
85
330
7B
100
AcDbEntity
  8
Layer 1
 62
   167
420
  2837403
370
    35
100
AcDbVertex
100
AcDb2dVertex
 10
232.04296875
 20
-132.46435546875
 30
0.0
  0
VERTEX
  5
86
330
7B
100
AcDbEntity
  8
Layer 1
 62
   167
420
  2837403
370
    35
100
AcDbVertex
100
AcDb2dVertex
 10
238.7998046875
 20
-123.658203125
 30
0.0
  0
VERTEX
  5
87
330
7B
100
AcDbEntity
  8
Layer 1
 62
   167
420
  2837403
370
    35
100
AcDbVertex
100
AcDb2dVertex
 10
247.6064453125
 20
-116.9013671875
 30
0.0
  0
VERTEX
  5
88
330
7B
100
AcDbEntity
  8
Layer 1
 62
   167
420
  2837403
370
    35
100
AcDbVertex
100
AcDb2dVertex
 10
257.861328125
 20
-112.6533203125
 30
0.0
  0
VERTEX
  5
89
330
7B
100
AcDbEntity
  8
Layer 1
 62
   167
420
  2837403
370
    35
100
AcDbVertex
100
AcDb2dVertex
 10
268.8662109375
 20
-111.20458984375
 30
0.0
  0
VERTEX
  5
8A
330
7B
100
AcDbEntity
  8
Layer 1
 62
   167
420
  2837403
370
    35
100
AcDbVertex
100
AcDb2dVertex
 10
279.87109375
 20
-112.6533203125
 30
0.0
  0
VERTEX
  5
8B
330
7B
100
AcDbEntity
  8
Layer 1
 62
   167
420
  2837403
370
    35
100
AcDbVertex
100
AcDb2dVertex
 10
290.1259765625
 20
-116.9013671875
 30
0.0
  0
VERTEX
  5
8C
330
7B
100
AcDbEntity
  8
Layer 1
 62
   167
420
  2837403
370
    35
100
AcDbVertex
100
AcDb2dVertex
 10
298.9326171875
 20
-123.658203125
 30
0.0
  0
VERTEX
  5
8D
330
7B
100
AcDbEntity
  8
Layer 1
 62
   167
420
  2837403
370
    35
100
AcDbVertex
100
AcDb2dVertex
 10
305.689453125
 20
-132.46435546875
 30
0.0
  0
VERTEX
  5
8E
330
7B
100
AcDbEntity
  8
Layer 1
 62
   167
420
  2837403
370
    35
100
AcDbVertex
100
AcDb2dVertex
 10
309.9375
 20
-142.7197265625
 30
0.0
  0
VERTEX
  5
8F
330
7B
100
AcDbEntity
  8
Layer 1
 62
   167
420
  2837403
370
    35
100
AcDbVertex
100
AcDb2dVertex
 10
311.3857421875
 20
-153.724609375
 30
0.0
  0
VERTEX
  5
90
330
7B
100
AcDbEntity
  8
Layer 1
 62
   167
420
  2837403
370
    35
100
AcDbVertex
100
AcDb2dVertex
 10
309.9375
 20
-164.7294921875
 30
0.0
  0
VERTEX
  5
91
330
7B
100
AcDbEntity
  8
Layer 1
 62
   167
420
  2837403
370
    35
100
AcDbVertex
100
AcDb2dVertex
 10
305.689453125
 20
-174.984375
 30
0.0
  0
VERTEX
  5
92
330
7B
100
AcDbEntity
  8
Layer 1
 62
   167
420
  2837403
370
    35
100
AcDbVertex
100
AcDb2dVertex
 10
298.9326171875
 20
-183.79052734375
 30
0.0
  0
VERTEX
  5
93
330
7B
100
AcDbEntity
  8
Layer 1
 62
   167
420
  2837403
370
    35
100
AcDbVertex
100
AcDb2dVertex
 10
290.1259765625
 20
-190.54736328125
 30
0.0
  0
VERTEX
  5
94
330
7B
100
AcDbEntity
  8
Layer 1
 62
   167
420
  2837403
370
    35
100
AcDbVertex
100
AcDb2dVertex
 10
279.87109375
 20
-194.79541015625
 30
0.0
  0
SEQEND
  5
95
330
7B
100
AcDbEntity
  8
Layer 1
370
    35
  0
POLYLINE
  5
96
330
1F
100
AcDbEntity
  8
Layer 1
 62
   167
420
  2837403
370
    35
100
AcDb2dPolyline
 66
     1
 10
0.0
 20
0.0
 30
0.0
  0
VERTEX
  5
97
330
96
100
AcDbEntity
  8
Layer 1
 62
   167
420
  2837403
370
    35
100
AcDbVertex
100
AcDb2dVertex
 10
279.87109375
 20
-291.17333984375
 30
0.0
  0
VERTEX
  5
98
330
96
100
AcDbEntity
  8
Layer 1
 62
   167
420
  2837403
370
    35
100
AcDbVertex
100
AcDb2dVertex
 10
268.8662109375
 20
-292.6220703125
 30
0.0
  0
VERTEX
  5
99
330
96
100
AcDbEntity
  8
Layer 1
 62
   167
420
  2837403
370
    35
100
AcDbVertex
100
AcDb2dVertex
 10
257.861328125
 20
-291.17333984375
 30
0.0
  0
VERTEX
  5
9A
330
96
100
AcDbEntity
  8
Layer 1
 62
   167
420
  2837403
370
    35
100
AcDbVertex
100
AcDb2dVertex
 10
247.6064453125
 20
-286.92529296875
 30
0.0
  0
VERTEX
  5
9B
330
96
100
AcDbEntity
  8
Layer 1
 62
   167
420
  2837403
370
    35
100
AcDbVertex
100
AcDb2dVertex
 10
238.7998046875
 20
-280.16845703125
 30
0.0
  0
VERTEX
  5
9C
330
96
100
AcDbEntity
  8
Layer 1
 62
   167
420
  2837403
370
    35
100
AcDbVertex
100
AcDb2dVertex
 10
232.04296875
 20
-271.3623046875
 30
0.0
  0
VERTEX
  5
9D
330
96
100
AcDbEntity
  8
Layer 1
 62
   167
420
  2837403
370
    35
100
AcDbVertex
100
AcDb2dVertex
 10
227.794921875
 20
-261.107421875
 30
0.0
  0
VERTEX
  5
9E
330
96
100
AcDbEntity
  8
Layer 1
 62
   167
420
  2837403
370
    35
100
AcDbVertex
100
AcDb2dVertex
 10
226.3466796875
 20
-250.1025390625
 30
0.0
  0
VERTEX
  5
9F
330
96
100
AcDbEntity
  8
Layer 1
 62
   167
420
  2837403
370
    35
100
AcDbVertex
100
AcDb2dVertex
 10
227.794921875
 20
-239.09765625
 30
0.0
  0
VERTEX
  5
A0
330
96
100
AcDbEntity
  8
Layer 1
 62
   167
420
  2837403
370
    35
100
AcDbVertex
100
AcDb2dVertex
 10
232.04296875
 20
-228.8427734375
 30
0.0
  0
VERTEX
  5
A1
330
96
100
AcDbEntity
  8
Layer 1
 62
   167
420
  2837403
370
    35
100
AcDbVertex
100
AcDb2dVertex
 10
238.7998046875
 20
-220.03662109375
 30
0.0
  0
VERTEX
  5
A2
330
96
100
AcDbEntity
  8
Layer 1
 62
   167
420
  2837403
370
    35
100
AcDbVertex
100
AcDb2dVertex
 10
247.6064453125
 20
-213.279296875
 30
0.0
  0
VERTEX
  5
A3
330
96
100
AcDbEntity
  8
Layer 1
 62
   167
420
  2837403
370
    35
100
AcDbVertex
100
AcDb2dVertex
 10
257.861328125
 20
-209.03173828125
 30
0.0
  0
VERTEX
  5
A4
330
96
100
AcDbEntity
  8
Layer 1
 62
   167
420
  2837403
370
    35
100
AcDbVertex
100
AcDb2dVertex
 10
268.8662109375
 20
-207.58251953125
 30
0.0
  0
VERTEX
  5
A5
330
96
100
AcDbEntity
  8
Layer 1
 62
   167
420
  2837403
370
    35
100
AcDbVertex
100
AcDb2dVertex
 10
279.87109375
 20
-209.03173828125
 30
0.0
  0
VERTEX
  5
A6
330
96
100
AcDbEntity
  8
Layer 1
 62
   167
420
  2837403
370
    35
100
AcDbVertex
100
AcDb2dVertex
 10
290.1259765625
 20
-213.279296875
 30
0.0
  0
VERTEX
  5
A7
330
96
100
AcDbEntity
  8
Layer 1
 62
   167
420
  2837403
370
    35
100
AcDbVertex
100
AcDb2dVertex
 10
298.9326171875
 20
-220.03662109375
 30
0.0
  0
VERTEX
  5
A8
330
96
100
AcDbEntity
  8
Layer 1
 62
   167
420
  2837403
370
    35
100
AcDbVertex
100
AcDb2dVertex
 10
305.689453125
 20
-228.8427734375
 30
0.0
  0
VERTEX
  5
A9
330
96
100
AcDbEntity
  8
Layer 1
 62
   167
420
  2837403
370
    35
100
AcDbVertex
100
AcDb2dVertex
 10
309.9375
 20
-239.09765625
 30
0.0
  0
VERTEX
  5
AA
330
96
100
AcDbEntity
  8
Layer 1
 62
   167
420
  2837403
370
    35
100
AcDbVertex
100
AcDb2dVertex
 10
311.3857421875
 20
-250.1025390625
 30
0.0
  0
VERTEX
  5
AB
330
96
100
AcDbEntity
  8
Layer 1
 62
   167
420
  2837403
370
    35
100
AcDbVertex
100
AcDb2dVertex
 10
309.9375
 20
-261.107421875
 30
0.0
  0
VERTEX
  5
AC
330
96
100
AcDbEntity
  8
Layer 1
 62
   167
420
  2837403
370
    35
100
AcDbVertex
100
AcDb2dVertex
 10
305.689453125
 20
-271.3623046875
 30
0.0
  0
VERTEX
  5
AD
330
96
100
AcDbEntity
  8
Layer 1
 62
   167
420
  2837403
370
    35
100
AcDbVertex
100
AcDb2dVertex
 10
298.9326171875
 20
-280.16845703125
 30
0.0
  0
VERTEX
  5
AE
330
96
100
AcDbEntity
  8
Layer 1
 62
   167
420
  2837403
370
    35
100
AcDbVertex
100
AcDb2dVertex
 10
290.1259765625
 20
-286.92529296875
 30
0.0
  0
VERTEX
  5
AF
330
96
100
AcDbEntity
  8
Layer 1
 62
   167
420
  2837403
370
    35
100
AcDbVertex
100
AcDb2dVertex
 10
279.87109375
 20
-291.17333984375
 30
0.0
  0
SEQEND
  5
B0
330
96
100
AcDbEntity
  8
Layer 1
370
    35
  0
POLYLINE
  5
B1
330
1F
100
AcDbEntity
  8
Layer 1
 62
   167
420
  2837403
370
    35
100
AcDb2dPolyline
 66
     1
 10
0.0
 20
0.0
 30
0.0
  0
VERTEX
  5
B2
330
B1
100
AcDbEntity
  8
Layer 1
 62
   167
420
  2837403
370
    35
100
AcDbVertex
100
AcDb2dVertex
 10
279.87109375
 20
-387.55078125
 30
0.0
  0
VERTEX
  5
B3
330
B1
100
AcDbEntity
  8
Layer 1
 62
   167
420
  2837403
370
    35
100
AcDbVertex
100
AcDb2dVertex
 10
268.8662109375
 20
-389.0
 30
0.0
  0
VERTEX
  5
B4
330
B1
100
AcDbEntity
  8
Layer 1
 62
   167
420
  2837403
370
    35
100
AcDbVertex
100
AcDb2dVertex
 10
257.861328125
 20
-387.55078125
 30
0.0
  0
VERTEX
  5
B5
330
B1
100
AcDbEntity
  8
Layer 1
 62
   167
420
  2837403
370
    35
100
AcDbVertex
100
AcDb2dVertex
 10
247.6064453125
 20
-383.302734375
 30
0.0
  0
VERTEX
  5
B6
330
B1
100
AcDbEntity
  8
Layer 1
 62
   167
420
  2837403
370
    35
100
AcDbVertex
100
AcDb2dVertex
 10
238.7998046875
 20
-376.544921875
 30
0.0
  0
VERTEX
  5
B7
330
B1
100
AcDbEntity
  8
Layer 1
 62
   167
420
  2837403
370
    35
100
AcDbVertex
100
AcDb2dVertex
 10
232.04296875
 20
-367.740234375
 30
0.0
  0
VERTEX
  5
B8
330
B1
100
AcDbEntity
  8
Layer 1
 62
   167
420
  2837403
370
    35
100
AcDbVertex
100
AcDb2dVertex
 10
227.794921875
 20
-357.484375
 30
0.0
  0
VERTEX
  5
B9
330
B1
100
AcDbEntity
  8
Layer 1
 62
   167
420
  2837403
370
    35
100
AcDbVertex
100
AcDb2dVertex
 10
226.3466796875
 20
-346.48046875
 30
0.0
  0
VERTEX
  5
BA
330
B1
100
AcDbEntity
  8
Layer 1
 62
   167
420
  2837403
370
    35
100
AcDbVertex
100
AcDb2dVertex
 10
227.794921875
 20
-335.474609375
 30
0.0
  0
VERTEX
  5
BB
330
B1
100
AcDbEntity
  8
Layer 1
 62
   167
420
  2837403
370
    35
100
AcDbVertex
100
AcDb2dVertex
 10
232.04296875
 20
-325.220703125
 30
0.0
  0
VERTEX
  5
BC
330
B1
100
AcDbEntity
  8
Layer 1
 62
   167
420
  2837403
370
    35
100
AcDbVertex
100
AcDb2dVertex
 10
238.7998046875
 20
-316.4140625
 30
0.0
  0
VERTEX
  5
BD
330
B1
100
AcDbEntity
  8
Layer 1
 62
   167
420
  2837403
370
    35
100
AcDbVertex
100
AcDb2dVertex
 10
247.6064453125
 20
-309.65625
 30
0.0
  0
VERTEX
  5
BE
330
B1
100
AcDbEntity
  8
Layer 1
 62
   167
420
  2837403
370
    35
100
AcDbVertex
100
AcDb2dVertex
 10
257.861328125
 20
-305.41015625
 30
0.0
  0
VERTEX
  5
BF
330
B1
100
AcDbEntity
  8
Layer 1
 62
   167
420
  2837403
370
    35
100
AcDbVertex
100
AcDb2dVertex
 10
268.8662109375
 20
-303.9609375
 30
0.0
  0
VERTEX
  5
C0
330
B1
100
AcDbEntity
  8
Layer 1
 62
   167
420
  2837403
370
    35
100
AcDbVertex
100
AcDb2dVertex
 10
279.87109375
 20
-305.41015625
 30
0.0
  0
VERTEX
  5
C1
330
B1
100
AcDbEntity
  8
Layer 1
 62
   167
420
  2837403
370
    35
100
AcDbVertex
100
AcDb2dVertex
 10
290.1259765625
 20
-309.65625
 30
0.0
  0
VERTEX
  5
C2
330
B1
100
AcDbEntity
  8
Layer 1
 62
   167
420
  2837403
370
    35
100
AcDbVertex
100
AcDb2dVertex
 10
298.9326171875
 20
-316.4140625
 30
0.0
  0
VERTEX
  5
C3
330
B1
100
AcDbEntity
  8
Layer 1
 62
   167
420
  2837403
370
    35
100
AcDbVertex
100
AcDb2dVertex
 10
305.689453125
 20
-325.220703125
 30
0.0
  0
VERTEX
  5
C4
330
B1
100
AcDbEntity
  8
Layer 1
 62
   167
420
  2837403
370
    35
100
AcDbVertex
100
AcDb2dVertex
 10
309.9375
 20
-335.474609375
 30
0.0
  0
VERTEX
  5
C5
330
B1
100
AcDbEntity
  8
Layer 1
 62
   167
420
  2837403
370
    35
100
AcDbVertex
100
AcDb2dVertex
 10
311.3857421875
 20
-346.48046875
 30
0.0
  0
VERTEX
  5
C6
330
B1
100
AcDbEntity
  8
Layer 1
 62
   167
420
  2837403
370
    35
100
AcDbVertex
100
AcDb2dVertex
 10
309.9375
 20
-357.484375
 30
0.0
  0
VERTEX
  5
C7
330
B1
100
AcDbEntity
  8
Layer 1
 62
   167
420
  2837403
370
    35
100
AcDbVertex
100
AcDb2dVertex
 10
305.689453125
 20
-367.740234375
 30
0.0
  0
VERTEX
  5
C8
330
B1
100
AcDbEntity
  8
Layer 1
 62
   167
420
  2837403
370
    35
100
AcDbVertex
100
AcDb2dVertex
 10
298.9326171875
 20
-376.544921875
 30
0.0
  0
VERTEX
  5
C9
330
B1
100
AcDbEntity
  8
Layer 1
 62
   167
420
  2837403
370
    35
100
AcDbVertex
100
AcDb2dVertex
 10
290.1259765625
 20
-383.302734375
 30
0.0
  0
VERTEX
  5
CA
330
B1
100
AcDbEntity
  8
Layer 1
 62
   167
420
  2837403
370
    35
100
AcDbVertex
100
AcDb2dVertex
 10
279.87109375
 20
-387.55078125
 30
0.0
  0
SEQEND
  5
CB
330
B1
100
AcDbEntity
  8
Layer 1
370
    35
  0
POLYLINE
  5
CC
330
1F
100
AcDbEntity
  8
Layer 1
 62
   167
420
  2837403
370
    35
100
AcDb2dPolyline
 66
     1
 10
0.0
 20
0.0
 30
0.0
  0
VERTEX
  5
CD
330
CC
100
AcDbEntity
  8
Layer 1
 62
   167
420
  2837403
370
    35
100
AcDbVertex
100
AcDb2dVertex
 10
279.87109375
 20
-483.927734375
 30
0.0
  0
VERTEX
  5
CE
330
CC
100
AcDbEntity
  8
Layer 1
 62
   167
420
  2837403
370
    35
100
AcDbVertex
100
AcDb2dVertex
 10
268.8662109375
 20
-485.376953125
 30
0.0
  0
VERTEX
  5
CF
330
CC
100
AcDbEntity
  8
Layer 1
 62
   167
420
  2837403
370
    35
100
AcDbVertex
100
AcDb2dVertex
 10
257.861328125
 20
-483.927734375
 30
0.0
  0
VERTEX
  5
D0
330
CC
100
AcDbEntity
  8
Layer 1
 62
   167
420
  2837403
370
    35
100
AcDbVertex
100
AcDb2dVertex
 10
247.6064453125
 20
-479.681640625
 30
0.0
  0
VERTEX
  5
D1
330
CC
100
AcDbEntity
  8
Layer 1
 62
   167
420
  2837403
370
    35
100
AcDbVertex
100
AcDb2dVertex
 10
238.7998046875
 20
-472.923828125
 30
0.0
  0
VERTEX
  5
D2
330
CC
100
AcDbEntity
  8
Layer 1
 62
   167
420
  2837403
370
    35
100
AcDbVertex
100
AcDb2dVertex
 10
232.04296875
 20
-464.1171875
 30
0.0
  0
VERTEX
  5
D3
330
CC
100
AcDbEntity
  8
Layer 1
 62
   167
420
  2837403
370
    35
100
AcDbVertex
100
AcDb2dVertex
 10
227.794921875
 20
-453.86328125
 30
0.0
  0
VERTEX
  5
D4
330
CC
100
AcDbEntity
  8
Layer 1
 62
   167
420
  2837403
370
    35
100
AcDbVertex
100
AcDb2dVertex
 10
226.3466796875
 20
-442.857421875
 30
0.0
  0
VERTEX
  5
D5
330
CC
100
AcDbEntity
  8
Layer 1
 62
   167
420
  2837403
370
    35
100
AcDbVertex
100
AcDb2dVertex
 10
227.794921875
 20
-431.853515625
 30
0.0
  0
VERTEX
  5
D6
330
CC
100
AcDbEntity
  8
Layer 1
 62
   167
420
  2837403
370
    35
100
AcDbVertex
100
AcDb2dVertex
 10
232.04296875
 20
-421.59765625
 30
0.0
  0
VERTEX
  5
D7
330
CC
100
AcDbEntity
  8
Layer 1
 62
   167
420
  2837403
370
    35
100
AcDbVertex
100
AcDb2dVertex
 10
238.7998046875
 20
-412.791015625
 30
0.0
  0
VERTEX
  5
D8
330
CC
100
AcDbEntity
  8
Layer 1
 62
   167
420
  2837403
370
    35
100
AcDbVertex
100
AcDb2dVertex
 10
247.6064453125
 20
-406.03515625
 30
0.0
  0
VERTEX
  5
D9
330
CC
100
AcDbEntity
  8
Layer 1
 62
   167
420
  2837403
370
    35
100
AcDbVertex
100
AcDb2dVertex
 10
257.861328125
 20
-401.787109375
 30
0.0
  0
VERTEX
  5
DA
330
CC
100
AcDbEntity
  8
Layer 1
 62
   167
420
  2837403
370
    35
100
AcDbVertex
100
AcDb2dVertex
 10
268.8662109375
 20
-400.337890625
 30
0.0
  0
VERTEX
  5
DB
330
CC
100
AcDbEntity
  8
Layer 1
 62
   167
420
  2837403
370
    35
100
AcDbVertex
100
AcDb2dVertex
 10
279.87109375
 20
-401.787109375
 30
0.0
  0
VERTEX
  5
DC
330
CC
100
AcDbEntity
  8
Layer 1
 62
   167
420
  2837403
370
    35
100
AcDbVertex
100
AcDb2dVertex
 10
290.1259765625
 20
-406.03515625
 30
0.0
  0
VERTEX
  5
DD
330
CC
100
AcDbEntity
  8
Layer 1
 62
   167
420
  2837403
370
    35
100
AcDbVertex
100
AcDb2dVertex
 10
298.9326171875
 20
-412.791015625
 30
0.0
  0
VERTEX
  5
DE
330
CC
100
AcDbEntity
  8
Layer 1
 62
   167
420
  2837403
370
    35
100
AcDbVertex
100
AcDb2dVertex
 10
305.689453125
 20
-421.59765625
 30
0.0
  0
VERTEX
  5
DF
330
CC
100
AcDbEntity
  8
Layer 1
 62
   167
420
  2837403
370
    35
100
AcDbVertex
100
AcDb2dVertex
 10
309.9375
 20
-431.853515625
 30
0.0
  0
VERTEX
  5
E0
330
CC
100
AcDbEntity
  8
Layer 1
 62
   167
420
  2837403
370
    35
100
AcDbVertex
100
AcDb2dVertex
 10
311.3857421875
 20
-442.857421875
 30
0.0
  0
VERTEX
  5
E1
330
CC
100
AcDbEntity
  8
Layer 1
 62
   167
420
  2837403
370
    35
100
AcDbVertex
100
AcDb2dVertex
 10
309.9375
 20
-453.86328125
 30
0.0
  0
VERTEX
  5
E2
330
CC
100
AcDbEntity
  8
Layer 1
 62
   167
420
  2837403
370
    35
100
AcDbVertex
100
AcDb2dVertex
 10
305.689453125
 20
-464.1171875
 30
0.0
  0
VERTEX
  5
E3
330
CC
100
AcDbEntity
  8
Layer 1
 62
   167
420
  2837403
370
    35
100
AcDbVertex
100
AcDb2dVertex
 10
298.9326171875
 20
-472.923828125
 30
0.0
  0
VERTEX
  5
E4
330
CC
100
AcDbEntity
  8
Layer 1
 62
   167
420
  2837403
370
    35
100
AcDbVertex
100
AcDb2dVertex
 10
290.1259765625
 20
-479.681640625
 30
0.0
  0
VERTEX
  5
E5
330
CC
100
AcDbEntity
  8
Layer 1
 62
   167
420
  2837403
370
    35
100
AcDbVertex
100
AcDb2dVertex
 10
279.87109375
 20
-483.927734375
 30
0.0
  0
SEQEND
  5
E6
330
CC
100
AcDbEntity
  8
Layer 1
370
    35
  0
POLYLINE
  5
E7
330
1F
100
AcDbEntity
  8
Layer 1
 62
   167
420
  2837403
370
    35
100
AcDb2dPolyline
 66
     1
 10
0.0
 20
0.0
 30
0.0
  0
VERTEX
  5
E8
330
E7
100
AcDbEntity
  8
Layer 1
 62
   167
420
  2837403
370
    35
100
AcDbVertex
100
AcDb2dVertex
 10
640.9599609375
 20
-539.236328125
 30
0.0
  0
VERTEX
  5
E9
330
E7
100
AcDbEntity
  8
Layer 1
 62
   167
420
  2837403
370
    35
100
AcDbVertex
100
AcDb2dVertex
 10
640.9599609375
 20
-57.34716796875
 30
0.0
  0
VERTEX
  5
EA
330
E7
100
AcDbEntity
  8
Layer 1
 62
   167
420
  2837403
370
    35
100
AcDbVertex
100
AcDb2dVertex
 10
366.0
 20
-57.34716796875
 30
0.0
  0
VERTEX
  5
EB
330
E7
100
AcDbEntity
  8
Layer 1
 62
   167
420
  2837403
370
    35
100
AcDbVertex
100
AcDb2dVertex
 10
366.0
 20
-539.236328125
 30
0.0
  0
VERTEX
  5
EC
330
E7
100
AcDbEntity
  8
Layer 1
 62
   167
420
  2837403
370
    35
100
AcDbVertex
100
AcDb2dVertex
 10
640.9599609375
 20
-539.236328125
 30
0.0
  0
SEQEND
  5
ED
330
E7
100
AcDbEntity
  8
Layer 1
370
    35
  0
POLYLINE
  5
EE
330
1F
100
AcDbEntity
  8
Layer 1
 62
   167
420
  2837403
370
    35
100
AcDb2dPolyline
 66
     1
 10
0.0
 20
0.0
 30
0.0
  0
VERTEX
  5
EF
330
EE
100
AcDbEntity
  8
Layer 1
 62
   167
420
  2837403
370
    35
100
AcDbVertex
100
AcDb2dVertex
 10
623.9521484375
 20
-326.63671875
 30
0.0
  0
VERTEX
  5
F0
330
EE
100
AcDbEntity
  8
Layer 1
 62
   167
420
  2837403
370
    35
100
AcDbVertex
100
AcDb2dVertex
 10
623.9521484375
 20
-269.9453125
 30
0.0
  0
VERTEX
  5
F1
330
EE
100
AcDbEntity
  8
Layer 1
 62
   167
420
  2837403
370
    35
100
AcDbVertex
100
AcDb2dVertex
 10
632.4560546875
 20
-269.9453125
 30
0.0
  0
VERTEX
  5
F2
330
EE
100
AcDbEntity
  8
Layer 1
 62
   167
420
  2837403
370
    35
100
AcDbVertex
100
AcDb2dVertex
 10
632.4560546875
 20
-326.63671875
 30
0.0
  0
VERTEX
  5
F3
330
EE
100
AcDbEntity
  8
Layer 1
 62
   167
420
  2837403
370
    35
100
AcDbVertex
100
AcDb2dVertex
 10
623.9521484375
 20
-326.63671875
 30
0.0
  0
SEQEND
  5
F4
330
EE
100
AcDbEntity
  8
Layer 1
370
    35
  0
POLYLINE
  5
F5
330
1F
100
AcDbEntity
  8
Layer 1
 62
   167
420
  2837403
370
    35
100
AcDb2dPolyline
 66
     1
 10
0.0
 20
0.0
 30
0.0
  0
VERTEX
  5
F6
330
F5
100
AcDbEntity
  8
Layer 1
 62
   167
420
  2837403
370
    35
100
AcDbVertex
100
AcDb2dVertex
 10
374.50390625
 20
-269.9453125
 30
0.0
  0
VERTEX
  5
F7
330
F5
100
AcDbEntity
  8
Layer 1
 62
   167
420
  2837403
370
    35
100
AcDbVertex
100
AcDb2dVertex
 10
383.0078125
 20
-269.9453125
 30
0.0
  0
VERTEX
  5
F8
330
F5
100
AcDbEntity
  8
Layer 1
 62
   167
420
  2837403
370
    35
100
AcDbVertex
100
AcDb2dVertex
 10
383.0078125
 20
-326.828125
 30
0.0
  0
VERTEX
  5
F9
330
F5
100
AcDbEntity
  8
Layer 1
 62
   167
420
  2837403
370
    35
100
AcDbVertex
100
AcDb2dVertex
 10
374.50390625
 20
-326.828125
 30
0.0
  0
VERTEX
  5
FA
330
F5
100
AcDbEntity
  8
Layer 1
 62
   167
420
  2837403
370
    35
100
AcDbVertex
100
AcDb2dVertex
 10
374.50390625
 20
-269.9453125
 30
0.0
  0
SEQEND
  5
FB
330
F5
100
AcDbEntity
  8
Layer 1
370
    35
  0
POLYLINE
  5
FC
330
1F
100
AcDbEntity
  8
Layer 1
 62
   167
420
  2837403
370
    35
100
AcDb2dPolyline
 66
     1
 10
0.0
 20
0.0
 30
0.0
  0
VERTEX
  5
FD
330
FC
100
AcDbEntity
  8
Layer 1
 62
   167
420
  2837403
370
    35
100
AcDbVertex
100
AcDb2dVertex
 10
628.2041015625
 20
-85.693359375
 30
0.0
  0
VERTEX
  5
FE
330
FC
100
AcDbEntity
  8
Layer 1
 62
   167
420
  2837403
370
    35
100
AcDbVertex
100
AcDb2dVertex
 10
629.3056640625
 20
-85.83837890625
 30
0.0
  0
VERTEX
  5
FF
330
FC
100
AcDbEntity
  8
Layer 1
 62
   167
420
  2837403
370
    35
100
AcDbVertex
100
AcDb2dVertex
 10
630.3310546875
 20
-86.26318359375
 30
0.0
  0
VERTEX
  5
100
330
FC
100
AcDbEntity
  8
Layer 1
 62
   167
420
  2837403
370
    35
100
AcDbVertex
100
AcDb2dVertex
 10
631.2099609375
 20
-86.93896484375
 30
0.0
  0
VERTEX
  5
101
330
FC
100
AcDbEntity
  8
Layer 1
 62
   167
420
  2837403
370
    35
100
AcDbVertex
100
AcDb2dVertex
 10
631.8857421875
 20
-87.8193359375
 30
0.0
  0
VERTEX
  5
102
330
FC
100
AcDbEntity
  8
Layer 1
 62
   167
420
  2837403
370
    35
100
AcDbVertex
100
AcDb2dVertex
 10
632.3115234375
 20
-88.8447265625
 30
0.0
  0
VERTEX
  5
103
330
FC
100
AcDbEntity
  8
Layer 1
 62
   167
420
  2837403
370
    35
100
AcDbVertex
100
AcDb2dVertex
 10
632.4560546875
 20
-89.9453125
 30
0.0
  0
VERTEX
  5
104
330
FC
100
AcDbEntity
  8
Layer 1
 62
   167
420
  2837403
370
    35
100
AcDbVertex
100
AcDb2dVertex
 10
632.3115234375
 20
-91.0458984375
 30
0.0
  0
VERTEX
  5
105
330
FC
100
AcDbEntity
  8
Layer 1
 62
   167
420
  2837403
370
    35
100
AcDbVertex
100
AcDb2dVertex
 10
631.8857421875
 20
-92.0712890625
 30
0.0
  0
VERTEX
  5
106
330
FC
100
AcDbEntity
  8
Layer 1
 62
   167
420
  2837403
370
    35
100
AcDbVertex
100
AcDb2dVertex
 10
631.2099609375
 20
-92.9521484375
 30
0.0
  0
VERTEX
  5
107
330
FC
100
AcDbEntity
  8
Layer 1
 62
   167
420
  2837403
370
    35
100
AcDbVertex
100
AcDb2dVertex
 10
630.3310546875
 20
-93.6279296875
 30
0.0
  0
VERTEX
  5
108
330
FC
100
AcDbEntity
  8
Layer 1
 62
   167
420
  2837403
370
    35
100
AcDbVertex
100
AcDb2dVertex
 10
629.3056640625
 20
-94.05224609375
 30
0.0
  0
VERTEX
  5
109
330
FC
100
AcDbEntity
  8
Layer 1
 62
   167
420
  2837403
370
    35
100
AcDbVertex
100
AcDb2dVertex
 10
628.2041015625
 20
-94.197265625
 30
0.0
  0
VERTEX
  5
10A
330
FC
100
AcDbEntity
  8
Layer 1
 62
   167
420
  2837403
370
    35
100
AcDbVertex
100
AcDb2dVertex
 10
627.1044921875
 20
-94.05224609375
 30
0.0
  0
VERTEX
  5
10B
330
FC
100
AcDbEntity
  8
Layer 1
 62
   167
420
  2837403
370
    35
100
AcDbVertex
100
AcDb2dVertex
 10
626.0791015625
 20
-93.6279296875
 30
0.0
  0
VERTEX
  5
10C
330
FC
100
AcDbEntity
  8
Layer 1
 62
   167
420
  2837403
370
    35
100
AcDbVertex
100
AcDb2dVertex
 10
625.1982421875
 20
-92.9521484375
 30
0.0
  0
VERTEX
  5
10D
330
FC
100
AcDbEntity
  8
Layer 1
 62
   167
420
  2837403
370
    35
100
AcDbVertex
100
AcDb2dVertex
 10
624.5224609375
 20
-92.0712890625
 30
0.0
  0
VERTEX
  5
10E
330
FC
100
AcDbEntity
  8
Layer 1
 62
   167
420
  2837403
370
    35
100
AcDbVertex
100
AcDb2dVertex
 10
624.0966796875
 20
-91.0458984375
 30
0.0
  0
VERTEX
  5
10F
330
FC
100
AcDbEntity
  8
Layer 1
 62
   167
420
  2837403
370
    35
100
AcDbVertex
100
AcDb2dVertex
 10
623.9521484375
 20
-89.9453125
 30
0.0
  0
VERTEX
  5
110
330
FC
100
AcDbEntity
  8
Layer 1
 62
   167
420
  2837403
370
    35
100
AcDbVertex
100
AcDb2dVertex
 10
624.0966796875
 20
-88.8447265625
 30
0.0
  0
VERTEX
  5
111
330
FC
100
AcDbEntity
  8
Layer 1
 62
   167
420
  2837403
370
    35
100
AcDbVertex
100
AcDb2dVertex
 10
624.5224609375
 20
-87.8193359375
 30
0.0
  0
VERTEX
  5
112
330
FC
100
AcDbEntity
  8
Layer 1
 62
   167
420
  2837403
370
    35
100
AcDbVertex
100
AcDb2dVertex
 10
625.1982421875
 20
-86.93896484375
 30
0.0
  0
VERTEX
  5
113
330
FC
100
AcDbEntity
  8
Layer 1
 62
   167
420
  2837403
370
    35
100
AcDbVertex
100
AcDb2dVertex
 10
626.0791015625
 20
-86.26318359375
 30
0.0
  0
VERTEX
  5
114
330
FC
100
AcDbEntity
  8
Layer 1
 62
   167
420
  2837403
370
    35
100
AcDbVertex
100
AcDb2dVertex
 10
627.1044921875
 20
-85.83837890625
 30
0.0
  0
VERTEX
  5
115
330
FC
100
AcDbEntity
  8
Layer 1
 62
   167
420
  2837403
370
    35
100
AcDbVertex
100
AcDb2dVertex
 10
628.2041015625
 20
-85.693359375
 30
0.0
  0
SEQEND
  5
116
330
FC
100
AcDbEntity
  8
Layer 1
370
    35
  0
POLYLINE
  5
117
330
1F
100
AcDbEntity
  8
Layer 1
 62
   167
420
  2837403
370
    35
100
AcDb2dPolyline
 66
     1
 10
0.0
 20
0.0
 30
0.0
  0
VERTEX
  5
118
330
117
100
AcDbEntity
  8
Layer 1
 62
   167
420
  2837403
370
    35
100
AcDbVertex
100
AcDb2dVertex
 10
628.2041015625
 20
-502.3203125
 30
0.0
  0
VERTEX
  5
119
330
117
100
AcDbEntity
  8
Layer 1
 62
   167
420
  2837403
370
    35
100
AcDbVertex
100
AcDb2dVertex
 10
629.3056640625
 20
-502.46484375
 30
0.0
  0
VERTEX
  5
11A
330
117
100
AcDbEntity
  8
Layer 1
 62
   167
420
  2837403
370
    35
100
AcDbVertex
100
AcDb2dVertex
 10
630.3310546875
 20
-502.888671875
 30
0.0
  0
VERTEX
  5
11B
330
117
100
AcDbEntity
  8
Layer 1
 62
   167
420
  2837403
370
    35
100
AcDbVertex
100
AcDb2dVertex
 10
631.2099609375
 20
-503.564453125
 30
0.0
  0
VERTEX
  5
11C
330
117
100
AcDbEntity
  8
Layer 1
 62
   167
420
  2837403
370
    35
100
AcDbVertex
100
AcDb2dVertex
 10
631.8857421875
 20
-504.4453125
 30
0.0
  0
VERTEX
  5
11D
330
117
100
AcDbEntity
  8
Layer 1
 62
   167
420
  2837403
370
    35
100
AcDbVertex
100
AcDb2dVertex
 10
632.3115234375
 20
-505.470703125
 30
0.0
  0
VERTEX
  5
11E
330
117
100
AcDbEntity
  8
Layer 1
 62
   167
420
  2837403
370
    35
100
AcDbVertex
100
AcDb2dVertex
 10
632.4560546875
 20
-506.572265625
 30
0.0
  0
VERTEX
  5
11F
330
117
100
AcDbEntity
  8
Layer 1
 62
   167
420
  2837403
370
    35
100
AcDbVertex
100
AcDb2dVertex
 10
632.3115234375
 20
-507.671875
 30
0.0
  0
VERTEX
  5
120
330
117
100
AcDbEntity
  8
Layer 1
 62
   167
420
  2837403
370
    35
100
AcDbVertex
100
AcDb2dVertex
 10
631.8857421875
 20
-508.697265625
 30
0.0
  0
VERTEX
  5
121
330
117
100
AcDbEntity
  8
Layer 1
 62
   167
420
  2837403
370
    35
100
AcDbVertex
100
AcDb2dVertex
 10
631.2099609375
 20
-509.578125
 30
0.0
  0
VERTEX
  5
122
330
117
100
AcDbEntity
  8
Layer 1
 62
   167
420
  2837403
370
    35
100
AcDbVertex
100
AcDb2dVertex
 10
630.3310546875
 20
-510.25390625
 30
0.0
  0
VERTEX
  5
123
330
117
100
AcDbEntity
  8
Layer 1
 62
   167
420
  2837403
370
    35
100
AcDbVertex
100
AcDb2dVertex
 10
629.3056640625
 20
-510.6796875
 30
0.0
  0
VERTEX
  5
124
330
117
100
AcDbEntity
  8
Layer 1
 62
   167
420
  2837403
370
    35
100
AcDbVertex
100
AcDb2dVertex
 10
628.2041015625
 20
-510.82421875
 30
0.0
  0
VERTEX
  5
125
330
117
100
AcDbEntity
  8
Layer 1
 62
   167
420
  2837403
370
    35
100
AcDbVertex
100
AcDb2dVertex
 10
627.1044921875
 20
-510.6796875
 30
0.0
  0
VERTEX
  5
126
330
117
100
AcDbEntity
  8
Layer 1
 62
   167
420
  2837403
370
    35
100
AcDbVertex
100
AcDb2dVertex
 10
626.0791015625
 20
-510.25390625
 30
0.0
  0
VERTEX
  5
127
330
117
100
AcDbEntity
  8
Layer 1
 62
   167
420
  2837403
370
    35
100
AcDbVertex
100
AcDb2dVertex
 10
625.1982421875
 20
-509.578125
 30
0.0
  0
VERTEX
  5
128
330
117
100
AcDbEntity
  8
Layer 1
 62
   167
420
  2837403
370
    35
100
AcDbVertex
100
AcDb2dVertex
 10
624.5224609375
 20
-508.697265625
 30
0.0
  0
VERTEX
  5
129
330
117
100
AcDbEntity
  8
Layer 1
 62
   167
420
  2837403
370
    35
100
AcDbVertex
100
AcDb2dVertex
 10
624.0966796875
 20
-507.671875
 30
0.0
  0
VERTEX
  5
12A
330
117
100
AcDbEntity
  8
Layer 1
 62
   167
420
  2837403
370
    35
100
AcDbVertex
100
AcDb2dVertex
 10
623.9521484375
 20
-506.572265625
 30
0.0
  0
VERTEX
  5
12B
330
117
100
AcDbEntity
  8
Layer 1
 62
   167
420
  2837403
370
    35
100
AcDbVertex
100
AcDb2dVertex
 10
624.0966796875
 20
-505.470703125
 30
0.0
  0
VERTEX
  5
12C
330
117
100
AcDbEntity
  8
Layer 1
 62
   167
420
  2837403
370
    35
100
AcDbVertex
100
AcDb2dVertex
 10
624.5224609375
 20
-504.4453125
 30
0.0
  0
VERTEX
  5
12D
330
117
100
AcDbEntity
  8
Layer 1
 62
   167
420
  2837403
370
    35
100
AcDbVertex
100
AcDb2dVertex
 10
625.1982421875
 20
-503.564453125
 30
0.0
  0
VERTEX
  5
12E
330
117
100
AcDbEntity
  8
Layer 1
 62
   167
420
  2837403
370
    35
100
AcDbVertex
100
AcDb2dVertex
 10
626.0791015625
 20
-502.888671875
 30
0.0
  0
VERTEX
  5
12F
330
117
100
AcDbEntity
  8
Layer 1
 62
   167
420
  2837403
370
    35
100
AcDbVertex
100
AcDb2dVertex
 10
627.1044921875
 20
-502.46484375
 30
0.0
  0
VERTEX
  5
130
330
117
100
AcDbEntity
  8
Layer 1
 62
   167
420
  2837403
370
    35
100
AcDbVertex
100
AcDb2dVertex
 10
628.2041015625
 20
-502.3203125
 30
0.0
  0
SEQEND
  5
131
330
117
100
AcDbEntity
  8
Layer 1
370
    35
  0
POLYLINE
  5
132
330
1F
100
AcDbEntity
  8
Layer 1
 62
   167
420
  2837403
370
    35
100
AcDb2dPolyline
 66
     1
 10
0.0
 20
0.0
 30
0.0
  0
VERTEX
  5
133
330
132
100
AcDbEntity
  8
Layer 1
 62
   167
420
  2837403
370
    35
100
AcDbVertex
100
AcDb2dVertex
 10
378.755859375
 20
-510.888671875
 30
0.0
  0
VERTEX
  5
134
330
132
100
AcDbEntity
  8
Layer 1
 62
   167
420
  2837403
370
    35
100
AcDbVertex
100
AcDb2dVertex
 10
377.6552734375
 20
-510.744140625
 30
0.0
  0
VERTEX
  5
135
330
132
100
AcDbEntity
  8
Layer 1
 62
   167
420
  2837403
370
    35
100
AcDbVertex
100
AcDb2dVertex
 10
376.6298828125
 20
-510.3203125
 30
0.0
  0
VERTEX
  5
136
330
132
100
AcDbEntity
  8
Layer 1
 62
   167
420
  2837403
370
    35
100
AcDbVertex
100
AcDb2dVertex
 10
375.7490234375
 20
-509.64453125
 30
0.0
  0
VERTEX
  5
137
330
132
100
AcDbEntity
  8
Layer 1
 62
   167
420
  2837403
370
    35
100
AcDbVertex
100
AcDb2dVertex
 10
375.0732421875
 20
-508.763671875
 30
0.0
  0
VERTEX
  5
138
330
132
100
AcDbEntity
  8
Layer 1
 62
   167
420
  2837403
370
    35
100
AcDbVertex
100
AcDb2dVertex
 10
374.6484375
 20
-507.73828125
 30
0.0
  0
VERTEX
  5
139
330
132
100
AcDbEntity
  8
Layer 1
 62
   167
420
  2837403
370
    35
100
AcDbVertex
100
AcDb2dVertex
 10
374.50390625
 20
-506.63671875
 30
0.0
  0
VERTEX
  5
13A
330
132
100
AcDbEntity
  8
Layer 1
 62
   167
420
  2837403
370
    35
100
AcDbVertex
100
AcDb2dVertex
 10
374.6484375
 20
-505.537109375
 30
0.0
  0
VERTEX
  5
13B
330
132
100
AcDbEntity
  8
Layer 1
 62
   167
420
  2837403
370
    35
100
AcDbVertex
100
AcDb2dVertex
 10
375.0732421875
 20
-504.51171875
 30
0.0
  0
VERTEX
  5
13C
330
132
100
AcDbEntity
  8
Layer 1
 62
   167
420
  2837403
370
    35
100
AcDbVertex
100
AcDb2dVertex
 10
375.7490234375
 20
-503.630859375
 30
0.0
  0
VERTEX
  5
13D
330
132
100
AcDbEntity
  8
Layer 1
 62
   167
420
  2837403
370
    35
100
AcDbVertex
100
AcDb2dVertex
 10
376.6298828125
 20
-502.955078125
 30
0.0
  0
VERTEX
  5
13E
330
132
100
AcDbEntity
  8
Layer 1
 62
   167
420
  2837403
370
    35
100
AcDbVertex
100
AcDb2dVertex
 10
377.6552734375
 20
-502.529296875
 30
0.0
  0
VERTEX
  5
13F
330
132
100
AcDbEntity
  8
Layer 1
 62
   167
420
  2837403
370
    35
100
AcDbVertex
100
AcDb2dVertex
 10
378.755859375
 20
-502.384765625
 30
0.0
  0
VERTEX
  5
140
330
132
100
AcDbEntity
  8
Layer 1
 62
   167
420
  2837403
370
    35
100
AcDbVertex
100
AcDb2dVertex
 10
379.8564453125
 20
-502.529296875
 30
0.0
  0
VERTEX
  5
141
330
132
100
AcDbEntity
  8
Layer 1
 62
   167
420
  2837403
370
    35
100
AcDbVertex
100
AcDb2dVertex
 10
380.8818359375
 20
-502.955078125
 30
0.0
  0
VERTEX
  5
142
330
132
100
AcDbEntity
  8
Layer 1
 62
   167
420
  2837403
370
    35
100
AcDbVertex
100
AcDb2dVertex
 10
381.7626953125
 20
-503.630859375
 30
0.0
  0
VERTEX
  5
143
330
132
100
AcDbEntity
  8
Layer 1
 62
   167
420
  2837403
370
    35
100
AcDbVertex
100
AcDb2dVertex
 10
382.4384765625
 20
-504.51171875
 30
0.0
  0
VERTEX
  5
144
330
132
100
AcDbEntity
  8
Layer 1
 62
   167
420
  2837403
370
    35
100
AcDbVertex
100
AcDb2dVertex
 10
382.8623046875
 20
-505.537109375
 30
0.0
  0
VERTEX
  5
145
330
132
100
AcDbEntity
  8
Layer 1
 62
   167
420
  2837403
370
    35
100
AcDbVertex
100
AcDb2dVertex
 10
383.0078125
 20
-506.63671875
 30
0.0
  0
VERTEX
  5
146
330
132
100
AcDbEntity
  8
Layer 1
 62
   167
420
  2837403
370
    35
100
AcDbVertex
100
AcDb2dVertex
 10
382.8623046875
 20
-507.73828125
 30
0.0
  0
VERTEX
  5
147
330
132
100
AcDbEntity
  8
Layer 1
 62
   167
420
  2837403
370
    35
100
AcDbVertex
100
AcDb2dVertex
 10
382.4384765625
 20
-508.763671875
 30
0.0
  0
VERTEX
  5
148
330
132
100
AcDbEntity
  8
Layer 1
 62
   167
420
  2837403
370
    35
100
AcDbVertex
100
AcDb2dVertex
 10
381.7626953125
 20
-509.64453125
 30
0.0
  0
VERTEX
  5
149
330
132
100
AcDbEntity
  8
Layer 1
 62
   167
420
  2837403
370
    35
100
AcDbVertex
100
AcDb2dVertex
 10
380.8818359375
 20
-510.3203125
 30
0.0
  0
VERTEX
  5
14A
330
132
100
AcDbEntity
  8
Layer 1
 62
   167
420
  2837403
370
    35
100
AcDbVertex
100
AcDb2dVertex
 10
379.8564453125
 20
-510.744140625
 30
0.0
  0
VERTEX
  5
14B
330
132
100
AcDbEntity
  8
Layer 1
 62
   167
420
  2837403
370
    35
100
AcDbVertex
100
AcDb2dVertex
 10
378.755859375
 20
-510.888671875
 30
0.0
  0
SEQEND
  5
14C
330
132
100
AcDbEntity
  8
Layer 1
370
    35
  0
POLYLINE
  5
14D
330
1F
100
AcDbEntity
  8
Layer 1
 62
   167
420
  2837403
370
    35
100
AcDb2dPolyline
 66
     1
 10
0.0
 20
0.0
 30
0.0
  0
VERTEX
  5
14E
330
14D
100
AcDbEntity
  8
Layer 1
 62
   167
420
  2837403
370
    35
100
AcDbVertex
100
AcDb2dVertex
 10
378.755859375
 20
-94.240234375
 30
0.0
  0
VERTEX
  5
14F
330
14D
100
AcDbEntity
  8
Layer 1
 62
   167
420
  2837403
370
    35
100
AcDbVertex
100
AcDb2dVertex
 10
378.1572265625
 20
-94.19775390625
 30
0.0
  0
VERTEX
  5
150
330
14D
100
AcDbEntity
  8
Layer 1
 62
   167
420
  2837403
370
    35
100
AcDbVertex
100
AcDb2dVertex
 10
377.087890625
 20
-93.8994140625
 30
0.0
  0
VERTEX
  5
151
330
14D
100
AcDbEntity
  8
Layer 1
 62
   167
420
  2837403
370
    35
100
AcDbVertex
100
AcDb2dVertex
 10
376.1318359375
 20
-93.33447265625
 30
0.0
  0
VERTEX
  5
152
330
14D
100
AcDbEntity
  8
Layer 1
 62
   167
420
  2837403
370
    35
100
AcDbVertex
100
AcDb2dVertex
 10
375.35546875
 20
-92.54150390625
 30
0.0
  0
VERTEX
  5
153
330
14D
100
AcDbEntity
  8
Layer 1
 62
   167
420
  2837403
370
    35
100
AcDbVertex
100
AcDb2dVertex
 10
374.810546875
 20
-91.57421875
 30
0.0
  0
VERTEX
  5
154
330
14D
100
AcDbEntity
  8
Layer 1
 62
   167
420
  2837403
370
    35
100
AcDbVertex
100
AcDb2dVertex
 10
374.5341796875
 20
-90.49951171875
 30
0.0
  0
VERTEX
  5
155
330
14D
100
AcDbEntity
  8
Layer 1
 62
   167
420
  2837403
370
    35
100
AcDbVertex
100
AcDb2dVertex
 10
374.5458984375
 20
-89.38916015625
 30
0.0
  0
VERTEX
  5
156
330
14D
100
AcDbEntity
  8
Layer 1
 62
   167
420
  2837403
370
    35
100
AcDbVertex
100
AcDb2dVertex
 10
374.8447265625
 20
-88.3203125
 30
0.0
  0
VERTEX
  5
157
330
14D
100
AcDbEntity
  8
Layer 1
 62
   167
420
  2837403
370
    35
100
AcDbVertex
100
AcDb2dVertex
 10
375.4091796875
 20
-87.36474609375
 30
0.0
  0
VERTEX
  5
158
330
14D
100
AcDbEntity
  8
Layer 1
 62
   167
420
  2837403
370
    35
100
AcDbVertex
100
AcDb2dVertex
 10
376.2021484375
 20
-86.58837890625
 30
0.0
  0
VERTEX
  5
159
330
14D
100
AcDbEntity
  8
Layer 1
 62
   167
420
  2837403
370
    35
100
AcDbVertex
100
AcDb2dVertex
 10
377.1689453125
 20
-86.04296875
 30
0.0
  0
VERTEX
  5
15A
330
14D
100
AcDbEntity
  8
Layer 1
 62
   167
420
  2837403
370
    35
100
AcDbVertex
100
AcDb2dVertex
 10
378.2451171875
 20
-85.76708984375
 30
0.0
  0
VERTEX
  5
15B
330
14D
100
AcDbEntity
  8
Layer 1
 62
   167
420
  2837403
370
    35
100
AcDbVertex
100
AcDb2dVertex
 10
379.3544921875
 20
-85.77880859375
 30
0.0
  0
VERTEX
  5
15C
330
14D
100
AcDbEntity
  8
Layer 1
 62
   167
420
  2837403
370
    35
100
AcDbVertex
100
AcDb2dVertex
 10
380.423828125
 20
-86.0771484375
 30
0.0
  0
VERTEX
  5
15D
330
14D
100
AcDbEntity
  8
Layer 1
 62
   167
420
  2837403
370
    35
100
AcDbVertex
100
AcDb2dVertex
 10
381.37890625
 20
-86.64208984375
 30
0.0
  0
VERTEX
  5
15E
330
14D
100
AcDbEntity
  8
Layer 1
 62
   167
420
  2837403
370
    35
100
AcDbVertex
100
AcDb2dVertex
 10
382.1552734375
 20
-87.43505859375
 30
0.0
  0
VERTEX
  5
15F
330
14D
100
AcDbEntity
  8
Layer 1
 62
   167
420
  2837403
370
    35
100
AcDbVertex
100
AcDb2dVertex
 10
382.7001953125
 20
-88.40185546875
 30
0.0
  0
VERTEX
  5
160
330
14D
100
AcDbEntity
  8
Layer 1
 62
   167
420
  2837403
370
    35
100
AcDbVertex
100
AcDb2dVertex
 10
382.9775390625
 20
-89.47705078125
 30
0.0
  0
VERTEX
  5
161
330
14D
100
AcDbEntity
  8
Layer 1
 62
   167
420
  2837403
370
    35
100
AcDbVertex
100
AcDb2dVertex
 10
382.9658203125
 20
-90.5869140625
 30
0.0
  0
VERTEX
  5
162
330
14D
100
AcDbEntity
  8
Layer 1
 62
   167
420
  2837403
370
    35
100
AcDbVertex
100
AcDb2dVertex
 10
382.6669921875
 20
-91.65625
 30
0.0
  0
VERTEX
  5
163
330
14D
100
AcDbEntity
  8
Layer 1
 62
   167
420
  2837403
370
    35
100
AcDbVertex
100
AcDb2dVertex
 10
382.1025390625
 20
-92.61181640625
 30
0.0
  0
VERTEX
  5
164
330
14D
100
AcDbEntity
  8
Layer 1
 62
   167
420
  2837403
370
    35
100
AcDbVertex
100
AcDb2dVertex
 10
381.30859375
 20
-93.38818359375
 30
0.0
  0
VERTEX
  5
165
330
14D
100
AcDbEntity
  8
Layer 1
 62
   167
420
  2837403
370
    35
100
AcDbVertex
100
AcDb2dVertex
 10
380.341796875
 20
-93.93310546875
 30
0.0
  0
VERTEX
  5
166
330
14D
100
AcDbEntity
  8
Layer 1
 62
   167
420
  2837403
370
    35
100
AcDbVertex
100
AcDb2dVertex
 10
379.2666015625
 20
-94.20947265625
 30
0.0
  0
VERTEX
  5
167
330
14D
100
AcDbEntity
  8
Layer 1
 62
   167
420
  2837403
370
    35
100
AcDbVertex
100
AcDb2dVertex
 10
378.755859375
 20
-94.240234375
 30
0.0
  0
SEQEND
  5
168
330
14D
100
AcDbEntity
  8
Layer 1
370
    35
  0
POLYLINE
  5
169
330
1F
100
AcDbEntity
  8
Layer 1
 62
   167
420
  2837403
370
    35
100
AcDb2dPolyline
 66
     1
 10
0.0
 20
0.0
 30
0.0
  0
VERTEX
  5
16A
330
169
100
AcDbEntity
  8
Layer 1
 62
   167
420
  2837403
370
    35
100
AcDbVertex
100
AcDb2dVertex
 10
932.564453125
 20
-538.5849609375
 30
0.0
  0
VERTEX
  5
16B
330
169
100
AcDbEntity
  8
Layer 1
 62
   167
420
  2837403
370
    35
100
AcDbVertex
100
AcDb2dVertex
 10
932.564453125
 20
-56.69580078125
 30
0.0
  0
VERTEX
  5
16C
330
169
100
AcDbEntity
  8
Layer 1
 62
   167
420
  2837403
370
    35
100
AcDbVertex
100
AcDb2dVertex
 10
657.6044921875
 20
-56.69580078125
 30
0.0
  0
VERTEX
  5
16D
330
169
100
AcDbEntity
  8
Layer 1
 62
   167
420
  2837403
370
    35
100
AcDbVertex
100
AcDb2dVertex
 10
657.6044921875
 20
-538.5849609375
 30
0.0
  0
VERTEX
  5
16E
330
169
100
AcDbEntity
  8
Layer 1
 62
   167
420
  2837403
370
    35
100
AcDbVertex
100
AcDb2dVertex
 10
932.564453125
 20
-538.5849609375
 30
0.0
  0
SEQEND
  5
16F
330
169
100
AcDbEntity
  8
Layer 1
370
    35
  0
POLYLINE
  5
170
330
1F
100
AcDbEntity
  8
Layer 1
 62
   167
420
  2837403
370
    35
100
AcDb2dPolyline
 66
     1
 10
0.0
 20
0.0
 30
0.0
  0
VERTEX
  5
171
330
170
100
AcDbEntity
  8
Layer 1
 62
   167
420
  2837403
370
    35
100
AcDbVertex
100
AcDb2dVertex
 10
915.556640625
 20
-325.9853515625
 30
0.0
  0
VERTEX
  5
172
330
170
100
AcDbEntity
  8
Layer 1
 62
   167
420
  2837403
370
    35
100
AcDbVertex
100
AcDb2dVertex
 10
915.556640625
 20
-269.2939453125
 30
0.0
  0
VERTEX
  5
173
330
170
100
AcDbEntity
  8
Layer 1
 62
   167
420
  2837403
370
    35
100
AcDbVertex
100
AcDb2dVertex
 10
924.060546875
 20
-269.2939453125
 30
0.0
  0
VERTEX
  5
174
330
170
100
AcDbEntity
  8
Layer 1
 62
   167
420
  2837403
370
    35
100
AcDbVertex
100
AcDb2dVertex
 10
924.060546875
 20
-325.9853515625
 30
0.0
  0
VERTEX
  5
175
330
170
100
AcDbEntity
  8
Layer 1
 62
   167
420
  2837403
370
    35
100
AcDbVertex
100
AcDb2dVertex
 10
915.556640625
 20
-325.9853515625
 30
0.0
  0
SEQEND
  5
176
330
170
100
AcDbEntity
  8
Layer 1
370
    35
  0
POLYLINE
  5
177
330
1F
100
AcDbEntity
  8
Layer 1
 62
   167
420
  2837403
370
    35
100
AcDb2dPolyline
 66
     1
 10
0.0
 20
0.0
 30
0.0
  0
VERTEX
  5
178
330
177
100
AcDbEntity
  8
Layer 1
 62
   167
420
  2837403
370
    35
100
AcDbVertex
100
AcDb2dVertex
 10
666.1083984375
 20
-269.2939453125
 30
0.0
  0
VERTEX
  5
179
330
177
100
AcDbEntity
  8
Layer 1
 62
   167
420
  2837403
370
    35
100
AcDbVertex
100
AcDb2dVertex
 10
674.6123046875
 20
-269.2939453125
 30
0.0
  0
VERTEX
  5
17A
330
177
100
AcDbEntity
  8
Layer 1
 62
   167
420
  2837403
370
    35
100
AcDbVertex
100
AcDb2dVertex
 10
674.6123046875
 20
-326.1767578125
 30
0.0
  0
VERTEX
  5
17B
330
177
100
AcDbEntity
  8
Layer 1
 62
   167
420
  2837403
370
    35
100
AcDbVertex
100
AcDb2dVertex
 10
666.1083984375
 20
-326.1767578125
 30
0.0
  0
VERTEX
  5
17C
330
177
100
AcDbEntity
  8
Layer 1
 62
   167
420
  2837403
370
    35
100
AcDbVertex
100
AcDb2dVertex
 10
666.1083984375
 20
-269.2939453125
 30
0.0
  0
SEQEND
  5
17D
330
177
100
AcDbEntity
  8
Layer 1
370
    35
  0
POLYLINE
  5
17E
330
1F
100
AcDbEntity
  8
Layer 1
 62
   167
420
  2837403
370
    35
100
AcDb2dPolyline
 66
     1
 10
0.0
 20
0.0
 30
0.0
  0
VERTEX
  5
17F
330
17E
100
AcDbEntity
  8
Layer 1
 62
   167
420
  2837403
370
    35
100
AcDbVertex
100
AcDb2dVertex
 10
919.80859375
 20
-85.0419921875
 30
0.0
  0
VERTEX
  5
180
330
17E
100
AcDbEntity
  8
Layer 1
 62
   167
420
  2837403
370
    35
100
AcDbVertex
100
AcDb2dVertex
 10
920.91015625
 20
-85.18701171875
 30
0.0
  0
VERTEX
  5
181
330
17E
100
AcDbEntity
  8
Layer 1
 62
   167
420
  2837403
370
    35
100
AcDbVertex
100
AcDb2dVertex
 10
921.935546875
 20
-85.61181640625
 30
0.0
  0
VERTEX
  5
182
330
17E
100
AcDbEntity
  8
Layer 1
 62
   167
420
  2837403
370
    35
100
AcDbVertex
100
AcDb2dVertex
 10
922.814453125
 20
-86.28759765625
 30
0.0
  0
VERTEX
  5
183
330
17E
100
AcDbEntity
  8
Layer 1
 62
   167
420
  2837403
370
    35
100
AcDbVertex
100
AcDb2dVertex
 10
923.490234375
 20
-87.16796875
 30
0.0
  0
VERTEX
  5
184
330
17E
100
AcDbEntity
  8
Layer 1
 62
   167
420
  2837403
370
    35
100
AcDbVertex
100
AcDb2dVertex
 10
923.916015625
 20
-88.193359375
 30
0.0
  0
VERTEX
  5
185
330
17E
100
AcDbEntity
  8
Layer 1
 62
   167
420
  2837403
370
    35
100
AcDbVertex
100
AcDb2dVertex
 10
924.060546875
 20
-89.2939453125
 30
0.0
  0
VERTEX
  5
186
330
17E
100
AcDbEntity
  8
Layer 1
 62
   167
420
  2837403
370
    35
100
AcDbVertex
100
AcDb2dVertex
 10
923.916015625
 20
-90.39453125
 30
0.0
  0
VERTEX
  5
187
330
17E
100
AcDbEntity
  8
Layer 1
 62
   167
420
  2837403
370
    35
100
AcDbVertex
100
AcDb2dVertex
 10
923.490234375
 20
-91.419921875
 30
0.0
  0
VERTEX
  5
188
330
17E
100
AcDbEntity
  8
Layer 1
 62
   167
420
  2837403
370
    35
100
AcDbVertex
100
AcDb2dVertex
 10
922.814453125
 20
-92.30078125
 30
0.0
  0
VERTEX
  5
189
330
17E
100
AcDbEntity
  8
Layer 1
 62
   167
420
  2837403
370
    35
100
AcDbVertex
100
AcDb2dVertex
 10
921.935546875
 20
-92.9765625
 30
0.0
  0
VERTEX
  5
18A
330
17E
100
AcDbEntity
  8
Layer 1
 62
   167
420
  2837403
370
    35
100
AcDbVertex
100
AcDb2dVertex
 10
920.91015625
 20
-93.40087890625
 30
0.0
  0
VERTEX
  5
18B
330
17E
100
AcDbEntity
  8
Layer 1
 62
   167
420
  2837403
370
    35
100
AcDbVertex
100
AcDb2dVertex
 10
919.80859375
 20
-93.5458984375
 30
0.0
  0
VERTEX
  5
18C
330
17E
100
AcDbEntity
  8
Layer 1
 62
   167
420
  2837403
370
    35
100
AcDbVertex
100
AcDb2dVertex
 10
918.708984375
 20
-93.40087890625
 30
0.0
  0
VERTEX
  5
18D
330
17E
100
AcDbEntity
  8
Layer 1
 62
   167
420
  2837403
370
    35
100
AcDbVertex
100
AcDb2dVertex
 10
917.68359375
 20
-92.9765625
 30
0.0
  0
VERTEX
  5
18E
330
17E
100
AcDbEntity
  8
Layer 1
 62
   167
420
  2837403
370
    35
100
AcDbVertex
100
AcDb2dVertex
 10
916.802734375
 20
-92.30078125
 30
0.0
  0
VERTEX
  5
18F
330
17E
100
AcDbEntity
  8
Layer 1
 62
   167
420
  2837403
370
    35
100
AcDbVertex
100
AcDb2dVertex
 10
916.126953125
 20
-91.419921875
 30
0.0
  0
VERTEX
  5
190
330
17E
100
AcDbEntity
  8
Layer 1
 62
   167
420
  2837403
370
    35
100
AcDbVertex
100
AcDb2dVertex
 10
915.701171875
 20
-90.39453125
 30
0.0
  0
VERTEX
  5
191
330
17E
100
AcDbEntity
  8
Layer 1
 62
   167
420
  2837403
370
    35
100
AcDbVertex
100
AcDb2dVertex
 10
915.556640625
 20
-89.2939453125
 30
0.0
  0
VERTEX
  5
192
330
17E
100
AcDbEntity
  8
Layer 1
 62
   167
420
  2837403
370
    35
100
AcDbVertex
100
AcDb2dVertex
 10
915.701171875
 20
-88.193359375
 30
0.0
  0
VERTEX
  5
193
330
17E
100
AcDbEntity
  8
Layer 1
 62
   167
420
  2837403
370
    35
100
AcDbVertex
100
AcDb2dVertex
 10
916.126953125
 20
-87.16796875
 30
0.0
  0
VERTEX
  5
194
330
17E
100
AcDbEntity
  8
Layer 1
 62
   167
420
  2837403
370
    35
100
AcDbVertex
100
AcDb2dVertex
 10
916.802734375
 20
-86.28759765625
 30
0.0
  0
VERTEX
  5
195
330
17E
100
AcDbEntity
  8
Layer 1
 62
   167
420
  2837403
370
    35
100
AcDbVertex
100
AcDb2dVertex
 10
917.68359375
 20
-85.61181640625
 30
0.0
  0
VERTEX
  5
196
330
17E
100
AcDbEntity
  8
Layer 1
 62
   167
420
  2837403
370
    35
100
AcDbVertex
100
AcDb2dVertex
 10
918.708984375
 20
-85.18701171875
 30
0.0
  0
VERTEX
  5
197
330
17E
100
AcDbEntity
  8
Layer 1
 62
   167
420
  2837403
370
    35
100
AcDbVertex
100
AcDb2dVertex
 10
919.80859375
 20
-85.0419921875
 30
0.0
  0
SEQEND
  5
198
330
17E
100
AcDbEntity
  8
Layer 1
370
    35
  0
POLYLINE
  5
199
330
1F
100
AcDbEntity
  8
Layer 1
 62
   167
420
  2837403
370
    35
100
AcDb2dPolyline
 66
     1
 10
0.0
 20
0.0
 30
0.0
  0
VERTEX
  5
19A
330
199
100
AcDbEntity
  8
Layer 1
 62
   167
420
  2837403
370
    35
100
AcDbVertex
100
AcDb2dVertex
 10
919.80859375
 20
-501.6689453125
 30
0.0
  0
VERTEX
  5
19B
330
199
100
AcDbEntity
  8
Layer 1
 62
   167
420
  2837403
370
    35
100
AcDbVertex
100
AcDb2dVertex
 10
920.91015625
 20
-501.8134765625
 30
0.0
  0
VERTEX
  5
19C
330
199
100
AcDbEntity
  8
Layer 1
 62
   167
420
  2837403
370
    35
100
AcDbVertex
100
AcDb2dVertex
 10
921.935546875
 20
-502.2373046875
 30
0.0
  0
VERTEX
  5
19D
330
199
100
AcDbEntity
  8
Layer 1
 62
   167
420
  2837403
370
    35
100
AcDbVertex
100
AcDb2dVertex
 10
922.814453125
 20
-502.9130859375
 30
0.0
  0
VERTEX
  5
19E
330
199
100
AcDbEntity
  8
Layer 1
 62
   167
420
  2837403
370
    35
100
AcDbVertex
100
AcDb2dVertex
 10
923.490234375
 20
-503.7939453125
 30
0.0
  0
VERTEX
  5
19F
330
199
100
AcDbEntity
  8
Layer 1
 62
   167
420
  2837403
370
    35
100
AcDbVertex
100
AcDb2dVertex
 10
923.916015625
 20
-504.8193359375
 30
0.0
  0
VERTEX
  5
1A0
330
199
100
AcDbEntity
  8
Layer 1
 62
   167
420
  2837403
370
    35
100
AcDbVertex
100
AcDb2dVertex
 10
924.060546875
 20
-505.9208984375
 30
0.0
  0
VERTEX
  5
1A1
330
199
100
AcDbEntity
  8
Layer 1
 62
   167
420
  2837403
370
    35
100
AcDbVertex
100
AcDb2dVertex
 10
923.916015625
 20
-507.0205078125
 30
0.0
  0
VERTEX
  5
1A2
330
199
100
AcDbEntity
  8
Layer 1
 62
   167
420
  2837403
370
    35
100
AcDbVertex
100
AcDb2dVertex
 10
923.490234375
 20
-508.0458984375
 30
0.0
  0
VERTEX
  5
1A3
330
199
100
AcDbEntity
  8
Layer 1
 62
   167
420
  2837403
370
    35
100
AcDbVertex
100
AcDb2dVertex
 10
922.814453125
 20
-508.9267578125
 30
0.0
  0
VERTEX
  5
1A4
330
199
100
AcDbEntity
  8
Layer 1
 62
   167
420
  2837403
370
    35
100
AcDbVertex
100
AcDb2dVertex
 10
921.935546875
 20
-509.6025390625
 30
0.0
  0
VERTEX
  5
1A5
330
199
100
AcDbEntity
  8
Layer 1
 62
   167
420
  2837403
370
    35
100
AcDbVertex
100
AcDb2dVertex
 10
920.91015625
 20
-510.0283203125
 30
0.0
  0
VERTEX
  5
1A6
330
199
100
AcDbEntity
  8
Layer 1
 62
   167
420
  2837403
370
    35
100
AcDbVertex
100
AcDb2dVertex
 10
919.80859375
 20
-510.1728515625
 30
0.0
  0
VERTEX
  5
1A7
330
199
100
AcDbEntity
  8
Layer 1
 62
   167
420
  2837403
370
    35
100
AcDbVertex
100
AcDb2dVertex
 10
918.708984375
 20
-510.0283203125
 30
0.0
  0
VERTEX
  5
1A8
330
199
100
AcDbEntity
  8
Layer 1
 62
   167
420
  2837403
370
    35
100
AcDbVertex
100
AcDb2dVertex
 10
917.68359375
 20
-509.6025390625
 30
0.0
  0
VERTEX
  5
1A9
330
199
100
AcDbEntity
  8
Layer 1
 62
   167
420
  2837403
370
    35
100
AcDbVertex
100
AcDb2dVertex
 10
916.802734375
 20
-508.9267578125
 30
0.0
  0
VERTEX
  5
1AA
330
199
100
AcDbEntity
  8
Layer 1
 62
   167
420
  2837403
370
    35
100
AcDbVertex
100
AcDb2dVertex
 10
916.126953125
 20
-508.0458984375
 30
0.0
  0
VERTEX
  5
1AB
330
199
100
AcDbEntity
  8
Layer 1
 62
   167
420
  2837403
370
    35
100
AcDbVertex
100
AcDb2dVertex
 10
915.701171875
 20
-507.0205078125
 30
0.0
  0
VERTEX
  5
1AC
330
199
100
AcDbEntity
  8
Layer 1
 62
   167
420
  2837403
370
    35
100
AcDbVertex
100
AcDb2dVertex
 10
915.556640625
 20
-505.9208984375
 30
0.0
  0
VERTEX
  5
1AD
330
199
100
AcDbEntity
  8
Layer 1
 62
   167
420
  2837403
370
    35
100
AcDbVertex
100
AcDb2dVertex
 10
915.701171875
 20
-504.8193359375
 30
0.0
  0
VERTEX
  5
1AE
330
199
100
AcDbEntity
  8
Layer 1
 62
   167
420
  2837403
370
    35
100
AcDbVertex
100
AcDb2dVertex
 10
916.126953125
 20
-503.7939453125
 30
0.0
  0
VERTEX
  5
1AF
330
199
100
AcDbEntity
  8
Layer 1
 62
   167
420
  2837403
370
    35
100
AcDbVertex
100
AcDb2dVertex
 10
916.802734375
 20
-502.9130859375
 30
0.0
  0
VERTEX
  5
1B0
330
199
100
AcDbEntity
  8
Layer 1
 62
   167
420
  2837403
370
    35
100
AcDbVertex
100
AcDb2dVertex
 10
917.68359375
 20
-502.2373046875
 30
0.0
  0
VERTEX
  5
1B1
330
199
100
AcDbEntity
  8
Layer 1
 62
   167
420
  2837403
370
    35
100
AcDbVertex
100
AcDb2dVertex
 10
918.708984375
 20
-501.8134765625
 30
0.0
  0
VERTEX
  5
1B2
330
199
100
AcDbEntity
  8
Layer 1
 62
   167
420
  2837403
370
    35
100
AcDbVertex
100
AcDb2dVertex
 10
919.80859375
 20
-501.6689453125
 30
0.0
  0
SEQEND
  5
1B3
330
199
100
AcDbEntity
  8
Layer 1
370
    35
  0
POLYLINE
  5
1B4
330
1F
100
AcDbEntity
  8
Layer 1
 62
   167
420
  2837403
370
    35
100
AcDb2dPolyline
 66
     1
 10
0.0
 20
0.0
 30
0.0
  0
VERTEX
  5
1B5
330
1B4
100
AcDbEntity
  8
Layer 1
 62
   167
420
  2837403
370
    35
100
AcDbVertex
100
AcDb2dVertex
 10
670.3603515625
 20
-510.2373046875
 30
0.0
  0
VERTEX
  5
1B6
330
1B4
100
AcDbEntity
  8
Layer 1
 62
   167
420
  2837403
370
    35
100
AcDbVertex
100
AcDb2dVertex
 10
669.259765625
 20
-510.0927734375
 30
0.0
  0
VERTEX
  5
1B7
330
1B4
100
AcDbEntity
  8
Layer 1
 62
   167
420
  2837403
370
    35
100
AcDbVertex
100
AcDb2dVertex
 10
668.234375
 20
-509.6689453125
 30
0.0
  0
VERTEX
  5
1B8
330
1B4
100
AcDbEntity
  8
Layer 1
 62
   167
420
  2837403
370
    35
100
AcDbVertex
100
AcDb2dVertex
 10
667.353515625
 20
-508.9931640625
 30
0.0
  0
VERTEX
  5
1B9
330
1B4
100
AcDbEntity
  8
Layer 1
 62
   167
420
  2837403
370
    35
100
AcDbVertex
100
AcDb2dVertex
 10
666.677734375
 20
-508.1123046875
 30
0.0
  0
VERTEX
  5
1BA
330
1B4
100
AcDbEntity
  8
Layer 1
 62
   167
420
  2837403
370
    35
100
AcDbVertex
100
AcDb2dVertex
 10
666.2529296875
 20
-507.0869140625
 30
0.0
  0
VERTEX
  5
1BB
330
1B4
100
AcDbEntity
  8
Layer 1
 62
   167
420
  2837403
370
    35
100
AcDbVertex
100
AcDb2dVertex
 10
666.1083984375
 20
-505.9853515625
 30
0.0
  0
VERTEX
  5
1BC
330
1B4
100
AcDbEntity
  8
Layer 1
 62
   167
420
  2837403
370
    35
100
AcDbVertex
100
AcDb2dVertex
 10
666.2529296875
 20
-504.8857421875
 30
0.0
  0
VERTEX
  5
1BD
330
1B4
100
AcDbEntity
  8
Layer 1
 62
   167
420
  2837403
370
    35
100
AcDbVertex
100
AcDb2dVertex
 10
666.677734375
 20
-503.8603515625
 30
0.0
  0
VERTEX
  5
1BE
330
1B4
100
AcDbEntity
  8
Layer 1
 62
   167
420
  2837403
370
    35
100
AcDbVertex
100
AcDb2dVertex
 10
667.353515625
 20
-502.9794921875
 30
0.0
  0
VERTEX
  5
1BF
330
1B4
100
AcDbEntity
  8
Layer 1
 62
   167
420
  2837403
370
    35
100
AcDbVertex
100
AcDb2dVertex
 10
668.234375
 20
-502.3037109375
 30
0.0
  0
VERTEX
  5
1C0
330
1B4
100
AcDbEntity
  8
Layer 1
 62
   167
420
  2837403
370
    35
100
AcDbVertex
100
AcDb2dVertex
 10
669.259765625
 20
-501.8779296875
 30
0.0
  0
VERTEX
  5
1C1
330
1B4
100
AcDbEntity
  8
Layer 1
 62
   167
420
  2837403
370
    35
100
AcDbVertex
100
AcDb2dVertex
 10
670.3603515625
 20
-501.7333984375
 30
0.0
  0
VERTEX
  5
1C2
330
1B4
100
AcDbEntity
  8
Layer 1
 62
   167
420
  2837403
370
    35
100
AcDbVertex
100
AcDb2dVertex
 10
671.4609375
 20
-501.8779296875
 30
0.0
  0
VERTEX
  5
1C3
330
1B4
100
AcDbEntity
  8
Layer 1
 62
   167
420
  2837403
370
    35
100
AcDbVertex
100
AcDb2dVertex
 10
672.486328125
 20
-502.3037109375
 30
0.0
  0
VERTEX
  5
1C4
330
1B4
100
AcDbEntity
  8
Layer 1
 62
   167
420
  2837403
370
    35
100
AcDbVertex
100
AcDb2dVertex
 10
673.3671875
 20
-502.9794921875
 30
0.0
  0
VERTEX
  5
1C5
330
1B4
100
AcDbEntity
  8
Layer 1
 62
   167
420
  2837403
370
    35
100
AcDbVertex
100
AcDb2dVertex
 10
674.04296875
 20
-503.8603515625
 30
0.0
  0
VERTEX
  5
1C6
330
1B4
100
AcDbEntity
  8
Layer 1
 62
   167
420
  2837403
370
    35
100
AcDbVertex
100
AcDb2dVertex
 10
674.466796875
 20
-504.8857421875
 30
0.0
  0
VERTEX
  5
1C7
330
1B4
100
AcDbEntity
  8
Layer 1
 62
   167
420
  2837403
370
    35
100
AcDbVertex
100
AcDb2dVertex
 10
674.6123046875
 20
-505.9853515625
 30
0.0
  0
VERTEX
  5
1C8
330
1B4
100
AcDbEntity
  8
Layer 1
 62
   167
420
  2837403
370
    35
100
AcDbVertex
100
AcDb2dVertex
 10
674.466796875
 20
-507.0869140625
 30
0.0
  0
VERTEX
  5
1C9
330
1B4
100
AcDbEntity
  8
Layer 1
 62
   167
420
  2837403
370
    35
100
AcDbVertex
100
AcDb2dVertex
 10
674.04296875
 20
-508.1123046875
 30
0.0
  0
VERTEX
  5
1CA
330
1B4
100
AcDbEntity
  8
Layer 1
 62
   167
420
  2837403
370
    35
100
AcDbVertex
100
AcDb2dVertex
 10
673.3671875
 20
-508.9931640625
 30
0.0
  0
VERTEX
  5
1CB
330
1B4
100
AcDbEntity
  8
Layer 1
 62
   167
420
  2837403
370
    35
100
AcDbVertex
100
AcDb2dVertex
 10
672.486328125
 20
-509.6689453125
 30
0.0
  0
VERTEX
  5
1CC
330
1B4
100
AcDbEntity
  8
Layer 1
 62
   167
420
  2837403
370
    35
100
AcDbVertex
100
AcDb2dVertex
 10
671.4609375
 20
-510.0927734375
 30
0.0
  0
VERTEX
  5
1CD
330
1B4
100
AcDbEntity
  8
Layer 1
 62
   167
420
  2837403
370
    35
100
AcDbVertex
100
AcDb2dVertex
 10
670.3603515625
 20
-510.2373046875
 30
0.0
  0
SEQEND
  5
1CE
330
1B4
100
AcDbEntity
  8
Layer 1
370
    35
  0
POLYLINE
  5
1CF
330
1F
100
AcDbEntity
  8
Layer 1
 62
   167
420
  2837403
370
    35
100
AcDb2dPolyline
 66
     1
 10
0.0
 20
0.0
 30
0.0
  0
VERTEX
  5
1D0
330
1CF
100
AcDbEntity
  8
Layer 1
 62
   167
420
  2837403
370
    35
100
AcDbVertex
100
AcDb2dVertex
 10
670.3603515625
 20
-93.5888671875
 30
0.0
  0
VERTEX
  5
1D1
330
1CF
100
AcDbEntity
  8
Layer 1
 62
   167
420
  2837403
370
    35
100
AcDbVertex
100
AcDb2dVertex
 10
669.76171875
 20
-93.54638671875
 30
0.0
  0
VERTEX
  5
1D2
330
1CF
100
AcDbEntity
  8
Layer 1
 62
   167
420
  2837403
370
    35
100
AcDbVertex
100
AcDb2dVertex
 10
668.6923828125
 20
-93.248046875
 30
0.0
  0
VERTEX
  5
1D3
330
1CF
100
AcDbEntity
  8
Layer 1
 62
   167
420
  2837403
370
    35
100
AcDbVertex
100
AcDb2dVertex
 10
667.736328125
 20
-92.68310546875
 30
0.0
  0
VERTEX
  5
1D4
330
1CF
100
AcDbEntity
  8
Layer 1
 62
   167
420
  2837403
370
    35
100
AcDbVertex
100
AcDb2dVertex
 10
666.9599609375
 20
-91.89013671875
 30
0.0
  0
VERTEX
  5
1D5
330
1CF
100
AcDbEntity
  8
Layer 1
 62
   167
420
  2837403
370
    35
100
AcDbVertex
100
AcDb2dVertex
 10
666.4150390625
 20
-90.9228515625
 30
0.0
  0
VERTEX
  5
1D6
330
1CF
100
AcDbEntity
  8
Layer 1
 62
   167
420
  2837403
370
    35
100
AcDbVertex
100
AcDb2dVertex
 10
666.138671875
 20
-89.84814453125
 30
0.0
  0
VERTEX
  5
1D7
330
1CF
100
AcDbEntity
  8
Layer 1
 62
   167
420
  2837403
370
    35
100
AcDbVertex
100
AcDb2dVertex
 10
666.150390625
 20
-88.73779296875
 30
0.0
  0
VERTEX
  5
1D8
330
1CF
100
AcDbEntity
  8
Layer 1
 62
   167
420
  2837403
370
    35
100
AcDbVertex
100
AcDb2dVertex
 10
666.44921875
 20
-87.6689453125
 30
0.0
  0
VERTEX
  5
1D9
330
1CF
100
AcDbEntity
  8
Layer 1
 62
   167
420
  2837403
370
    35
100
AcDbVertex
100
AcDb2dVertex
 10
667.013671875
 20
-86.71337890625
 30
0.0
  0
VERTEX
  5
1DA
330
1CF
100
AcDbEntity
  8
Layer 1
 62
   167
420
  2837403
370
    35
100
AcDbVertex
100
AcDb2dVertex
 10
667.806640625
 20
-85.93701171875
 30
0.0
  0
VERTEX
  5
1DB
330
1CF
100
AcDbEntity
  8
Layer 1
 62
   167
420
  2837403
370
    35
100
AcDbVertex
100
AcDb2dVertex
 10
668.7734375
 20
-85.3916015625
 30
0.0
  0
VERTEX
  5
1DC
330
1CF
100
AcDbEntity
  8
Layer 1
 62
   167
420
  2837403
370
    35
100
AcDbVertex
100
AcDb2dVertex
 10
669.849609375
 20
-85.11572265625
 30
0.0
  0
VERTEX
  5
1DD
330
1CF
100
AcDbEntity
  8
Layer 1
 62
   167
420
  2837403
370
    35
100
AcDbVertex
100
AcDb2dVertex
 10
670.958984375
 20
-85.12744140625
 30
0.0
  0
VERTEX
  5
1DE
330
1CF
100
AcDbEntity
  8
Layer 1
 62
   167
420
  2837403
370
    35
100
AcDbVertex
100
AcDb2dVertex
 10
672.0283203125
 20
-85.42578125
 30
0.0
  0
VERTEX
  5
1DF
330
1CF
100
AcDbEntity
  8
Layer 1
 62
   167
420
  2837403
370
    35
100
AcDbVertex
100
AcDb2dVertex
 10
672.9833984375
 20
-85.99072265625
 30
0.0
  0
VERTEX
  5
1E0
330
1CF
100
AcDbEntity
  8
Layer 1
 62
   167
420
  2837403
370
    35
100
AcDbVertex
100
AcDb2dVertex
 10
673.759765625
 20
-86.78369140625
 30
0.0
  0
VERTEX
  5
1E1
330
1CF
100
AcDbEntity
  8
Layer 1
 62
   167
420
  2837403
370
    35
100
AcDbVertex
100
AcDb2dVertex
 10
674.3046875
 20
-87.75048828125
 30
0.0
  0
VERTEX
  5
1E2
330
1CF
100
AcDbEntity
  8
Layer 1
 62
   167
420
  2837403
370
    35
100
AcDbVertex
100
AcDb2dVertex
 10
674.58203125
 20
-88.82568359375
 30
0.0
  0
VERTEX
  5
1E3
330
1CF
100
AcDbEntity
  8
Layer 1
 62
   167
420
  2837403
370
    35
100
AcDbVertex
100
AcDb2dVertex
 10
674.5703125
 20
-89.935546875
 30
0.0
  0
VERTEX
  5
1E4
330
1CF
100
AcDbEntity
  8
Layer 1
 62
   167
420
  2837403
370
    35
100
AcDbVertex
100
AcDb2dVertex
 10
674.271484375
 20
-91.0048828125
 30
0.0
  0
VERTEX
  5
1E5
330
1CF
100
AcDbEntity
  8
Layer 1
 62
   167
420
  2837403
370
    35
100
AcDbVertex
100
AcDb2dVertex
 10
673.70703125
 20
-91.96044921875
 30
0.0
  0
VERTEX
  5
1E6
330
1CF
100
AcDbEntity
  8
Layer 1
 62
   167
420
  2837403
370
    35
100
AcDbVertex
100
AcDb2dVertex
 10
672.9130859375
 20
-92.73681640625
 30
0.0
  0
VERTEX
  5
1E7
330
1CF
100
AcDbEntity
  8
Layer 1
 62
   167
420
  2837403
370
    35
100
AcDbVertex
100
AcDb2dVertex
 10
671.9462890625
 20
-93.28173828125
 30
0.0
  0
VERTEX
  5
1E8
330
1CF
100
AcDbEntity
  8
Layer 1
 62
   167
420
  2837403
370
    35
100
AcDbVertex
100
AcDb2dVertex
 10
670.87109375
 20
-93.55810546875
 30
0.0
  0
VERTEX
  5
1E9
330
1CF
100
AcDbEntity
  8
Layer 1
 62
   167
420
  2837403
370
    35
100
AcDbVertex
100
AcDb2dVertex
 10
670.3603515625
 20
-93.5888671875
 30
0.0
  0
SEQEND
  5
1EA
330
1CF
100
AcDbEntity
  8
Layer 1
370
    35
  0
POLYLINE
  5
1EB
330
1F
100
AcDbEntity
  8
Layer 1
 62
   167
420
  2837403
370
    35
100
AcDb2dPolyline
 66
     1
 10
0.0
 20
0.0
 30
0.0
  0
VERTEX
  5
1EC
330
1EB
100
AcDbEntity
  8
Layer 1
 62
   167
420
  2837403
370
    35
100
AcDbVertex
100
AcDb2dVertex
 10
166.732421875
 20
-269.94482421875
 30
0.0
  0
VERTEX
  5
1ED
330
1EB
100
AcDbEntity
  8
Layer 1
 62
   167
420
  2837403
370
    35
100
AcDbVertex
100
AcDb2dVertex
 10
166.7265625
 20
-94.23974609375
 30
0.0
  0
VERTEX
  5
1EE
330
1EB
100
AcDbEntity
  8
Layer 1
 62
   167
420
  2837403
370
    35
100
AcDbVertex
100
AcDb2dVertex
 10
161.0576171875
 20
-94.23974609375
 30
0.0
  0
VERTEX
  5
1EF
330
1EB
100
AcDbEntity
  8
Layer 1
 62
   167
420
  2837403
370
    35
100
AcDbVertex
100
AcDb2dVertex
 10
161.0576171875
 20
-97.9248046875
 30
0.0
  0
VERTEX
  5
1F0
330
1EB
100
AcDbEntity
  8
Layer 1
 62
   167
420
  2837403
370
    35
100
AcDbVertex
100
AcDb2dVertex
 10
154.8212890625
 20
-97.9248046875
 30
0.0
  0
VERTEX
  5
1F1
330
1EB
100
AcDbEntity
  8
Layer 1
 62
   167
420
  2837403
370
    35
100
AcDbVertex
100
AcDb2dVertex
 10
154.8212890625
 20
-94.23974609375
 30
0.0
  0
VERTEX
  5
1F2
330
1EB
100
AcDbEntity
  8
Layer 1
 62
   167
420
  2837403
370
    35
100
AcDbVertex
100
AcDb2dVertex
 10
146.3173828125
 20
-94.23974609375
 30
0.0
  0
VERTEX
  5
1F3
330
1EB
100
AcDbEntity
  8
Layer 1
 62
   167
420
  2837403
370
    35
100
AcDbVertex
100
AcDb2dVertex
 10
146.3173828125
 20
-85.73583984375
 30
0.0
  0
VERTEX
  5
1F4
330
1EB
100
AcDbEntity
  8
Layer 1
 62
   167
420
  2837403
370
    35
100
AcDbVertex
100
AcDb2dVertex
 10
154.8212890625
 20
-85.73583984375
 30
0.0
  0
VERTEX
  5
1F5
330
1EB
100
AcDbEntity
  8
Layer 1
 62
   167
420
  2837403
370
    35
100
AcDbVertex
100
AcDb2dVertex
 10
154.8212890625
 20
-82.05078125
 30
0.0
  0
VERTEX
  5
1F6
330
1EB
100
AcDbEntity
  8
Layer 1
 62
   167
420
  2837403
370
    35
100
AcDbVertex
100
AcDb2dVertex
 10
161.0576171875
 20
-82.05078125
 30
0.0
  0
VERTEX
  5
1F7
330
1EB
100
AcDbEntity
  8
Layer 1
 62
   167
420
  2837403
370
    35
100
AcDbVertex
100
AcDb2dVertex
 10
161.0576171875
 20
-85.73583984375
 30
0.0
  0
VERTEX
  5
1F8
330
1EB
100
AcDbEntity
  8
Layer 1
 62
   167
420
  2837403
370
    35
100
AcDbVertex
100
AcDb2dVertex
 10
166.732421875
 20
-85.69287109375
 30
0.0
  0
VERTEX
  5
1F9
330
1EB
100
AcDbEntity
  8
Layer 1
 62
   167
420
  2837403
370
    35
100
AcDbVertex
100
AcDb2dVertex
 10
166.732421875
 20
-57.3466796875
 30
0.0
  0
VERTEX
  5
1FA
330
1EB
100
AcDbEntity
  8
Layer 1
 62
   167
420
  2837403
370
    35
100
AcDbVertex
100
AcDb2dVertex
 10
25.0
 20
-57.3466796875
 30
0.0
  0
VERTEX
  5
1FB
330
1EB
100
AcDbEntity
  8
Layer 1
 62
   167
420
  2837403
370
    35
100
AcDbVertex
100
AcDb2dVertex
 10
25.0
 20
-85.69287109375
 30
0.0
  0
VERTEX
  5
1FC
330
1EB
100
AcDbEntity
  8
Layer 1
 62
   167
420
  2837403
370
    35
100
AcDbVertex
100
AcDb2dVertex
 10
30.6689453125
 20
-85.69287109375
 30
0.0
  0
VERTEX
  5
1FD
330
1EB
100
AcDbEntity
  8
Layer 1
 62
   167
420
  2837403
370
    35
100
AcDbVertex
100
AcDb2dVertex
 10
30.6689453125
 20
-82.0078125
 30
0.0
  0
VERTEX
  5
1FE
330
1EB
100
AcDbEntity
  8
Layer 1
 62
   167
420
  2837403
370
    35
100
AcDbVertex
100
AcDb2dVertex
 10
36.9052734375
 20
-82.0078125
 30
0.0
  0
VERTEX
  5
1FF
330
1EB
100
AcDbEntity
  8
Layer 1
 62
   167
420
  2837403
370
    35
100
AcDbVertex
100
AcDb2dVertex
 10
36.9052734375
 20
-85.69287109375
 30
0.0
  0
VERTEX
  5
200
330
1EB
100
AcDbEntity
  8
Layer 1
 62
   167
420
  2837403
370
    35
100
AcDbVertex
100
AcDb2dVertex
 10
45.4091796875
 20
-85.69287109375
 30
0.0
  0
VERTEX
  5
201
330
1EB
100
AcDbEntity
  8
Layer 1
 62
   167
420
  2837403
370
    35
100
AcDbVertex
100
AcDb2dVertex
 10
45.4091796875
 20
-94.19677734375
 30
0.0
  0
VERTEX
  5
202
330
1EB
100
AcDbEntity
  8
Layer 1
 62
   167
420
  2837403
370
    35
100
AcDbVertex
100
AcDb2dVertex
 10
36.9052734375
 20
-94.19677734375
 30
0.0
  0
VERTEX
  5
203
330
1EB
100
AcDbEntity
  8
Layer 1
 62
   167
420
  2837403
370
    35
100
AcDbVertex
100
AcDb2dVertex
 10
36.9052734375
 20
-97.8818359375
 30
0.0
  0
VERTEX
  5
204
330
1EB
100
AcDbEntity
  8
Layer 1
 62
   167
420
  2837403
370
    35
100
AcDbVertex
100
AcDb2dVertex
 10
30.6689453125
 20
-97.8818359375
 30
0.0
  0
VERTEX
  5
205
330
1EB
100
AcDbEntity
  8
Layer 1
 62
   167
420
  2837403
370
    35
100
AcDbVertex
100
AcDb2dVertex
 10
30.6689453125
 20
-94.19677734375
 30
0.0
  0
VERTEX
  5
206
330
1EB
100
AcDbEntity
  8
Layer 1
 62
   167
420
  2837403
370
    35
100
AcDbVertex
100
AcDb2dVertex
 10
25.0
 20
-94.19677734375
 30
0.0
  0
VERTEX
  5
207
330
1EB
100
AcDbEntity
  8
Layer 1
 62
   167
420
  2837403
370
    35
100
AcDbVertex
100
AcDb2dVertex
 10
25.0
 20
-269.94482421875
 30
0.0
  0
VERTEX
  5
208
330
1EB
100
AcDbEntity
  8
Layer 1
 62
   167
420
  2837403
370
    35
100
AcDbVertex
100
AcDb2dVertex
 10
16.49609375
 20
-269.94482421875
 30
0.0
  0
VERTEX
  5
209
330
1EB
100
AcDbEntity
  8
Layer 1
 62
   167
420
  2837403
370
    35
100
AcDbVertex
100
AcDb2dVertex
 10
16.49609375
 20
-326.828125
 30
0.0
  0
VERTEX
  5
20A
330
1EB
100
AcDbEntity
  8
Layer 1
 62
   167
420
  2837403
370
    35
100
AcDbVertex
100
AcDb2dVertex
 10
25.0
 20
-326.828125
 30
0.0
  0
VERTEX
  5
20B
330
1EB
100
AcDbEntity
  8
Layer 1
 62
   167
420
  2837403
370
    35
100
AcDbVertex
100
AcDb2dVertex
 10
25.0
 20
-502.41796875
 30
0.0
  0
VERTEX
  5
20C
330
1EB
100
AcDbEntity
  8
Layer 1
 62
   167
420
  2837403
370
    35
100
AcDbVertex
100
AcDb2dVertex
 10
30.6689453125
 20
-502.41796875
 30
0.0
  0
VERTEX
  5
20D
330
1EB
100
AcDbEntity
  8
Layer 1
 62
   167
420
  2837403
370
    35
100
AcDbVertex
100
AcDb2dVertex
 10
30.6689453125
 20
-498.734375
 30
0.0
  0
VERTEX
  5
20E
330
1EB
100
AcDbEntity
  8
Layer 1
 62
   167
420
  2837403
370
    35
100
AcDbVertex
100
AcDb2dVertex
 10
36.9052734375
 20
-498.734375
 30
0.0
  0
VERTEX
  5
20F
330
1EB
100
AcDbEntity
  8
Layer 1
 62
   167
420
  2837403
370
    35
100
AcDbVertex
100
AcDb2dVertex
 10
36.9052734375
 20
-502.41796875
 30
0.0
  0
VERTEX
  5
210
330
1EB
100
AcDbEntity
  8
Layer 1
 62
   167
420
  2837403
370
    35
100
AcDbVertex
100
AcDb2dVertex
 10
45.4091796875
 20
-502.41796875
 30
0.0
  0
VERTEX
  5
211
330
1EB
100
AcDbEntity
  8
Layer 1
 62
   167
420
  2837403
370
    35
100
AcDbVertex
100
AcDb2dVertex
 10
45.4091796875
 20
-510.921875
 30
0.0
  0
VERTEX
  5
212
330
1EB
100
AcDbEntity
  8
Layer 1
 62
   167
420
  2837403
370
    35
100
AcDbVertex
100
AcDb2dVertex
 10
36.9052734375
 20
-510.921875
 30
0.0
  0
VERTEX
  5
213
330
1EB
100
AcDbEntity
  8
Layer 1
 62
   167
420
  2837403
370
    35
100
AcDbVertex
100
AcDb2dVertex
 10
36.9052734375
 20
-514.607421875
 30
0.0
  0
VERTEX
  5
214
330
1EB
100
AcDbEntity
  8
Layer 1
 62
   167
420
  2837403
370
    35
100
AcDbVertex
100
AcDb2dVertex
 10
30.6689453125
 20
-514.607421875
 30
0.0
  0
VERTEX
  5
215
330
1EB
100
AcDbEntity
  8
Layer 1
 62
   167
420
  2837403
370
    35
100
AcDbVertex
100
AcDb2dVertex
 10
30.6689453125
 20
-510.921875
 30
0.0
  0
VERTEX
  5
216
330
1EB
100
AcDbEntity
  8
Layer 1
 62
   167
420
  2837403
370
    35
100
AcDbVertex
100
AcDb2dVertex
 10
25.0
 20
-510.888671875
 30
0.0
  0
VERTEX
  5
217
330
1EB
100
AcDbEntity
  8
Layer 1
 62
   167
420
  2837403
370
    35
100
AcDbVertex
100
AcDb2dVertex
 10
25.0
 20
-539.236328125
 30
0.0
  0
VERTEX
  5
218
330
1EB
100
AcDbEntity
  8
Layer 1
 62
   167
420
  2837403
370
    35
100
AcDbVertex
100
AcDb2dVertex
 10
166.732421875
 20
-539.236328125
 30
0.0
  0
VERTEX
  5
219
330
1EB
100
AcDbEntity
  8
Layer 1
 62
   167
420
  2837403
370
    35
100
AcDbVertex
100
AcDb2dVertex
 10
166.732421875
 20
-510.888671875
 30
0.0
  0
VERTEX
  5
21A
330
1EB
100
AcDbEntity
  8
Layer 1
 62
   167
420
  2837403
370
    35
100
AcDbVertex
100
AcDb2dVertex
 10
161.078125
 20
-510.900390625
 30
0.0
  0
VERTEX
  5
21B
330
1EB
100
AcDbEntity
  8
Layer 1
 62
   167
420
  2837403
370
    35
100
AcDbVertex
100
AcDb2dVertex
 10
161.078125
 20
-514.583984375
 30
0.0
  0
VERTEX
  5
21C
330
1EB
100
AcDbEntity
  8
Layer 1
 62
   167
420
  2837403
370
    35
100
AcDbVertex
100
AcDb2dVertex
 10
154.841796875
 20
-514.583984375
 30
0.0
  0
VERTEX
  5
21D
330
1EB
100
AcDbEntity
  8
Layer 1
 62
   167
420
  2837403
370
    35
100
AcDbVertex
100
AcDb2dVertex
 10
154.841796875
 20
-510.900390625
 30
0.0
  0
VERTEX
  5
21E
330
1EB
100
AcDbEntity
  8
Layer 1
 62
   167
420
  2837403
370
    35
100
AcDbVertex
100
AcDb2dVertex
 10
146.337890625
 20
-510.900390625
 30
0.0
  0
VERTEX
  5
21F
330
1EB
100
AcDbEntity
  8
Layer 1
 62
   167
420
  2837403
370
    35
100
AcDbVertex
100
AcDb2dVertex
 10
146.337890625
 20
-502.396484375
 30
0.0
  0
VERTEX
  5
220
330
1EB
100
AcDbEntity
  8
Layer 1
 62
   167
420
  2837403
370
    35
100
AcDbVertex
100
AcDb2dVertex
 10
154.841796875
 20
-502.396484375
 30
0.0
  0
VERTEX
  5
221
330
1EB
100
AcDbEntity
  8
Layer 1
 62
   167
420
  2837403
370
    35
100
AcDbVertex
100
AcDb2dVertex
 10
154.841796875
 20
-498.7109375
 30
0.0
  0
VERTEX
  5
222
330
1EB
100
AcDbEntity
  8
Layer 1
 62
   167
420
  2837403
370
    35
100
AcDbVertex
100
AcDb2dVertex
 10
161.078125
 20
-498.7109375
 30
0.0
  0
VERTEX
  5
223
330
1EB
100
AcDbEntity
  8
Layer 1
 62
   167
420
  2837403
370
    35
100
AcDbVertex
100
AcDb2dVertex
 10
161.078125
 20
-502.396484375
 30
0.0
  0
VERTEX
  5
224
330
1EB
100
AcDbEntity
  8
Layer 1
 62
   167
420
  2837403
370
    35
100
AcDbVertex
100
AcDb2dVertex
 10
166.7470703125
 20
-502.396484375
 30
0.0
  0
VERTEX
  5
225
330
1EB
100
AcDbEntity
  8
Layer 1
 62
   167
420
  2837403
370
    35
100
AcDbVertex
100
AcDb2dVertex
 10
166.732421875
 20
-326.63671875
 30
0.0
  0
VERTEX
  5
226
330
1EB
100
AcDbEntity
  8
Layer 1
 62
   167
420
  2837403
370
    35
100
AcDbVertex
100
AcDb2dVertex
 10
175.236328125
 20
-326.63671875
 30
0.0
  0
VERTEX
  5
227
330
1EB
100
AcDbEntity
  8
Layer 1
 62
   167
420
  2837403
370
    35
100
AcDbVertex
100
AcDb2dVertex
 10
175.236328125
 20
-270.06787109375
 30
0.0
  0
VERTEX
  5
228
330
1EB
100
AcDbEntity
  8
Layer 1
 62
   167
420
  2837403
370
    35
100
AcDbVertex
100
AcDb2dVertex
 10
166.732421875
 20
-270.06787109375
 30
0.0
  0
VERTEX
  5
229
330
1EB
100
AcDbEntity
  8
Layer 1
 62
   167
420
  2837403
370
    35
100
AcDbVertex
100
AcDb2dVertex
 10
166.732421875
 20
-269.94482421875
 30
0.0
  0
SEQEND
  5
22A
330
1EB
100
AcDbEntity
  8
Layer 1
370
    35
  0
ENDSEC
  0
SECTION
  2
OBJECTS
  0
DICTIONARY
  5
C
330
0
100
AcDbDictionary
281
     1
  3
ACAD_GROUP
350
D
  3
ACAD_LAYOUT
350
1A
  3
ACAD_MLINESTYLE
350
17
  3
ACAD_PLOTSETTINGS
350
19
  3
ACAD_PLOTSTYLENAME
350
E
  3
ACAD_TABLESTYLE
350
22B
  3
ACAD_VISUALSTYLE
350
2A
  0
DICTIONARY
  5
D
102
{ACAD_REACTORS
330
C
102
}
330
C
100
AcDbDictionary
281
     1
  0
DICTIONARY
  5
1A
102
{ACAD_REACTORS
330
C
102
}
330
C
100
AcDbDictionary
281
     1
  3
Layout1
350
1E
  3
Layout2
350
26
  3
Model
350
22
  0
DICTIONARY
  5
17
102
{ACAD_REACTORS
330
C
102
}
330
C
100
AcDbDictionary
281
     1
  3
Standard
350
18
  0
DICTIONARY
  5
19
102
{ACAD_REACTORS
330
C
102
}
330
C
100
AcDbDictionary
281
     1
  0
ACDBDICTIONARYWDFLT
  5
E
102
{ACAD_REACTORS
330
C
102
}
330
C
100
AcDbDictionary
281
     1
  3
Normal
350
F
100
AcDbDictionaryWithDefault
340
F
  0
DICTIONARY
  5
22B
102
{ACAD_REACTORS
330
C
102
}
330
C
100
AcDbDictionary
281
     1
  0
DICTIONARY
  5
2A
102
{ACAD_REACTORS
330
C
102
}
330
C
100
AcDbDictionary
281
     1
  3
2dWireframe
350
2F
  3
3D Hidden
350
31
  3
3dWireframe
350
30
  3
Basic
350
32
  3
Brighten
350
36
  3
ColorChange
350
3A
  3
Conceptual
350
34
  3
Dim
350
35
  3
Facepattern
350
39
  3
Flat
350
2B
  3
FlatWithEdges
350
2C
  3
Gouraud
350
2D
  3
GouraudWithEdges
350
2E
  3
Linepattern
350
38
  3
Realistic
350
33
  3
Thicken
350
37
  0
LAYOUT
  5
1E
102
{ACAD_REACTORS
330
1A
102
}
330
1A
100
AcDbPlotSettings
  1

  2
none_device
  4

  6

 40
0.0
 41
0.0
 42
0.0
 43
0.0
 44
0.0
 45
0.0
 46
0.0
 47
0.0
 48
0.0
 49
0.0
140
0.0
141
0.0
142
1.0
143
1.0
 70
   688
 72
     0
 73
     0
 74
     5
  7

 75
    16
 76
     0
 77
     2
 78
   300
147
1.0
148
0.0
149
0.0
100
AcDbLayout
  1
Layout1
 70
     1
 71
     1
 10
0.0
 20
0.0
 11
12.0
 21
9.0
 12
0.0
 22
0.0
 32
0.0
 14
1.000000000000000E+20
 24
1.000000000000000E+20
 34
1.000000000000000E+20
 15
-1.000000000000000E+20
 25
-1.000000000000000E+20
 35
-1.000000000000000E+20
146
0.0
 13
0.0
 23
0.0
 33
0.0
 16
1.0
 26
0.0
 36
0.0
 17
0.0
 27
1.0
 37
0.0
 76
     0
330
1B
  0
LAYOUT
  5
26
102
{ACAD_REACTORS
330
1A
102
}
330
1A
100
AcDbPlotSettings
  1

  2
none_device
  4

  6

 40
0.0
 41
0.0
 42
0.0
 43
0.0
 44
0.0
 45
0.0
 46
0.0
 47
0.0
 48
0.0
 49
0.0
140
0.0
141
0.0
142
1.0
143
1.0
 70
   688
 72
     0
 73
     0
 74
     5
  7

 75
    16
 76
     0
 77
     2
 78
   300
147
1.0
148
0.0
149
0.0
100
AcDbLayout
  1
Layout2
 70
     1
 71
     2
 10
0.0
 20
0.0
 11
0.0
 21
0.0
 12
0.0
 22
0.0
 32
0.0
 14
0.0
 24
0.0
 34
0.0
 15
0.0
 25
0.0
 35
0.0
146
0.0
 13
0.0
 23
0.0
 33
0.0
 16
1.0
 26
0.0
 36
0.0
 17
0.0
 27
1.0
 37
0.0
 76
     0
330
23
  0
LAYOUT
  5
22
102
{ACAD_REACTORS
330
1A
102
}
330
1A
100
AcDbPlotSettings
  1

  2
none_device
  4

  6

 40
0.0
 41
0.0
 42
0.0
 43
0.0
 44
0.0
 45
0.0
 46
0.0
 47
0.0
 48
0.0
 49
0.0
140
0.0
141
0.0
142
1.0
143
1.0
 70
  1712
 72
     0
 73
     0
 74
     0
  7

 75
     0
 76
     0
 77
     2
 78
   300
147
1.0
148
0.0
149
0.0
100
AcDbLayout
  1
Model
 70
     1
 71
     0
 10
0.0
 20
0.0
 11
12.0
 21
9.0
 12
0.0
 22
0.0
 32
0.0
 14
1.000000000000000E+20
 24
1.000000000000000E+20
 34
1.000000000000000E+20
 15
-1.000000000000000E+20
 25
-1.000000000000000E+20
 35
-1.000000000000000E+20
146
0.0
 13
0.0
 23
0.0
 33
0.0
 16
1.0
 26
0.0
 36
0.0
 17
0.0
 27
1.0
 37
0.0
 76
     0
330
1F
331
29
  0
MLINESTYLE
  5
18
102
{ACAD_REACTORS
330
17
102
}
330
17
100
AcDbMlineStyle
  2
Standard
 70
     0
  3

 62
   256
 51
90.0
 52
90.0
 71
     2
 49
0.5
 62
   256
  6
BYLAYER
 49
-0.5
 62
   256
  6
BYLAYER
  0
ACDBPLACEHOLDER
  5
F
102
{ACAD_REACTORS
330
E
102
}
330
E
  0
VISUALSTYLE
  5
2F
102
{ACAD_REACTORS
330
2A
102
}
330
2A
100
AcDbVisualStyle
  2
2dWireframe
 70
     4
 71
     0
 72
     2
 73
     0
 90
        0
 40
-0.6
 41
-30.0
 62
     5
 63
     7
421
 16777215
 74
     1
 91
        4
 64
     7
 65
   257
 75
     1
175
     1
 42
1.0
 92
        0
 66
   257
 43
1.0
 76
     1
 77
     6
 78
     2
 67
     7
 79
     5
170
     0
171
     0
290
     0
174
     0
 93
        1
 44
0.0
173
     0
291
     0
 45
0.0
1001
ACAD
1000
AcDbSavedByObjectVersion
1070
     0
  0
VISUALSTYLE
  5
31
102
{ACAD_REACTORS
330
2A
102
}
330
2A
100
AcDbVisualStyle
  2
3D Hidden
 70
     6
 71
     1
 72
     2
 73
     2
 90
        0
 40
-0.6
 41
-30.0
 62
     5
 63
     7
421
 16777215
 74
     2
 91
        2
 64
     7
 65
   257
 75
     2
175
     1
 42
40.0
 92
        0
 66
   257
 43
1.0
 76
     1
 77
     6
 78
     2
 67
     7
 79
     3
170
     0
171
     0
290
     0
174
     0
 93
        1
 44
0.0
173
     0
291
     0
 45
0.0
1001
ACAD
1000
AcDbSavedByObjectVersion
1070
     0
  0
VISUALSTYLE
  5
30
102
{ACAD_REACTORS
330
2A
102
}
330
2A
100
AcDbVisualStyle
  2
3dWireframe
 70
     5
 71
     0
 72
     2
 73
     0
 90
        0
 40
-0.6
 41
-30.0
 62
     5
 63
     7
421
 16777215
 74
     1
 91
        4
 64
     7
 65
   257
 75
     1
175
     1
 42
1.0
 92
        0
 66
   257
 43
1.0
 76
     1
 77
     6
 78
     2
 67
     7
 79
     5
170
     0
171
     0
290
     0
174
     0
 93
        1
 44
0.0
173
     0
291
     0
 45
0.0
1001
ACAD
1000
AcDbSavedByObjectVersion
1070
     0
  0
VISUALSTYLE
  5
32
102
{ACAD_REACTORS
330
2A
102
}
330
2A
100
AcDbVisualStyle
  2
Basic
 70
     7
 71
     1
 72
     0
 73
     1
 90
        0
 40
-0.6
 41
-30.0
 62
     5
 63
     7
421
 16777215
 74
     0
 91
        4
 64
     7
 65
   257
 75
     1
175
     1
 42
1.0
 92
        8
 66
     7
 43
1.0
 76
     1
 77
     6
 78
     2
 67
     7
 79
     5
170
     0
171
     0
290
     0
174
     0
 93
        1
 44
0.0
173
     0
291
     1
 45
0.0
1001
ACAD
1000
AcDbSavedByObjectVersion
1070
     0
  0
VISUALSTYLE
  5
36
102
{ACAD_REACTORS
330
2A
102
}
330
2A
100
AcDbVisualStyle
  2
Brighten
 70
    12
 71
     2
 72
     2
 73
     0
 90
        0
 40
-0.6
 41
-30.0
 62
     5
 63
     7
421
 16777215
 74
     1
 91
        4
 64
     7
 65
   257
 75
     1
175
     1
 42
1.0
 92
        8
 66
     7
 43
1.0
 76
     1
 77
     6
 78
     2
 67
     7
 79
     5
170
     0
171
     0
290
     0
174
     0
 93
        1
 44
50.0
173
     0
291
     1
 45
0.0
1001
ACAD
1000
AcDbSavedByObjectVersion
1070
     0
  0
VISUALSTYLE
  5
3A
102
{ACAD_REACTORS
330
2A
102
}
330
2A
100
AcDbVisualStyle
  2
ColorChange
 70
    16
 71
     2
 72
     2
 73
     3
 90
        0
 40
-0.6
 41
-30.0
 62
     5
 63
     8
421
  8421504
 74
     1
 91
        4
 64
     7
 65
   257
 75
     1
175
     1
 42
1.0
 92
        8
 66
     8
424
  8421504
 43
1.0
 76
     1
 77
     6
 78
     2
 67
     7
 79
     5
170
     0
171
     0
290
     0
174
     0
 93
        1
 44
0.0
173
     0
291
     1
 45
0.0
1001
ACAD
1000
AcDbSavedByObjectVersion
1070
     0
  0
VISUALSTYLE
  5
34
102
{ACAD_REACTORS
330
2A
102
}
330
2A
100
AcDbVisualStyle
  2
Conceptual
 70
     9
 71
     3
 72
     2
 73
     0
 90
        0
 40
-0.6
 41
-30.0
 62
     5
 63
     7
421
 16777215
 74
     2
 91
        2
 64
     7
 65
   257
 75
     1
175
     1
 42
40.0
 92
        8
 66
     7
 43
1.0
 76
     1
 77
     6
 78
     2
 67
     7
 79
     3
170
     0
171
     0
290
     0
174
     0
 93
        1
 44
0.0
173
     0
291
     0
 45
0.0
1001
ACAD
1000
AcDbSavedByObjectVersion
1070
     0
  0
VISUALSTYLE
  5
35
102
{ACAD_REACTORS
330
2A
102
}
330
2A
100
AcDbVisualStyle
  2
Dim
 70
    11
 71
     2
 72
     2
 73
     0
 90
        0
 40
-0.6
 41
-30.0
 62
     5
 63
     7
421
 16777215
 74
     1
 91
        4
 64
     7
 65
   257
 75
     1
175
     1
 42
1.0
 92
        8
 66
     7
 43
1.0
 76
     1
 77
     6
 78
     2
 67
     7
 79
     5
170
     0
171
     0
290
     0
174
     0
 93
        1
 44
-50.0
173
     0
291
     1
 45
0.0
1001
ACAD
1000
AcDbSavedByObjectVersion
1070
     0
  0
VISUALSTYLE
  5
39
102
{ACAD_REACTORS
330
2A
102
}
330
2A
100
AcDbVisualStyle
  2
Facepattern
 70
    15
 71
     2
 72
     2
 73
     0
 90
        0
 40
-0.6
 41
-30.0
 62
     5
 63
     7
421
 16777215
 74
     1
 91
        4
 64
     7
 65
   257
 75
     1
175
     1
 42
1.0
 92
        8
 66
     7
 43
1.0
 76
     1
 77
     6
 78
     2
 67
     7
 79
     5
170
     0
171
     0
290
     0
174
     0
 93
        1
 44
0.0
173
     0
291
     1
 45
0.0
1001
ACAD
1000
AcDbSavedByObjectVersion
1070
     0
  0
VISUALSTYLE
  5
2B
102
{ACAD_REACTORS
330
2A
102
}
330
2A
100
AcDbVisualStyle
  2
Flat
 70
     0
 71
     2
 72
     1
 73
     1
 90
        2
 40
-0.6
 41
30.0
 62
     5
 63
     7
421
 16777215
 74
     0
 91
        4
 64
     7
 65
   257
 75
     1
175
     1
 42
1.0
 92
        8
 66
     7
 43
1.0
 76
     1
 77
     6
 78
     2
 67
     7
 79
     5
170
     0
171
     0
290
     0
174
     0
 93
       13
 44
0.0
173
     0
291
     1
 45
0.0
1001
ACAD
1000
AcDbSavedByObjectVersion
1070
     0
  0
VISUALSTYLE
  5
2C
102
{ACAD_REACTORS
330
2A
102
}
330
2A
100
AcDbVisualStyle
  2
FlatWithEdges
 70
     1
 71
     2
 72
     1
 73
     1
 90
        2
 40
-0.6
 41
30.0
 62
     5
 63
     7
421
 16777215
 74
     1
 91
        4
 64
     7
 65
   257
 75
     1
175
     1
 42
1.0
 92
        0
 66
   257
 43
1.0
 76
     1
 77
     6
 78
     2
 67
     7
 79
     5
170
     0
171
     0
290
     0
174
     0
 93
       13
 44
0.0
173
     0
291
     1
 45
0.0
1001
ACAD
1000
AcDbSavedByObjectVersion
1070
     0
  0
VISUALSTYLE
  5
2D
102
{ACAD_REACTORS
330
2A
102
}
330
2A
100
AcDbVisualStyle
  2
Gouraud
 70
     2
 71
     2
 72
     2
 73
     1
 90
        2
 40
-0.6
 41
30.0
 62
     5
 63
     7
421
 16777215
 74
     0
 91
        4
 64
     7
 65
   257
 75
     1
175
     1
 42
1.0
 92
        0
 66
     7
 43
1.0
 76
     1
 77
     6
 78
     2
 67
     7
 79
     5
170
     0
171
     0
290
     0
174
     0
 93
       13
 44
0.0
173
     0
291
     1
 45
0.0
1001
ACAD
1000
AcDbSavedByObjectVersion
1070
     0
  0
VISUALSTYLE
  5
2E
102
{ACAD_REACTORS
330
2A
102
}
330
2A
100
AcDbVisualStyle
  2
GouraudWithEdges
 70
     3
 71
     2
 72
     2
 73
     1
 90
        2
 40
-0.6
 41
30.0
 62
     5
 63
     7
421
 16777215
 74
     1
 91
        4
 64
     7
 65
   257
 75
     1
175
     1
 42
1.0
 92
        0
 66
   257
 43
1.0
 76
     1
 77
     6
 78
     2
 67
     7
 79
     5
170
     0
171
     0
290
     0
174
     0
 93
       13
 44
0.0
173
     0
291
     1
 45
0.0
1001
ACAD
1000
AcDbSavedByObjectVersion
1070
     0
  0
VISUALSTYLE
  5
38
102
{ACAD_REACTORS
330
2A
102
}
330
2A
100
AcDbVisualStyle
  2
Linepattern
 70
    14
 71
     2
 72
     2
 73
     0
 90
        0
 40
-0.6
 41
-30.0
 62
     5
 63
     7
421
 16777215
 74
     1
 91
        4
 64
     7
 65
   257
 75
     7
175
     7
 42
1.0
 92
        8
 66
     7
 43
1.0
 76
     1
 77
     6
 78
     2
 67
     7
 79
     5
170
     0
171
     0
290
     0
174
     0
 93
        1
 44
0.0
173
     0
291
     1
 45
0.0
1001
ACAD
1000
AcDbSavedByObjectVersion
1070
     0
  0
VISUALSTYLE
  5
33
102
{ACAD_REACTORS
330
2A
102
}
330
2A
100
AcDbVisualStyle
  2
Realistic
 70
     8
 71
     2
 72
     2
 73
     0
 90
        0
 40
-0.6
 41
-30.0
 62
     5
 63
     7
421
 16777215
 74
     1
 91
        0
 64
     7
 65
   257
 75
     1
175
     1
 42
1.0
 92
        8
 66
     8
424
  7895160
 43
1.0
 76
     1
 77
     6
 78
     2
 67
     7
 79
     5
170
     0
171
     0
290
     0
174
     0
 93
       13
 44
0.0
173
     0
291
     0
 45
0.0
1001
ACAD
1000
AcDbSavedByObjectVersion
1070
     0
  0
VISUALSTYLE
  5
37
102
{ACAD_REACTORS
330
2A
102
}
330
2A
100
AcDbVisualStyle
  2
Thicken
 70
    13
 71
     2
 72
     2
 73
     0
 90
        0
 40
-0.6
 41
-30.0
 62
     5
 63
     7
421
 16777215
 74
     1
 91
        4
 64
     7
 65
   257
 75
     1
175
     1
 42
1.0
 92
       12
 66
     7
 43
1.0
 76
     1
 77
     6
 78
     2
 67
     7
 79
     5
170
     0
171
     0
290
     0
174
     0
 93
        1
 44
0.0
173
     0
291
     1
 45
0.0
1001
ACAD
1000
AcDbSavedByObjectVersion
1070
     0
  0
ENDSEC
  0
EOF
