<?xml version="1.0" encoding="utf-8"?>
<!-- Generator: Adobe Illustrator 16.0.3, SVG Export Plug-In . SVG Version: 6.00 Build 0)  -->
<!DOCTYPE svg PUBLIC "-//W3C//DTD SVG 1.1//EN" "http://www.w3.org/Graphics/SVG/1.1/DTD/svg11.dtd">
<svg version="1.1" id="Layer_1" xmlns="http://www.w3.org/2000/svg" xmlns:xlink="http://www.w3.org/1999/xlink" x="0px" y="0px"
	 width="980.562px" height="595.28px" viewBox="0 0 980.562 595.28" enable-background="new 0 0 980.562 595.28"
	 xml:space="preserve">
<path id="face0-cut" fill="none" stroke="#2B4B9B" stroke-miterlimit="10" d="M339.732,539.236v-28.412h-5.241v3.684h-6.236v-3.684
	h-8.504v-8.504h8.504v-3.686h6.236v3.686h5.241V326.637h8.504v-56.692h-8.504l0.022-175.793h-5.67v3.685h-6.236v-3.685h-8.504
	v-8.504h8.504v-3.685h6.236v3.685l5.647,0.045V57.347H198v28.346l5.669,0.028v-3.685h6.236v3.685h8.504v8.504h-8.504v3.685h-6.236
	v-3.685H198v175.72h-8.504v56.692H198v175.748h5.669v-3.684h6.236v3.684h8.504v8.504h-8.504v3.686h-6.236v-3.686H198v28.348H339.732
	 M279.871,194.795l-11.005,1.449l-11.005-1.449l-10.255-4.248l-8.807-6.757l-6.757-8.806l-4.248-10.255l-1.448-11.005l1.448-11.005
	l4.248-10.255l6.757-8.806l8.807-6.757l10.255-4.248l11.005-1.449l11.005,1.449l10.255,4.248l8.807,6.757l6.757,8.806l4.248,10.255
	l1.448,11.005l-1.448,11.005l-4.248,10.255l-6.757,8.806l-8.807,6.757L279.871,194.795 M279.871,291.173l-11.005,1.449
	l-11.005-1.449l-10.255-4.248l-8.807-6.757l-6.757-8.806l-4.248-10.255l-1.448-11.005l1.448-11.005l4.248-10.255l6.757-8.806
	l8.807-6.757l10.255-4.248l11.005-1.449l11.005,1.449l10.255,4.248l8.807,6.757l6.757,8.806l4.248,10.255l1.448,11.005
	l-1.448,11.005l-4.248,10.255l-6.757,8.806l-8.807,6.757L279.871,291.173 M279.871,387.551L268.866,389l-11.005-1.449l-10.255-4.248
	l-8.807-6.758l-6.757-8.805l-4.248-10.256l-1.448-11.004l1.448-11.006l4.248-10.254l6.757-8.807l8.807-6.758l10.255-4.246
	l11.005-1.449l11.005,1.449l10.255,4.246l8.807,6.758l6.757,8.807l4.248,10.254l1.448,11.006l-1.448,11.004l-4.248,10.256
	l-6.757,8.805l-8.807,6.758L279.871,387.551 M279.871,483.928l-11.005,1.449l-11.005-1.449l-10.255-4.246l-8.807-6.758l-6.757-8.807
	l-4.248-10.254l-1.448-11.006l1.448-11.004l4.248-10.256l6.757-8.807l8.807-6.756l10.255-4.248l11.005-1.449l11.005,1.449
	l10.255,4.248l8.807,6.756l6.757,8.807l4.248,10.256l1.448,11.004l-1.448,11.006l-4.248,10.254l-6.757,8.807l-8.807,6.758
	L279.871,483.928"/>
<path id="face0-cut_1_" fill="none" stroke="#2B4B9B" stroke-linecap="round" stroke-linejoin="round" d="M640.96,539.236V57.347
	H366v481.889H640.96 M623.952,326.637v-56.691h8.504v56.691H623.952 M374.504,269.945h8.504v56.883h-8.504V269.945 M628.204,85.693
	l1.102,0.145l1.025,0.425l0.879,0.676l0.676,0.88l0.426,1.025l0.145,1.101l-0.145,1.101l-0.426,1.025l-0.676,0.881l-0.879,0.676
	l-1.025,0.424l-1.102,0.145l-1.1-0.145l-1.025-0.424l-0.881-0.676l-0.676-0.881l-0.426-1.025l-0.145-1.101l0.145-1.101l0.426-1.025
	l0.676-0.88l0.881-0.676l1.025-0.425L628.204,85.693 M628.204,502.32l1.102,0.145l1.025,0.424l0.879,0.676l0.676,0.881l0.426,1.025
	l0.145,1.102l-0.145,1.1l-0.426,1.025l-0.676,0.881l-0.879,0.676l-1.025,0.426l-1.102,0.145l-1.1-0.145l-1.025-0.426l-0.881-0.676
	l-0.676-0.881l-0.426-1.025l-0.145-1.1l0.145-1.102l0.426-1.025l0.676-0.881l0.881-0.676l1.025-0.424L628.204,502.32
	 M378.756,510.889l-1.101-0.145l-1.025-0.424l-0.881-0.676l-0.676-0.881l-0.425-1.025l-0.145-1.102l0.145-1.1l0.425-1.025
	l0.676-0.881l0.881-0.676l1.025-0.426l1.101-0.145l1.101,0.145l1.025,0.426l0.881,0.676l0.676,0.881l0.424,1.025l0.146,1.1
	l-0.146,1.102l-0.424,1.025l-0.676,0.881l-0.881,0.676l-1.025,0.424L378.756,510.889 M378.756,94.24l-0.599-0.042l-1.069-0.298
	l-0.956-0.565l-0.776-0.793l-0.545-0.967l-0.276-1.075l0.012-1.11l0.299-1.069l0.564-0.956l0.793-0.776l0.967-0.545l1.076-0.276
	l1.109,0.012l1.069,0.298l0.955,0.565l0.776,0.793l0.545,0.967l0.277,1.075l-0.012,1.11l-0.299,1.069l-0.564,0.956l-0.794,0.776
	l-0.967,0.545l-1.075,0.276L378.756,94.24"/>
<path id="face0-cut_2_" fill="none" stroke="#2B4B9B" stroke-linecap="round" stroke-linejoin="round" d="M932.564,538.585V56.696
	h-274.96v481.889H932.564 M915.557,325.985v-56.691h8.504v56.691H915.557 M666.108,269.294h8.504v56.883h-8.504V269.294
	 M919.809,85.042l1.102,0.145l1.025,0.425l0.879,0.676l0.676,0.88l0.426,1.025l0.145,1.101l-0.145,1.101l-0.426,1.025l-0.676,0.881
	l-0.879,0.676l-1.025,0.424l-1.102,0.145l-1.1-0.145l-1.025-0.424l-0.881-0.676l-0.676-0.881l-0.426-1.025l-0.145-1.101l0.145-1.101
	l0.426-1.025l0.676-0.88l0.881-0.676l1.025-0.425L919.809,85.042 M919.809,501.669l1.102,0.145l1.025,0.424l0.879,0.676l0.676,0.881
	l0.426,1.025l0.145,1.102l-0.145,1.1l-0.426,1.025l-0.676,0.881l-0.879,0.676l-1.025,0.426l-1.102,0.145l-1.1-0.145l-1.025-0.426
	l-0.881-0.676l-0.676-0.881l-0.426-1.025l-0.145-1.1l0.145-1.102l0.426-1.025l0.676-0.881l0.881-0.676l1.025-0.424L919.809,501.669
	 M670.36,510.237l-1.101-0.145l-1.025-0.424l-0.881-0.676l-0.676-0.881l-0.425-1.025l-0.145-1.102l0.145-1.1l0.425-1.025
	l0.676-0.881l0.881-0.676l1.025-0.426l1.101-0.145l1.101,0.145l1.025,0.426l0.881,0.676l0.676,0.881l0.424,1.025l0.146,1.1
	l-0.146,1.102l-0.424,1.025l-0.676,0.881l-0.881,0.676l-1.025,0.424L670.36,510.237 M670.36,93.589l-0.599-0.042l-1.069-0.298
	l-0.956-0.565l-0.776-0.793l-0.545-0.967l-0.276-1.075l0.012-1.11l0.299-1.069l0.564-0.956l0.793-0.776l0.967-0.545l1.076-0.276
	l1.109,0.012l1.069,0.298l0.955,0.565l0.776,0.793l0.545,0.967l0.277,1.075l-0.012,1.11l-0.299,1.069l-0.564,0.956l-0.794,0.776
	l-0.967,0.545l-1.075,0.276L670.36,93.589"/>
<polygon fill="none" stroke="#2B4B9B" stroke-miterlimit="10" points="166.732,269.945 166.727,94.24 161.058,94.24 161.058,97.925 
	154.821,97.925 154.821,94.24 146.317,94.24 146.317,85.736 154.821,85.736 154.821,82.051 161.058,82.051 161.058,85.736 
	166.732,85.693 166.732,57.347 25,57.347 25,85.693 30.669,85.693 30.669,82.008 36.905,82.008 36.905,85.693 45.409,85.693 
	45.409,94.197 36.905,94.197 36.905,97.882 30.669,97.882 30.669,94.197 25,94.197 25,269.945 16.496,269.945 16.496,326.828 
	25,326.828 25,502.418 30.669,502.418 30.669,498.734 36.905,498.734 36.905,502.418 45.409,502.418 45.409,510.922 36.905,510.922 
	36.905,514.607 30.669,514.607 30.669,510.922 25,510.889 25,539.236 166.732,539.236 166.732,510.889 161.078,510.9 
	161.078,514.584 154.842,514.584 154.842,510.9 146.338,510.9 146.338,502.396 154.842,502.396 154.842,498.711 161.078,498.711 
	161.078,502.396 166.747,502.396 166.732,326.637 175.236,326.637 175.236,270.068 166.732,270.068 "/>
</svg>
