<svg xmlns="http://www.w3.org/2000/svg" width="549.518" height="475.896">
  <path fill="#ccc" d="M412.139 0h-274.76l-137.379 237.948 137.379 237.947 274.76-.001 137.379-237.947-137.379-237.947zm-307.737 74.128l7.364 4.252-56.692 98.195-7.365-4.252 56.693-98.195zm-74.41 128.883c1.174-2.033 3.774-2.73 5.808-1.557s2.731 3.775 1.557 5.809-3.775 2.73-5.809 1.557-2.73-3.776-1.556-5.809zm5.809 71.432c-2.033 1.174-4.633.479-5.809-1.557-1.174-2.034-.475-4.633 1.559-5.807 2.033-1.175 4.633-.479 5.807 1.555 1.175 2.035.476 4.636-1.557 5.809zm68.601 127.325l-56.693-98.196 7.364-4.251 56.694 98.194-7.365 4.253zm17.716-358.324c1.175-2.035 3.774-2.73 5.808-1.557s2.73 3.773 1.557 5.809c-1.174 2.033-3.775 2.73-5.809 1.557s-2.731-3.775-1.556-5.809zm5.809 390.566c-2.033 1.175-4.634.478-5.808-1.556-1.174-2.034-.477-4.634 1.557-5.808s4.633-.479 5.809 1.556c1.173 2.034.475 4.634-1.558 5.808zm90.139-425.504h113.386v8.504h-113.386v-8.504zm-35.434 0c2.349 0 4.252 1.904 4.252 4.252s-1.903 4.252-4.252 4.252-4.252-1.904-4.252-4.252 1.903-4.252 4.252-4.252zm.001 458.886c-2.348 0-4.248-1.905-4.248-4.253-.002-2.349 1.9-4.252 4.248-4.252 2.35-.001 4.254 1.905 4.254 4.253s-1.903 4.251-4.254 4.252zm35.433 0v-8.504l113.385-.002.002 8.505-113.387.001zm148.818-458.886c2.349 0 4.252 1.904 4.252 4.252s-1.903 4.252-4.252 4.252-4.252-1.904-4.252-4.252 1.903-4.252 4.252-4.252zm.003 458.886c-2.35-.001-4.252-1.904-4.252-4.253 0-2.348 1.902-4.251 4.252-4.253 2.348.001 4.251 1.906 4.251 4.254.001 2.347-1.904 4.252-4.251 4.252zm54.702-425.506c2.033-1.174 4.634-.475 5.808 1.559s.478 4.631-1.556 5.805c-2.032 1.174-4.634.479-5.808-1.555-1.174-2.036-.476-4.637 1.556-5.809zm5.809 390.564c-1.175 2.037-3.773 2.731-5.807 1.558s-2.73-3.773-1.557-5.81c1.174-2.033 3.775-2.73 5.809-1.557s2.731 3.777 1.555 5.809zm17.717-358.321l56.691 98.196-7.363 4.25-56.694-98.193 7.366-4.253zm-.001 327.638l-7.362-4.252 56.691-98.195 7.365 4.253-56.694 98.194zm68.601-200.315c2.032-1.174 4.635-.479 5.807 1.557 1.176 2.037.479 4.634-1.555 5.808s-4.633.478-5.81-1.556c-1.174-2.033-.475-4.636 1.558-5.809zm.002 72.988c-2.031-1.174-2.73-3.775-1.557-5.809 1.176-2.032 3.777-2.729 5.809-1.556 2.033 1.174 2.729 3.776 1.556 5.808-1.174 2.034-3.775 2.731-5.808 1.557z"/>
</svg>
