<svg xmlns="http://www.w3.org/2000/svg" width="549.518" height="475.896">
  <path fill="#ccc" d="M412.139 0h-274.76l-137.379 237.948 137.379 237.947 274.76-.001 137.379-237.947-137.379-237.947zm32.976 74.129l56.691 98.196-7.363 4.25-56.694-98.193 7.366-4.253zm-10.931 206.339c-23.482 0-42.52-19.036-42.52-42.52 0-23.482 19.037-42.52 42.52-42.52 23.483 0 42.52 19.037 42.52 42.52-.001 23.484-19.037 42.52-42.52 42.52zm21.937 30.908c0 7.827-6.346 14.173-14.173 14.173-7.828 0-14.174-6.346-14.174-14.173 0-7.828 6.346-14.174 14.174-14.174 7.827 0 14.173 6.346 14.173 14.174zm-41.797 0c0 7.827-6.346 14.173-14.173 14.173-7.828 0-14.174-6.346-14.174-14.173 0-7.828 6.346-14.174 14.174-14.174 7.828 0 14.173 6.346 14.173 14.174zm7.265-269.49c2.033-1.174 4.634-.475 5.808 1.559s.478 4.631-1.556 5.805c-2.032 1.174-4.634.479-5.808-1.555-1.174-2.036-.476-4.637 1.556-5.809zm13.271 111.055c0 14.09-11.422 25.512-25.512 25.512s-25.512-11.422-25.512-25.512 11.422-25.512 25.512-25.512 25.512 11.423 25.512 25.512zm-67.976-144.435c2.349 0 4.252 1.904 4.252 4.252s-1.903 4.252-4.252 4.252-4.252-1.904-4.252-4.252 1.903-4.252 4.252-4.252zm8.817 62.175c14.09 0 25.512 11.422 25.512 25.512s-11.422 25.512-25.512 25.512-25.512-11.422-25.512-25.512 11.422-25.512 25.512-25.512zm-193.37 167.267c0-23.482 19.037-42.52 42.52-42.52 23.483 0 42.52 19.037 42.52 42.52 0 23.483-19.036 42.52-42.52 42.52-23.483 0-42.52-19.036-42.52-42.52zm23.008 73.428c0 7.827-6.346 14.173-14.174 14.173s-14.174-6.346-14.174-14.173c0-7.828 6.346-14.174 14.174-14.174s14.174 6.346 14.174 14.174zm69.42-132.923c-14.09 0-25.512-11.422-25.512-25.512s11.422-25.512 25.512-25.512 25.512 11.422 25.512 25.512-11.422 25.512-25.512 25.512zm14.174 132.923c0 7.827-6.346 14.173-14.173 14.173-7.828 0-14.174-6.346-14.174-14.173 0-7.828 6.346-14.174 14.174-14.174 7.827 0 14.173 6.346 14.173 14.174zm-55.97-14.174c7.827 0 14.173 6.346 14.173 14.174 0 7.827-6.346 14.173-14.173 14.173-7.828 0-14.174-6.346-14.174-14.173 0-7.828 6.346-14.174 14.174-14.174zm14.173 92.847c0 7.827-6.346 14.173-14.173 14.173-7.828 0-14.174-6.346-14.174-14.173 0-7.828 6.346-14.174 14.174-14.174 7.827 0 14.173 6.346 14.173 14.174zm-7.448-39.021c0-7.828 6.346-14.174 14.174-14.174 7.826 0 14.172 6.346 14.172 14.174 0 7.827-6.346 14.173-14.172 14.173-7.828 0-14.174-6.346-14.174-14.173zm35.072 24.847c7.827 0 14.173 6.346 14.173 14.174 0 7.827-6.346 14.173-14.173 14.173-7.828 0-14.174-6.346-14.174-14.173 0-7.828 6.346-14.174 14.174-14.174zm6.724-24.847c0-7.828 6.346-14.174 14.174-14.174 7.827 0 14.173 6.346 14.173 14.174 0 7.827-6.346 14.173-14.173 14.173-7.828 0-14.174-6.346-14.174-14.173zm35.073 24.847c7.827 0 14.173 6.346 14.173 14.174 0 7.827-6.346 14.173-14.173 14.173-7.828 0-14.174-6.346-14.174-14.173 0-7.828 6.346-14.174 14.174-14.174zm-14.174-64.499c0-7.828 6.346-14.174 14.174-14.174 7.827 0 14.173 6.346 14.173 14.174 0 7.827-6.346 14.173-14.173 14.173-7.828 0-14.174-6.346-14.174-14.173zm27.135-30.908c-23.482 0-42.52-19.036-42.52-42.52 0-23.482 19.037-42.52 42.52-42.52 23.483 0 42.52 19.037 42.52 42.52-.001 23.484-19.037 42.52-42.52 42.52zm28.836 16.734c7.826 0 14.172 6.346 14.172 14.174 0 7.827-6.346 14.173-14.172 14.173-7.828 0-14.174-6.346-14.174-14.173.001-7.828 6.346-14.174 14.174-14.174zm9.211-144.261c0 14.09-11.422 25.512-25.512 25.512s-25.512-11.422-25.512-25.512 11.422-25.512 25.512-25.512 25.512 11.423 25.512 25.512zm-59.159-31.237c-14.09 0-25.512-11.422-25.512-25.512s11.422-25.512 25.512-25.512 25.512 11.422 25.512 25.512-11.422 25.512-25.512 25.512zm-90.34-113.198h113.386v8.504h-113.386v-8.504zm23.045 62.175c14.09 0 25.512 11.422 25.512 25.512s-11.422 25.512-25.512 25.512-25.511-11.423-25.511-25.513 11.421-25.511 25.511-25.511zm-8.135 82.26c0 14.09-11.422 25.512-25.512 25.512s-25.512-11.422-25.512-25.512 11.422-25.512 25.512-25.512 25.512 11.423 25.512 25.512zm-50.344-144.435c2.349 0 4.252 1.904 4.252 4.252s-1.903 4.252-4.252 4.252-4.252-1.904-4.252-4.252 1.903-4.252 4.252-4.252zm-8.816 62.175c14.09 0 25.512 11.422 25.512 25.512s-11.422 25.512-25.512 25.512-25.512-11.422-25.512-25.512 11.423-25.512 25.512-25.512zm-51.698-27.237c1.175-2.035 3.774-2.73 5.808-1.557s2.73 3.773 1.557 5.809c-1.174 2.033-3.775 2.73-5.809 1.557s-2.731-3.775-1.556-5.809zm18.051 83.986c14.09 0 25.512 11.422 25.512 25.512s-11.422 25.512-25.512 25.512-25.512-11.422-25.512-25.512 11.422-25.512 25.512-25.512zm-19.984 153.038c-23.482 0-42.52-19.036-42.52-42.52 0-23.482 19.037-42.52 42.52-42.52 23.483 0 42.52 19.037 42.52 42.52-.001 23.484-19.037 42.52-42.52 42.52zm1.559 30.908c0 7.827-6.346 14.173-14.173 14.173-7.828 0-14.174-6.346-14.174-14.173 0-7.828 6.346-14.174 14.174-14.174 7.827 0 14.173 6.346 14.173 14.174zm27.624-14.174c7.827 0 14.173 6.346 14.173 14.174 0 7.827-6.346 14.173-14.173 14.173-7.828 0-14.174-6.346-14.174-14.173 0-7.828 6.346-14.174 14.174-14.174zm-44.966-223.074l7.364 4.252-56.692 98.195-7.365-4.252 56.693-98.195zm-74.41 128.883c1.174-2.033 3.774-2.73 5.808-1.557s2.731 3.775 1.557 5.809-3.775 2.73-5.809 1.557-2.73-3.776-1.556-5.809zm5.809 71.432c-2.033 1.174-4.633.479-5.809-1.557-1.174-2.034-.475-4.633 1.559-5.807 2.033-1.175 4.633-.479 5.807 1.555 1.175 2.035.476 4.636-1.557 5.809zm68.601 127.325l-56.693-98.196 7.364-4.251 56.694 98.194-7.365 4.253zm9.894-50.74c0-7.828 6.346-14.174 14.174-14.174 7.827 0 14.173 6.346 14.173 14.174 0 7.827-6.346 14.173-14.173 14.173-7.828 0-14.174-6.346-14.174-14.173zm13.631 82.982c-2.033 1.175-4.634.478-5.808-1.556-1.174-2.034-.477-4.634 1.557-5.808s4.633-.479 5.809 1.556c1.173 2.034.475 4.634-1.558 5.808zm21.441-29.788c-7.828 0-14.174-6.346-14.174-14.173 0-7.828 6.346-14.174 14.174-14.174 7.827 0 14.173 6.346 14.173 14.174 0 7.827-6.346 14.173-14.173 14.173zm6.725-53.194c0-7.828 6.346-14.174 14.174-14.174 7.827 0 14.173 6.346 14.173 14.174 0 7.827-6.346 14.173-14.173 14.173-7.829 0-14.174-6.346-14.174-14.173zm26.54 116.364c-2.348 0-4.248-1.905-4.248-4.253-.002-2.349 1.9-4.252 4.248-4.252 2.35-.001 4.254 1.905 4.254 4.253s-1.903 4.251-4.254 4.252zm8.532-63.17c-7.828 0-14.174-6.346-14.174-14.173 0-7.828 6.346-14.174 14.174-14.174s14.174 6.346 14.174 14.174c0 7.827-6.346 14.173-14.174 14.173zm6.726-53.194c0-7.828 6.346-14.174 14.174-14.174 7.827 0 14.173 6.346 14.173 14.174 0 7.827-6.346 14.173-14.173 14.173-7.829 0-14.174-6.346-14.174-14.173zm20.175 116.364v-8.504l113.385-.002.002 8.505-113.387.001zm105.215-116.364c0-7.828 6.346-14.174 14.174-14.174 7.827 0 14.173 6.346 14.173 14.174 0 7.827-6.346 14.173-14.173 14.173-7.828 0-14.174-6.346-14.174-14.173zm43.606 116.364c-2.35-.001-4.252-1.904-4.252-4.253 0-2.348 1.902-4.251 4.252-4.253 2.348.001 4.251 1.906 4.251 4.254.001 2.347-1.904 4.252-4.251 4.252zm-8.533-63.17c-7.828 0-14.174-6.346-14.174-14.173 0-7.828 6.346-14.174 14.174-14.174 7.826 0 14.172 6.346 14.172 14.174 0 7.827-6.345 14.173-14.172 14.173zm6.725-53.194c0-7.828 6.346-14.174 14.174-14.174 7.827 0 14.173 6.346 14.173 14.174 0 7.827-6.346 14.173-14.173 14.173-7.828 0-14.174-6.346-14.174-14.173zm34.553 53.194c-7.828 0-14.174-6.346-14.174-14.173 0-7.828 6.346-14.174 14.174-14.174 7.827 0 14.173 6.346 14.173 14.174 0 7.827-6.346 14.173-14.173 14.173zm27.766 28.228c-1.175 2.037-3.773 2.731-5.807 1.558s-2.73-3.773-1.557-5.81c1.174-2.033 3.775-2.73 5.809-1.557s2.731 3.777 1.555 5.809zm-7.387-67.249c-7.828 0-14.174-6.346-14.174-14.173 0-7.828 6.346-14.174 14.174-14.174 7.827 0 14.173 6.346 14.173 14.174 0 7.827-6.346 14.173-14.173 14.173zm25.103 36.566l-7.362-4.252 56.691-98.195 7.365 4.253-56.694 98.194zm68.601-200.315c2.032-1.174 4.635-.479 5.807 1.557 1.176 2.037.479 4.634-1.555 5.808s-4.633.478-5.81-1.556c-1.174-2.033-.475-4.636 1.558-5.809zm.002 72.988c-2.031-1.174-2.73-3.775-1.557-5.809 1.176-2.032 3.777-2.729 5.809-1.556 2.033 1.174 2.729 3.776 1.556 5.808-1.174 2.034-3.775 2.731-5.808 1.557z"/>
</svg>
