<svg xmlns="http://www.w3.org/2000/svg" width="510.238" height="458.886">
	<polygon fill="#B3B8C3" points="494.652,256.443 510.238,229.442 494.646,202.434 489.734,205.27 491.578,208.46 486.178,211.581 484.336,208.388 476.234,213.065 471.982,205.698 480.082,201.022 478.24,197.833 483.641,194.712 485.482,197.907 490.395,195.068 474.807,168.069 482.17,163.819 425.477,65.622 418.113,69.876 402.52,42.867 397.611,45.703 399.451,48.895 394.051,52.015 392.209,48.821 384.107,53.497 379.855,46.133 387.955,41.457 386.111,38.264 391.514,35.146 393.357,38.337 398.268,35.505 382.68,8.501 351.494,8.503 351.494,14.174 355.18,14.174 355.18,20.41 351.494,20.41 351.494,29.764 342.99,29.764 342.99,20.41 339.305,20.41 339.305,14.174 342.99,14.174 342.99,8.503 311.811,8.505 311.812,0.001 198.428,0 198.428,8.505 167.242,8.504 167.242,14.174 170.928,14.174 170.928,20.41 167.242,20.41 167.242,29.764 158.738,29.764 158.738,20.41 155.053,20.41 155.053,14.174 158.738,14.174 158.738,8.504 127.562,8.503 111.969,35.511 116.881,38.347 118.723,35.155 124.125,38.272 122.281,41.464 130.381,46.142 126.129,53.506 118.029,48.829 116.188,52.021 110.785,48.903 112.629,45.711 107.715,42.874 92.125,69.876 84.764,65.624 28.07,163.819 35.434,168.069 19.842,195.077 24.754,197.913 26.598,194.722 31.998,197.84 30.156,201.031 38.256,205.708 34.004,213.073 25.904,208.396 24.061,211.588 18.66,208.47 20.502,205.278 15.59,202.441 0,229.442 15.594,256.45 20.506,253.614 18.662,250.424 24.062,247.304 25.906,250.496 34.006,245.821 38.258,253.185 30.158,257.861 32,261.052 26.6,264.172 24.758,260.979 19.846,263.815 35.436,290.815 28.07,295.067 84.764,393.261 92.127,389.011 107.719,416.017 112.631,413.183 110.789,409.989 116.189,406.872 118.031,410.062 126.133,405.386 130.385,412.751 122.283,417.427 124.127,420.62 118.727,423.737 116.883,420.547 111.973,423.382 127.561,450.38 158.746,450.382 158.746,444.712 155.061,444.713 155.061,438.476 158.746,438.476 158.746,429.124 167.25,429.124 167.25,438.477 170.936,438.476 170.936,444.713 167.25,444.712 167.252,450.38 198.428,450.38 198.428,458.886 311.812,458.884 311.812,450.384 342.998,450.383 342.998,444.713 339.312,444.712 339.312,438.476 342.998,438.476 342.998,429.122 351.502,429.122 351.502,438.475 355.188,438.476 355.188,444.712 351.502,444.713 351.502,450.383 382.682,450.382 398.273,423.374 393.361,420.538 391.52,423.731 386.117,420.614 387.961,417.423 379.861,412.745 384.113,405.38 392.213,410.056 394.055,406.866 399.457,409.983 397.613,413.174 402.525,416.011 418.115,389.01 425.477,393.26 482.168,295.067 474.807,290.815 490.4,263.808 485.488,260.972 483.645,264.163 478.244,261.046 480.086,257.856 471.986,253.177 476.238,245.812 484.338,250.491 486.182,247.298 491.582,250.415 489.74,253.607"/>
</svg>
