<svg xmlns="http://www.w3.org/2000/svg" width="510.238" height="450.385">
  <polygon fill="#ccc" points="510.238,220.941 494.646,193.933 489.734,196.769 491.578,199.959 486.178,203.08 484.336,199.887 476.234,204.564 471.982,197.197 480.082,192.521 478.24,189.332 483.641,186.211 485.482,189.406 490.395,186.567 474.807,159.568 482.17,155.318 425.477,57.121 418.113,61.375 402.52,34.366 397.611,37.202 399.451,40.394 394.051,43.514 392.209,40.32 384.107,44.996 379.855,37.632 387.955,32.956 386.111,29.763 391.514,26.646 393.357,29.836 398.268,27.004 382.68,0 127.562,0.002 111.969,27.01 116.881,29.846 118.723,26.654 124.125,29.771 122.281,32.963 130.381,37.641 126.129,45.005 118.029,40.328 116.188,43.52 110.785,40.402 112.629,37.21 107.715,34.373 92.125,61.375 84.764,57.123 28.07,155.318 35.434,159.568 19.842,186.576 24.754,189.412 26.598,186.221 31.998,189.339 30.156,192.53 38.256,197.207 34.004,204.572 25.904,199.895 24.061,203.087 18.66,199.969 20.502,196.777 15.59,193.94 0,220.941 127.561,441.879 158.746,441.881 158.746,436.211 155.061,436.212 155.061,429.975 158.746,429.975 158.746,420.623 167.25,420.623 167.25,429.976 170.936,429.975 170.936,436.212 167.25,436.211 167.252,441.879 198.428,441.879 198.428,450.385 311.812,450.383 311.812,441.883 342.998,441.882 342.998,436.212 339.312,436.211 339.312,429.975 342.998,429.975 342.998,420.621 351.502,420.621 351.502,429.974 355.188,429.975 355.188,436.211 351.502,436.212 351.502,441.882 382.682,441.881"/>
</svg>
