<svg xmlns="http://www.w3.org/2000/svg" width="510.238" height="458.886">
  <polygon fill="#B3B8C3" points="510.238,229.441 474.805,168.069 482.166,163.819 425.475,65.624 418.112,69.874 382.68,8.503 311.811,8.503 311.811,0 198.425,0 198.425,8.504 127.559,8.504 92.125,69.877 84.762,65.625 28.068,163.819 35.433,168.071 0,229.443 35.432,290.815 28.068,295.067 84.762,393.263 92.126,389.011 127.559,450.382 198.426,450.382 198.426,458.886 311.812,458.886 311.812,450.382 382.678,450.382 418.111,389.01 425.475,393.262 482.168,295.067 474.804,290.815"/>
</svg>
