<svg xmlns="http://www.w3.org/2000/svg" width="510.238" height="458.886">
  <path fill="#ccc" d="M510.238 229.441l-35.434-61.372 7.361-4.25-56.691-98.195-7.362 4.25-35.432-61.371h-70.869v-8.503h-113.386v8.504h-70.866l-35.434 61.373-7.363-4.252-56.693 98.194 7.364 4.252-35.433 61.372 35.432 61.372-7.363 4.252 56.693 98.195 7.364-4.252 35.433 61.371h70.867v8.504h113.386v-8.504h70.866l35.434-61.372 7.363 4.252 56.693-98.194-7.364-4.252 35.434-61.374zm-117.307-27.381l7.088 12.274-7.088 12.274h-14.174l-7.086-12.274 7.086-12.274h14.174zm-145.424 9.439l-7.086-12.274 7.086-12.274h14.174l7.088 12.274-7.088 12.274h-14.174zm21.262 17.944l-7.088 12.274h-14.174l-7.086-12.274 7.086-12.274h14.174l7.088 12.274zm-26.25-15.109l-7.088 12.274h-14.174l-7.086-12.274 7.086-12.274h14.174l7.088 12.274zm-7.088 17.944l7.088 12.274-7.088 12.274h-14.174l-7.086-12.274 7.086-12.274h14.174zm12.076 15.11h14.174l7.088 12.274-7.088 12.274h-14.174l-7.086-12.274 7.086-12.274zm19.164-2.835l7.086-12.274h14.174l7.088 12.274-7.088 12.274h-14.174l-7.086-12.274zm7.086-17.945l-7.086-12.274 7.086-12.274h14.174l7.088 12.274-7.088 12.274h-14.174zm19.164-27.383l7.086-12.274h14.174l7.088 12.274-7.088 12.274h-14.174l-7.086-12.274zm7.086-17.945l-7.086-12.274 7.086-12.274h14.174l7.088 12.274-7.088 12.274h-14.174zm-4.988 2.835l-7.088 12.274h-14.174l-7.086-12.274 7.086-12.274h14.174l7.088 12.274zm-33.338-2.835h-14.174l-7.086-12.274 7.086-12.274h14.174l7.088 12.274-7.088 12.274zm-19.162 2.835l-7.088 12.274h-14.174l-7.086-12.274 7.086-12.274h14.174l7.088 12.274zm-26.25 15.11l-7.088 12.274h-14.174l-7.086-12.274 7.086-12.274h14.174l7.088 12.274zm-7.088 17.944l7.088 12.274-7.088 12.274h-14.174l-7.086-12.274 7.086-12.274h14.174zm-19.162 27.384l-7.088 12.274h-14.174l-7.086-12.274 7.086-12.274h14.174l7.088 12.274zm4.988 2.835h14.174l7.088 12.274-7.088 12.274h-14.174l-7.086-12.274 7.086-12.274zm14.174 30.218l7.088 12.274-7.088 12.274h-14.174l-7.086-12.274 7.086-12.274h14.174zm4.99-2.835l7.086-12.274h14.174l7.088 12.274-7.088 12.274h-14.174l-7.086-12.274zm33.336 2.835h14.174l7.088 12.274-7.088 12.274h-14.174l-7.086-12.274 7.086-12.274zm19.164-2.835l7.086-12.274h14.174l7.088 12.274-7.088 12.274h-14.174l-7.086-12.274zm26.25-15.109l7.086-12.274h14.174l7.088 12.274-7.088 12.274h-14.174l-7.086-12.274zm7.086-17.944l-7.086-12.274 7.086-12.274h14.174l7.088 12.274-7.088 12.274h-14.174zm19.164-27.384l7.086-12.274h15.222999999999999l7.088 12.274-7.088 12.274h-15.222999999999999l-7.086-12.274zm26.25-15.109l7.086-12.274h14.174l7.088 12.274-7.088 12.274h-14.174l-7.086-12.274zm-4.99-2.835h-14.174l-7.086-12.274 7.086-12.274h14.174l7.088 12.274-7.088 12.274zm-14.174-30.219l-7.086-12.274 7.086-12.274h14.174l7.088 12.274-7.088 12.274h-14.174zm-12.076-15.109h-14.174l-7.086-12.274 7.086-12.274h14.174l7.088 12.274-7.088 12.274zm-19.162 2.834l-7.088 12.274h-14.174l-7.086-12.274 7.086-12.274h14.174l7.088 12.274zm-33.338-2.834h-14.174l-7.086-12.274 7.086-12.274h14.174l7.088 12.274-7.088 12.274zm-19.162 2.834l-7.088 12.274h-14.174l-7.086-12.274 7.086-12.274h14.174l7.088 12.274zm-33.338-2.834h-14.174l-7.086-12.274 7.086-12.274h14.174l7.088 12.274-7.088 12.274zm0 5.669l7.088 12.274-7.088 12.274h-14.174l-7.086-12.274 7.086-12.274h14.174zm-19.162 27.384l-7.088 12.274h-14.174l-7.086-12.274 7.086-12.274h14.174l7.088 12.274zm-7.088 17.945l7.088 12.274-7.088 12.274h-14.174l-7.086-12.274 7.086-12.274h14.174zm-19.162 27.383l-7.088 12.274h-14.174l-7.086-12.274 7.086-12.274h14.174l7.088 12.274zm-7.088 17.945l7.088 12.274-7.088 12.274h-14.174l-7.086-12.274 7.086-12.274h14.174zm12.076 15.109h14.174l7.088 12.274-7.088 12.274h-14.174l-7.086-12.274 7.086-12.274zm14.174 30.219l7.088 12.274-7.088 12.274h-14.174l-7.086-12.274 7.086-12.274h14.174zm12.076 15.109h14.174l7.088 12.274-7.088 12.274h-14.174l-7.086-12.274 7.086-12.274zm19.164-2.835l7.086-12.274h14.174l7.088 12.274-7.088 12.274h-14.174l-7.086-12.274zm33.336 2.835h14.174l7.088 12.274-7.088 12.274h-14.174l-7.086-12.274 7.086-12.274zm19.164-2.835l7.086-12.274h14.174l7.088 12.274-7.088 12.274h-14.174l-7.086-12.274zm33.336 2.835h14.174l7.088 12.274-7.088 12.274h-14.174l-7.086-12.274 7.086-12.274zm0-5.67l-7.086-12.274 7.086-12.274h14.174l7.088 12.274-7.088 12.274h-14.174zm19.164-27.384l7.086-12.274h15.222999999999999l7.088 12.274-7.088 12.274h-15.222999999999999l-7.086-12.274zm21.26-17.944h-14.174l-7.086-12.274 7.086-12.274h15.222999999999999l7.088 12.274-7.088 12.274h-1.049zm6.039-27.384l7.086-12.274h14.174l7.088 12.274-7.088 12.274h-14.174l-7.086-12.274zm20.211-72.712l7.088 12.274-7.088 12.274h-14.174l-7.086-12.274 7.086-12.274h14.174zm-26.25-45.328l7.088 12.274-7.088 12.274h-14.174l-7.086-12.274 7.086-12.274h14.174zm-40.424-15.109h14.174l7.088 12.274-7.088 12.274h-14.174l-7.086-12.274 7.086-12.274zm-12.076 15.109l7.088 12.274-7.088 12.274h-14.174l-7.086-12.274 7.086-12.274h14.174zm-40.424-15.109h14.174l7.088 12.274-7.088 12.274h-14.174l-7.086-12.274 7.086-12.274zm-12.076 15.109l7.088 12.274-7.088 12.274h-14.174l-7.086-12.274 7.086-12.274h14.174zm-40.424-15.109h14.174l7.088 12.274-7.088 12.274h-14.174l-7.086-12.274 7.086-12.274zm-26.25 15.109h14.174l7.088 12.274-7.088 12.274h-14.174l-7.086-12.274 7.086-12.274zm0 30.219h14.174l7.088 12.274-7.088 12.274h-14.174l-7.086-12.274 7.086-12.274zm-26.25 15.109h14.174l7.088 12.274-7.088 12.274h-14.174l-7.086-12.274 7.086-12.274zm0 30.219h14.174l7.088 12.274-7.088 12.274h-14.174l-7.086-12.274 7.086-12.274zm-26.25 15.094h14.174l7.088 12.274-7.088 12.274h-14.174l-7.086-12.274 7.086-12.274zm0 54.783l-7.086-12.274.006-.008-.006-.008 7.086-12.274h14.174l7.088 12.274-.006.008.006.008-7.088 12.274h-14.174zm26.25 45.328l-7.086-12.274 7.086-12.274h14.174l7.088 12.274-7.088 12.274h-14.174zm26.25 45.328l-7.086-12.274 7.086-12.274h14.174l7.088 12.274-7.088 12.274h-14.174zm40.424 15.11h-14.174l-7.086-12.274 7.086-12.274h14.174l7.088 12.274-7.088 12.274zm12.076-15.11l-7.086-12.274 7.086-12.274h14.174l7.088 12.274-7.088 12.274h-14.174zm40.424 15.11h-14.174l-7.086-12.274 7.086-12.274h14.174l7.088 12.274-7.088 12.274zm12.076-15.11l-7.086-12.274 7.086-12.274h14.174l7.088 12.274-7.088 12.274h-14.174zm40.424 15.11h-14.174l-7.086-12.274 7.086-12.274h14.174l7.088 12.274-7.088 12.274zm26.25-15.11h-14.174l-7.086-12.274 7.086-12.274h14.174l7.088 12.274-7.088 12.274zm1.048-30.218h-15.222999999999999l-7.086-12.274 7.086-12.274h15.222999999999999l7.088 12.274-7.088 12.274zm26.25-15.11h-14.174l-7.086-12.274 7.086-12.274h14.174l7.088 12.274-7.088 12.274zm0-30.218h-14.174l-7.086-12.274 7.086-12.274h14.174l7.088 12.274-7.088 12.274zm26.25-15.11h-14.174l-7.086-12.274 7.086-12.274h14.174l7.088 12.274-7.088 12.274z"/>
</svg>
