<svg xmlns="http://www.w3.org/2000/svg" width="980.562" height="595.28"><path stroke="#2B4B9B" stroke-miterlimit="10" d="M319.938 164.729l-4.248 10.255-6.757 8.806-8.807 6.757-10.255 4.248-11.005 1.449-11.005-1.449-10.255-4.248-8.807-6.757-6.757-8.806-4.248-10.255-1.448-11.005 1.448-11.005 4.248-10.255 6.757-8.806 8.807-6.757 10.255-4.248 11.005-1.449 11.005 1.449 10.255 4.248 8.807 6.757 6.757 8.806 4.248 10.255 1.448 11.005-1.448 11.005z" fill="none"/><path stroke="#2B4B9B" stroke-miterlimit="10" d="M349.732 270.041l.022-175.793h-5.67v3.685h-6.236v-3.685h-8.504v-8.504h8.504v-3.685h6.236v3.685l5.647.045v-28.347h-141.731v28.346l5.669.028v-3.685h6.236v3.685h8.504v8.504h-8.504v3.685h-6.236v-3.685h-5.669v175.72h-8.504v56.692h8.504v175.748h5.669v-3.684h6.236v3.684h8.504v8.504h-8.504v3.686h-6.236v-3.686h-5.669v28.348h141.732v-28.412h-5.241v3.684h-6.236v-3.684h-8.504v-8.504h8.504v-3.686h6.236v3.686h5.241v-175.684h8.504v-56.692h-8.504zm-29.794 183.918l-4.248 10.254-6.757 8.807-8.807 6.758-10.255 4.246-11.005 1.449-11.005-1.449-10.255-4.246-8.807-6.758-6.757-8.807-4.248-10.254-1.448-11.006 1.448-11.004 4.248-10.256 6.757-8.807 8.807-6.756 10.255-4.248 11.005-1.449 11.005 1.449 10.255 4.248 8.807 6.756 6.757 8.807 4.248 10.256 1.448 11.004-1.448 11.006zm0-96.379l-4.248 10.256-6.757 8.805-8.807 6.758-10.255 4.248-11.005 1.449-11.005-1.449-10.255-4.248-8.807-6.758-6.757-8.805-4.248-10.256-1.448-11.004 1.448-11.006 4.248-10.254 6.757-8.807 8.807-6.758 10.255-4.246 11.005-1.449 11.005 1.449 10.255 4.246 8.807 6.758 6.757 8.807 4.248 10.254 1.448 11.006-1.448 11.004zm0-96.377l-4.248 10.255-6.757 8.806-8.807 6.757-10.255 4.248-11.005 1.449-11.005-1.449-10.255-4.248-8.807-6.757-6.757-8.806-4.248-10.255-1.448-11.005 1.448-11.005 4.248-10.255 6.757-8.806 8.807-6.757 10.255-4.248 11.005-1.449 11.005 1.449 10.255 4.248 8.807 6.757 6.757 8.806 4.248 10.255 1.448 11.005-1.448 11.005z" fill="none"/><path stroke="#2B4B9B" stroke-linecap="round" stroke-linejoin="round" d="M393.008 326.828h-8.504v-56.883h8.504v56.883z" fill="none"/><path stroke="#2B4B9B" stroke-miterlimit="10" d="M376 57.443v481.889h274.96v-481.889h-274.96zm8.546 32.042l.299-1.069.564-.956.793-.776.967-.545 1.076-.276 1.109.012 1.069.298.955.565.776.793.545.967.277 1.075-.012 1.11-.299 1.069-.564.956-.794.776-.967.545-1.075.276-.511.031-.599-.042-1.069-.298-.956-.565-.776-.793-.545-.967-.276-1.075.013-1.111zm8.316 418.349l-.424 1.025-.676.881-.881.676-1.025.424-1.101.145-1.101-.145-1.025-.424-.881-.676-.676-.881-.425-1.025-.145-1.102.145-1.1.425-1.025.676-.881.881-.676 1.025-.426 1.101-.145 1.101.145 1.025.426.881.676.676.881.424 1.025.146 1.1-.146 1.102zm249.45-.066l-.426 1.025-.676.881-.879.676-1.025.426-1.102.145-1.1-.145-1.025-.426-.881-.676-.676-.881-.426-1.025-.145-1.1.145-1.102.426-1.025.676-.881.881-.676 1.025-.424 1.1-.145 1.102.145 1.025.424.879.676.676.881.426 1.025.145 1.102-.145 1.1zm.144-181.036h-8.504v-56.691h8.504v56.691zm-.144-235.59l-.426 1.025-.676.881-.879.676-1.025.424-1.102.145-1.1-.145-1.025-.424-.881-.676-.676-.881-.426-1.025-.145-1.101.145-1.101.426-1.025.676-.88.881-.676 1.025-.425 1.1-.145 1.102.145 1.025.425.879.676.676.88.426 1.025.145 1.101-.145 1.101z" fill="none"/><path stroke="#2B4B9B" stroke-miterlimit="10" d="M676.04 57.443v481.889h274.96v-481.889h-274.96zm8.546 32.042l.299-1.069.564-.956.793-.776.967-.545 1.076-.276 1.109.012 1.069.298.955.565.776.793.545.967.277 1.075-.012 1.11-.299 1.069-.564.956-.794.776-.967.545-1.075.276-.511.031-.599-.042-1.069-.298-.956-.565-.776-.793-.545-.967-.276-1.075.013-1.111zm8.316 418.349l-.424 1.025-.676.881-.881.676-1.025.424-1.101.145-1.101-.145-1.025-.424-.881-.676-.676-.881-.425-1.025-.145-1.102.145-1.1.425-1.025.676-.881.881-.676 1.025-.426 1.101-.145 1.101.145 1.025.426.881.676.676.881.424 1.025.146 1.1-.146 1.102zm249.45-.066l-.426 1.025-.676.881-.879.676-1.025.426-1.102.145-1.1-.145-1.025-.426-.881-.676-.676-.881-.426-1.025-.145-1.1.145-1.102.426-1.025.676-.881.881-.676 1.025-.424 1.1-.145 1.102.145 1.025.424.879.676.676.881.426 1.025.145 1.102-.145 1.1zm.144-181.036h-8.504v-56.691h8.504v56.691zm-.144-235.59l-.426 1.025-.676.881-.879.676-1.025.424-1.102.145-1.1-.145-1.025-.424-.881-.676-.676-.881-.426-1.025-.145-1.101.145-1.101.426-1.025.676-.88.881-.676 1.025-.425 1.1-.145 1.102.145 1.025.425.879.676.676.88.426 1.025.145 1.101-.145 1.101z" fill="none"/><polygon stroke="#2B4B9B" stroke-miterlimit="10" points="176.732,270.04 176.727,94.335 171.058,94.335 171.058,98.02 164.821,98.02 164.821,94.335 156.317,94.335 156.317,85.831 164.821,85.831 164.821,82.146 171.058,82.146 171.058,85.831 176.732,85.788 176.732,57.442 35,57.442 35,85.788 40.669,85.788 40.669,82.103 46.905,82.103 46.905,85.788 55.409,85.788 55.409,94.292 46.905,94.292 46.905,97.977 40.669,97.977 40.669,94.292 35,94.292 35,270.04 26.496,270.04 26.496,326.924 35,326.924 35,502.514 40.669,502.514 40.669,498.83 46.905,498.83 46.905,502.514 55.409,502.514 55.409,511.018 46.905,511.018 46.905,514.703 40.669,514.703 40.669,511.018 35,510.984 35,539.332 176.732,539.332 176.732,510.984 171.078,510.996 171.078,514.68 164.842,514.68 164.842,510.996 156.338,510.996 156.338,502.492 164.842,502.492 164.842,498.807 171.078,498.807 171.078,502.492 176.747,502.492 176.732,326.732 185.236,326.732 185.236,270.163 176.732,270.163" fill="none"/></svg>