<svg xmlns="http://www.w3.org/2000/svg" width="263.677" height="314.645">
  <path fill="#ccc" d="M263.677 25.512v-8.504h-4.252v-8.504h-31.025v5.67h3.686v6.236h-3.686v9.354h-8.504v-9.354h-3.686v-6.236h3.686v-5.67h-31.336v-8.504h-113.386v8.504l-31.107-.006v5.676h3.686v6.236h-3.686v9.354h-8.504v-9.354h-3.686v-6.236h3.686v-5.676l-35.563.006v8.504h4.309v8.504h-4.309v8.504h4.309v8.504h-4.309v8.504h4.309v8.504h-4.309v8.504h4.309v8.504h-4.309v8.504h4.309v8.504h-4.309v8.504h4.309v8.504h-4.309v8.504h4.309v8.504h-4.309v8.504h4.309v8.504h-4.309v8.504h4.309v8.504h-4.309v8.504h4.309v8.504h-4.309v8.504h4.309v8.504h-4.309v8.504h4.309v8.504h-4.309v8.504h4.309v8.504h-4.309v8.504h4.309v8.504h-4.309v8.504h4.309v8.504h-4.309v8.504h4.309v8.504h-4.309v8.504h4.309v8.504h-4.309v8.504h4.309v8.504h259.368v-8.504h-4.252v-8.504h4.252v-8.504h-4.252v-8.504h4.252v-8.504h-4.252v-8.504h4.252v-8.504h-4.252v-8.504h4.252v-8.504h-4.252v-8.504h4.252v-8.504h-4.252v-8.504h4.252v-8.504h-4.252v-8.504h4.252v-8.504h-4.252v-8.504h4.252v-8.504h-4.252v-8.504h4.252v-8.504h-4.252v-8.504h4.252v-8.504h-4.252v-8.504h4.252v-8.504h-4.252v-8.504h4.252v-8.504h-4.252v-8.504h4.252v-8.504h-4.252v-8.504h4.252v-8.504h-4.252v-8.504h4.252v-8.504h-4.252v-8.504h4.252v-8.504h-4.252v-8.504h4.252zm-223.939 267.873c-2.349 0-4.252-1.902-4.252-4.252 0-2.348 1.903-4.252 4.252-4.252s4.252 1.904 4.252 4.252c0 2.349-1.903 4.252-4.252 4.252zm148.822 0h-113.386v-8.504h113.386v8.504zm35.43 0c-2.349 0-4.252-1.902-4.252-4.252 0-2.348 1.903-4.252 4.252-4.252s4.252 1.904 4.252 4.252c0 2.349-1.903 4.252-4.252 4.252z"/>
</svg>
