<svg xmlns="http://www.w3.org/2000/svg" width="263.677" height="688.818">
  <rect x="75.174" y="659.055" width="113.386" height="8.504" fill="none"/>
  <circle cx="39.738" cy="663.307" r="4.252" fill="none"/>
  <circle cx="223.99" cy="663.307" r="4.252" fill="none"/>
  <path fill="#B3B8C3" d="M263.677 25.513v-8.504h-4.252v-8.505h-31.025v5.67h3.686v6.236h-3.686v9.354h-8.504v-9.354h-3.686v-6.236h3.686v-5.67h-31.336v-8.504h-113.386v8.504l-31.107-.006v5.676h3.686v6.236h-3.686v9.354h-8.504v-9.354h-3.686v-6.236h3.686v-5.677l-35.563.007v8.504h4.309v8.504h-4.309v8.504h4.309v8.504h-4.309v8.504h4.309v8.504h-4.309v8.504h4.309v8.504h-4.309v8.504h4.309v8.504h-4.309v8.504h4.309v8.504h-4.309v8.504h4.309v8.504h-4.309v8.504h4.309v8.504h-4.309v8.504h4.309v8.504h-4.309v8.504h4.309v8.504h-4.309v8.504h4.309v8.504h-4.309v8.504h4.309v8.504h-4.309v8.504h4.309v8.504h-4.309v8.504h4.309v8.504h-4.309v8.504h4.309v8.504h-4.309v8.504h4.309v8.504h-4.309v8.504h4.309v8.504h-4.309v8.504h4.309v8.504h-4.309v8.504h4.309v8.504h-4.309v8.504h4.309v8.505h-4.309v8.504h4.309v8.504h-4.309v8.504h4.309v8.504h-4.309v8.504h4.309v8.504h-4.309v8.504h4.309v8.504h-4.309v8.504h4.309v8.504h-4.309v8.504h4.309v8.504h-4.309v8.504h4.309v8.504h-4.309v8.504h4.309v8.504h-4.309v8.504h4.309v8.504h-4.309v8.504h4.309v8.504h-4.309v8.504h4.309v8.504h-4.309v8.504h4.309v8.504h-4.309v8.504h4.309v8.504h-4.309v8.504h4.309v8.504h-4.309v8.504h4.309v8.504h-4.309v8.504h4.309v8.504h-4.309v8.504h4.309v8.504h-4.309v8.504h4.309v8.504h-4.309v8.504h4.309v8.504h-4.309v8.504h4.309v8.505h259.368v-8.504h-4.252v-8.504h4.252v-8.504h-4.252v-8.504h4.252v-8.504h-4.252v-8.504h4.252v-8.504h-4.252v-8.504h4.252v-8.504h-4.252v-8.504h4.252v-8.504h-4.252v-8.504h4.252v-8.504h-4.252v-8.504h4.252v-8.504h-4.252v-8.504h4.252v-8.504h-4.252v-8.504h4.252v-8.504h-4.252v-8.504h4.252v-8.504h-4.252v-8.504h4.252v-8.504h-4.252v-8.504h4.252v-8.504h-4.252v-8.504h4.252v-8.504h-4.252v-8.504h4.252v-8.504h-4.252v-8.504h4.252v-8.504h-4.252v-8.504h4.252v-8.504h-4.252v-8.504h4.252v-8.504h-4.252v-8.504h4.252v-8.504h-4.252v-8.504h4.252v-8.504h-4.252v-8.505h4.252v-8.504h-4.252v-8.504h4.252v-8.504h-4.252v-8.504h4.252v-8.504h-4.252v-8.504h4.252v-8.504h-4.252v-8.504h4.252v-8.504h-4.252v-8.504h4.252v-8.504h-4.252v-8.504h4.252v-8.504h-4.252v-8.504h4.252v-8.504h-4.252v-8.504h4.252v-8.504h-4.252v-8.504h4.252v-8.504h-4.252v-8.504h4.252v-8.504h-4.252v-8.504h4.252v-8.504h-4.252v-8.504h4.252v-8.504h-4.252v-8.504h4.252v-8.504h-4.252v-8.504h4.252v-8.504h-4.252v-8.504h4.252v-8.505h-4.252v-8.504h4.252v-8.504h-4.252v-8.504h4.252v-8.504h-4.252v-8.504h4.252v-8.504h-4.252v-8.504h4.252zm-223.939 642.046c-2.349 0-4.252-1.903-4.252-4.252s1.903-4.252 4.252-4.252 4.252 1.903 4.252 4.252-1.903 4.252-4.252 4.252zm148.822 0h-113.386v-8.504h113.386v8.504zm35.43 0c-2.349 0-4.252-1.903-4.252-4.252s1.903-4.252 4.252-4.252 4.252 1.903 4.252 4.252-1.903 4.252-4.252 4.252z"/>
</svg>
