<svg xmlns="http://www.w3.org/2000/svg" width="255.117" height="314.645">
	<rect x="70.865" y="284.88" width="113.387" height="8.504" fill="none"/>
	<circle cx="35.43" cy="289.132" r="4.252" fill="none"/>
	<circle cx="219.682" cy="289.132" r="4.252" fill="none"/>
	<path fill="#ccc" d="M224.092 8.503v5.67h3.686v6.236h-3.686v9.354h-8.504v-9.353h-3.686v-6.236h3.686v-5.67h-31.336v-8.504h-113.387v8.504l-31.105-.006v5.676h3.686v6.236h-3.686v9.354h-8.504v-9.354h-3.686v-6.236h3.686v-5.676l-31.256.005v306.141l255.117.001v-306.142h-31.025zm-188.662 284.881c-2.348 0-4.252-1.902-4.252-4.252 0-2.348 1.904-4.252 4.252-4.252 2.35 0 4.252 1.904 4.252 4.252 0 2.35-1.903 4.252-4.252 4.252zm148.822 0h-113.387v-8.504h113.387v8.504zm35.43 0c-2.348 0-4.252-1.902-4.252-4.252 0-2.348 1.904-4.252 4.252-4.252 2.35 0 4.252 1.904 4.252 4.252 0 2.35-1.903 4.252-4.252 4.252z"/>
</svg>
